<?xml version="1.0" encoding="UTF-8" standalone="no"?>
<!-- Generator: Adobe Illustrator 19.0.0, SVG Export Plug-In . SVG Version: 6.00 Build 0)  -->

<svg
   version="1.1"
   id="Layer_1"
   x="0px"
   y="0px"
   viewBox="0 0 512 512"
   style="enable-background:new 0 0 512 512;"
   xml:space="preserve"
   sodipodi:docname="icon-book-shop.svg"
   inkscape:version="1.2.1 (9c6d41e410, 2022-07-14)"
   xmlns:inkscape="http://www.inkscape.org/namespaces/inkscape"
   xmlns:sodipodi="http://sodipodi.sourceforge.net/DTD/sodipodi-0.dtd"
   xmlns="http://www.w3.org/2000/svg"
   xmlns:svg="http://www.w3.org/2000/svg"><defs
   id="defs13063" /><sodipodi:namedview
   id="namedview13061"
   pagecolor="#ffffff"
   bordercolor="#000000"
   borderopacity="0.25"
   inkscape:showpageshadow="2"
   inkscape:pageopacity="0.0"
   inkscape:pagecheckerboard="0"
   inkscape:deskcolor="#d1d1d1"
   showgrid="false"
   inkscape:zoom="0.50146484"
   inkscape:cx="448.68549"
   inkscape:cy="205.39825"
   inkscape:window-width="2560"
   inkscape:window-height="1387"
   inkscape:window-x="-8"
   inkscape:window-y="-8"
   inkscape:window-maximized="1"
   inkscape:current-layer="Layer_1" />
<path
   style="fill:#7FD5E0;"
   d="M464.935,394.525v107.841h-363.95c-14.879,0-28.36-6.034-38.129-15.791  c-9.757-9.757-15.791-23.237-15.791-38.129c0-29.785,24.149-53.92,53.92-53.92H464.935z"
   id="path13006" />
<path
   style="fill:#B1E9F9;"
   d="M464.935,9.624v384.902h-363.95c-29.772,0-53.92,24.136-53.92,53.92V63.531  c0-14.892,6.034-28.36,15.791-38.117c9.77-9.757,23.25-15.791,38.129-15.791C100.985,9.624,464.935,9.624,464.935,9.624z"
   id="path13008" />
<path
   style="fill:#7FD5E0;"
   d="M100.985,9.624v384.902c-29.772,0-53.92,24.136-53.92,53.92V63.531  c0-14.892,6.034-28.36,15.791-38.117C72.626,15.657,86.106,9.624,100.985,9.624z"
   id="path13010" />
<path
   style="fill:#EAE2DC;"
   d="M424.495,394.525v70.61H53.214l-3.325,0.603c-1.836-5.431-2.824-11.246-2.824-17.293  c0-4.801,0.629-9.462,1.81-13.904c6.137-23.045,27.14-40.017,52.11-40.017H424.495z"
   id="path13012" />
<path
   style="fill:#D6D0CC;"
   d="M424.495,394.525v40.017H48.875c6.137-23.045,27.14-40.017,52.11-40.017H424.495z"
   id="path13014" />
<path
   style="fill:#E0C46A;"
   d="M422.569,93.906v214.192c-23.276,0-42.148,18.859-42.148,42.135H187.425  c0-23.276-18.872-42.135-42.148-42.135V93.906c23.276,0,42.148-18.872,42.148-42.148h192.997  C380.421,75.034,399.293,93.906,422.569,93.906z"
   id="path13016" />

<path
   d="M464.935,0c0,0-364.048,0.003-364.099,0.004c-16.905,0.039-32.804,6.64-44.79,18.608  c-12.001,12.001-18.61,27.956-18.61,44.925v384.915c0,6.984,1.121,13.841,3.333,20.378c0.001,0.004,0.003,0.009,0.004,0.013  c3.122,9.187,8.404,17.676,15.279,24.552C68.067,505.392,84.025,512,100.985,512h363.95c5.319,0,9.629-4.311,9.629-9.629V9.629  C474.564,4.311,470.254,0,464.935,0z M69.659,32.233c6.056-6.047,13.549-10.119,21.7-11.918v58.412c0,5.318,4.31,9.629,9.629,9.629  s9.629-4.311,9.629-9.629v-59.47h344.69v365.645H110.618V319.43c0-5.318-4.31-9.629-9.629-9.629c-5.319,0-9.629,4.311-9.629,9.629  v66.2c-13.379,2.041-25.389,8.279-34.667,17.311V63.536C56.693,51.711,61.3,40.593,69.659,32.233z M455.307,492.743H100.985  c-11.821,0-22.947-4.608-31.32-12.97c-4.792-4.793-8.477-10.71-10.654-17.113c-1.537-4.546-2.317-9.327-2.317-14.208  c0-24.422,19.87-44.292,44.292-44.292h313.881v51.353H91.678c-5.319,0-9.629,4.311-9.629,9.629c0,5.318,4.31,9.629,9.629,9.629  h332.817c5.319,0,9.629-4.311,9.629-9.629v-60.981h21.183V492.743z"
   id="path13020" />
<path
   d="M100.989,296.323c5.319,0,9.629-4.311,9.629-9.629V163.453c0-5.318-4.31-9.629-9.629-9.629  c-5.319,0-9.629,4.311-9.629,9.629v123.242C91.36,292.014,95.67,296.323,100.989,296.323z"
   id="path13022" />
<path
   d="M100.989,142.273c5.319,0,9.629-4.311,9.629-9.629v-24.391c0-5.318-4.31-9.629-9.629-9.629  c-5.319,0-9.629,4.311-9.629,9.629v24.391C91.36,137.962,95.67,142.273,100.989,142.273z"
   id="path13024" />
<path
   d="M145.277,317.732c17.931,0,32.519,14.582,32.519,32.506c0,5.318,4.31,9.629,9.629,9.629h141.759  c5.319,0,9.629-4.311,9.629-9.629c0-5.318-4.31-9.629-9.629-9.629H196.156c-3.936-20.838-20.408-37.301-41.25-41.238v-196.73  c20.843-3.936,37.313-20.408,41.25-41.25h175.535c3.936,20.843,20.408,37.314,41.25,41.25v196.73  c-20.843,3.935-37.313,20.4-41.25,41.238h-10.411c-5.319,0-9.629,4.311-9.629,9.629c0,5.318,4.31,9.629,9.629,9.629h19.142  c5.319,0,9.629-4.311,9.629-9.629c0-17.923,14.588-32.506,32.519-32.506c5.319,0,9.629-4.311,9.629-9.629V93.911  c0-5.318-4.31-9.629-9.629-9.629c-17.931,0-32.519-14.588-32.519-32.519c0-5.318-4.31-9.629-9.629-9.629H187.425  c-5.319,0-9.629,4.311-9.629,9.629c0,17.931-14.588,32.519-32.519,32.519c-5.319,0-9.629,4.311-9.629,9.629v214.192  C135.648,313.421,139.958,317.732,145.277,317.732z"
   id="path13026" />

<g
   id="g13030">
</g>
<g
   id="g13032">
</g>
<g
   id="g13034">
</g>
<g
   id="g13036">
</g>
<g
   id="g13038">
</g>
<g
   id="g13040">
</g>
<g
   id="g13042">
</g>
<g
   id="g13044">
</g>
<g
   id="g13046">
</g>
<g
   id="g13048">
</g>
<g
   id="g13050">
</g>
<g
   id="g13052">
</g>
<g
   id="g13054">
</g>
<g
   id="g13056">
</g>
<g
   id="g13058">
</g>
<path
   fill="#161616"
   d="m 325.5583,205.69638 c -2.94365,-4.95288 -6.6019,-8.81049 -10.94431,-11.65202 -4.36271,-2.78166 -10.83671,-5.9284 -19.33678,-9.35716 -11.66704,-4.46611 -17.44878,-9.76477 -17.44878,-15.86316 0,-3.09458 1.10844,-5.75453 3.33748,-8.0069 2.2514,-2.18283 4.93927,-3.32446 8.0433,-3.32446 4.04194,0 10.67635,2.59234 19.85039,7.74805 l 9.32226,-19.7053 c -5.63152,-7.75385 -18.94294,-12.67197 -29.86491,-11.92633 v -8.84913 c 0,-4.59745 -0.32076,-8.32757 -10.922,-8.32757 -10.60324,0 -10.92197,3.73012 -10.92197,8.32757 v 10.20518 c 0,0 -5.30061,1.7057 -11.90254,8.24065 -7.23326,7.13957 -8.65028,19.18181 -8.65028,27.4321 0,16.55276 14.47466,23.68849 17.92991,26.18424 3.41262,2.47644 9.03399,5.3798 15.85921,8.19041 14.02603,5.714 20.51018,10.22065 20.51018,16.69571 0,3.11586 -1.51446,6.11964 -4.6063,8.97276 -3.11623,2.86088 -6.32583,4.06045 -9.69581,4.3019 -9.49278,0.62975 -17.33306,-5.72363 -28.27736,-13.37704 l -14.68785,19.56816 c 10.00437,11.26569 23.51881,16.35958 23.51881,16.60491 v 8.31214 c 0,4.61675 1.68499,8.33142 10.92199,8.33142 8.70306,0 10.92197,-3.71467 10.92197,-8.33142 v -8.3102 c 0,-0.10235 15.53032,-1.55309 23.76446,-8.30245 8.10621,-6.6779 15.88153,-16.98932 15.88153,-27.60598 0,-5.82601 0.35325,-11.18455 -2.6026,-16.17608 z"
   id="path3262"
   style="stroke-width:1.98029" /></svg>
