<?xml version="1.0" encoding="UTF-8" standalone="no"?>
<!-- Generator: Adobe Illustrator 19.0.0, SVG Export Plug-In . SVG Version: 6.00 Build 0)  -->

<svg
   version="1.1"
   id="Layer_1"
   x="0px"
   y="0px"
   viewBox="0 0 512 512"
   style="enable-background:new 0 0 512 512;"
   xml:space="preserve"
   sodipodi:docname="icon-house.svg"
   inkscape:version="1.2.1 (9c6d41e410, 2022-07-14)"
   xmlns:inkscape="http://www.inkscape.org/namespaces/inkscape"
   xmlns:sodipodi="http://sodipodi.sourceforge.net/DTD/sodipodi-0.dtd"
   xmlns="http://www.w3.org/2000/svg"
   xmlns:svg="http://www.w3.org/2000/svg"><defs
   id="defs26516" /><sodipodi:namedview
   id="namedview26514"
   pagecolor="#ffffff"
   bordercolor="#000000"
   borderopacity="0.25"
   inkscape:showpageshadow="2"
   inkscape:pageopacity="0.0"
   inkscape:pagecheckerboard="0"
   inkscape:deskcolor="#d1d1d1"
   showgrid="false"
   inkscape:zoom="0.25073242"
   inkscape:cx="1090.8043"
   inkscape:cy="1132.6816"
   inkscape:window-width="2560"
   inkscape:window-height="1387"
   inkscape:window-x="-8"
   inkscape:window-y="-8"
   inkscape:window-maximized="1"
   inkscape:current-layer="Layer_1" />




<path
   style="fill:#474949;"
   d="M417.298,192.262c0,3.593-2.965,6.269-6.591,6.269l-36.907-21.08c-3.626,0-6.591-2.94-6.591-6.534  v-70.569c0-3.593,2.965-6.535,6.591-6.535h36.907c3.626,0,6.591,2.94,6.591,6.535L417.298,192.262L417.298,192.262z"
   id="path26439" />
<polygon
   style="fill:#ced4d3;fill-opacity:1"
   points="416.909,484.587 104.509,484.587 104.509,194.468 264.354,92.997 416.909,194.468 "
   id="polygon26441" />
<polygon
   style="opacity:0.1;enable-background:new    ;"
   points="126.452,452.164 126.452,179.9 104.509,194.468 104.509,484.587   416.909,484.587 416.909,452.164 "
   id="polygon26443" />


<path
   style="fill:#ea8253;fill-opacity:1"
   d="M465.391,258.476c-3.885,0-7.655-1.126-10.904-3.259L264.138,130.28L67.469,255.372  c-3.193,2.031-6.881,3.104-10.664,3.104c-6.773,0-12.999-3.372-16.654-9.018c-5.887-9.098-3.21-21.248,5.965-27.084L253.634,90.383  c3.194-2.03,6.885-3.104,10.677-3.104c3.894,0,7.669,1.127,10.915,3.258L476.32,222.528c9.09,5.966,11.59,18.153,5.572,27.165  C478.216,255.194,472.049,258.476,465.391,258.476z"
   id="path26459" />
<path
   style="opacity:0.1;enable-background:new    ;"
   d="M481.891,228.244c-3.675,5.501-9.842,8.782-16.5,8.782  c-3.885,0-7.655-1.126-10.904-3.259L264.138,108.83L67.469,233.923c-3.193,2.031-6.881,3.104-10.664,3.104  c-6.711,0-12.882-3.313-16.549-8.867c-4.117,6.267-4.436,14.605-0.104,21.298c3.655,5.647,9.881,9.018,16.654,9.018  c3.784,0,7.471-1.072,10.664-3.104L264.14,130.28l190.349,124.937c3.248,2.133,7.019,3.259,10.904,3.259  c6.658,0,12.826-3.282,16.5-8.782c4.484-6.716,4.233-15.19,0.056-21.543C481.927,228.181,481.911,228.214,481.891,228.244z"
   id="path26461" />
<rect
   x="217.339"
   y="339.498"
   style="fill:#ea8b53;fill-opacity:1"
   width="85.128"
   height="143.757"
   id="rect26463" />
<rect
   x="71.126"
   y="474.164"
   style="fill:#302420;fill-opacity:1"
   width="379.946"
   height="30.003"
   id="rect26465" />
<rect
   x="71.126"
   y="474.164"
   style="opacity:0.1;enable-background:new    ;"
   width="43.812"
   height="30.003"
   id="rect26467" />





<path
   d="M280.568,388.12c-4.328,0-7.837,3.509-7.837,7.837v20.387c0,4.328,3.509,7.837,7.837,7.837s7.837-3.509,7.837-7.837v-20.387  C288.405,391.629,284.897,388.12,280.568,388.12z"
   id="path26479" />
<path
   d="m 492.456,233.44 c -1.467,-7.214 -5.671,-13.415 -11.838,-17.463 l -55.484,-36.418 v -79.21 c 0,-7.925 -6.472,-14.372 -14.428,-14.372 h -36.907 c -7.956,0 -14.428,6.447 -14.428,14.372 v 36.046 l -79.848,-52.41 c -4.53,-2.972 -9.791,-4.543 -15.215,-4.543 -5.283,0 -10.428,1.496 -14.882,4.328 l -72.87,46.349 c -3.652,2.323 -4.729,7.167 -2.406,10.819 2.323,3.652 7.166,4.729 10.818,2.406 l 72.869,-46.347 c 1.935,-1.23 4.173,-1.881 6.472,-1.881 2.36,0 4.649,0.682 6.615,1.973 l 201.094,131.992 c 2.647,1.738 4.45,4.395 5.078,7.484 0.623,3.064 0.01,6.182 -1.723,8.777 -2.216,3.318 -5.948,5.299 -9.983,5.299 -2.353,0 -4.635,-0.682 -6.603,-1.974 L 336.44918,168.36772 268.438,123.727 c -2.577,-1.692 -5.905,-1.715 -8.507,-0.061 L 63.261,248.76 c -1.932,1.229 -4.165,1.879 -6.457,1.879 -4.104,0 -7.87,-2.033 -10.075,-5.439 -1.697,-2.622 -2.263,-5.748 -1.597,-8.801 0.673,-3.08 2.515,-5.712 5.188,-7.412 l 106.434,-67.698 c 3.652,-2.323 4.729,-7.167 2.406,-10.819 -3.07081,-3.40373 -9.16216,-0.49341 -9.82092,-2.406 -6.99871,5.34453 -107.03947,68.49965 -104.687113,65.70184 -6.226,3.959 -13.259967,12.09516 -14.830967,19.28716 -1.565,7.167 -0.233,14.504 3.75,20.661 5.105,7.888 13.791,12.597 23.233,12.597 5.278,0 10.421,-1.497 14.87,-4.328 L 97.061,245.835 V 466.322 H 71.123 c -4.328,0 -7.837,3.509 -7.837,7.837 v 30.004 c 0,4.328 3.509,7.837 7.837,7.837 h 379.951 c 4.328,0 7.837,-3.509 7.837,-7.837 V 474.16 c 0,-4.328 -3.509,-7.837 -7.837,-7.837 H 425.135 V 245.325 l 25.051,16.443 c 4.529,2.974 9.786,4.545 15.204,4.545 9.282,0 17.887,-4.586 23.017,-12.268 4.074,-6.099 5.511,-13.417 4.049,-20.605 z M 409.461,169.271 375.045,146.682 V 101.65 h 34.416 z m 33.776,312.727 v 14.329 H 78.96 v -14.33 h 278.391 c 4.328,0 7.837,-3.509 7.837,-7.837 0,-4.328 -3.509,-7.837 -7.837,-7.837 H 310.296 V 339.501 c 0,-4.328 -3.509,-7.837 -7.837,-7.837 h -85.125 c -4.328,0 -7.837,3.509 -7.837,7.837 V 466.324 H 112.734 V 235.868 L 264.072,139.61 409.461,235.038 V 466.325 H 393.92 c -4.328,0 -7.837,3.509 -7.837,7.837 0,4.328 3.509,7.837 7.837,7.837 h 49.316 v -0.001 z M 225.17,466.324 V 347.338 h 69.451 V 466.325 H 225.17 Z"
   id="path26481"
   sodipodi:nodetypes="cccssssccsccsccsccscscccccscccccccccscccsssssssscccscccccccccccssscssssccccccsssccccccccc" />
<g
   id="g26483">
</g>
<g
   id="g26485">
</g>
<g
   id="g26487">
</g>
<g
   id="g26489">
</g>
<g
   id="g26491">
</g>
<g
   id="g26493">
</g>
<g
   id="g26495">
</g>
<g
   id="g26497">
</g>
<g
   id="g26499">
</g>
<g
   id="g26501">
</g>
<g
   id="g26503">
</g>
<g
   id="g26505">
</g>
<g
   id="g26507">
</g>
<g
   id="g26509">
</g>
<g
   id="g26511">
</g>
</svg>
