<?xml version="1.0" encoding="UTF-8" standalone="no"?>
<!-- Generator: Adobe Illustrator 19.0.0, SVG Export Plug-In . SVG Version: 6.00 Build 0)  -->

<svg
   version="1.1"
   id="Layer_1"
   x="0px"
   y="0px"
   viewBox="0 0 512 512"
   style="enable-background:new 0 0 512 512;"
   xml:space="preserve"
   sodipodi:docname="icon-castle.svg"
   inkscape:version="1.2.1 (9c6d41e410, 2022-07-14)"
   xmlns:inkscape="http://www.inkscape.org/namespaces/inkscape"
   xmlns:sodipodi="http://sodipodi.sourceforge.net/DTD/sodipodi-0.dtd"
   xmlns="http://www.w3.org/2000/svg"
   xmlns:svg="http://www.w3.org/2000/svg"><defs
   id="defs23768" /><sodipodi:namedview
   id="namedview23766"
   pagecolor="#ffffff"
   bordercolor="#000000"
   borderopacity="0.25"
   inkscape:showpageshadow="2"
   inkscape:pageopacity="0.0"
   inkscape:pagecheckerboard="0"
   inkscape:deskcolor="#d1d1d1"
   showgrid="false"
   inkscape:zoom="2.0058594"
   inkscape:cx="241.54236"
   inkscape:cy="340.00389"
   inkscape:window-width="2560"
   inkscape:window-height="1387"
   inkscape:window-x="-8"
   inkscape:window-y="-8"
   inkscape:window-maximized="1"
   inkscape:current-layer="g23721" />
<g
   id="g23707">
	<polygon
   style="fill:#5a5a5a;fill-opacity:1"
   points="503.123,227.171 503.123,463.412 380.405,463.412 412.112,227.171 460.359,227.171    460.359,171.299 503.123,171.299  "
   id="polygon23703" />
	<polygon
   style="fill:#5c5c5c;fill-opacity:1"
   points="99.595,227.171 152.265,463.412 8.583,463.412 8.583,227.171 8.583,171.299 51.348,171.299    51.348,227.171  "
   id="polygon23705" />
</g>
<path
   style="fill:#646464;fill-opacity:1"
   d="M412.112,227.171v236.241h-94.073H193.668H99.595V227.171V47.894h42.765v55.871h47.153V47.894h42.765  v55.871h47.153V47.894h42.765v55.871h47.153V47.894h42.765L412.112,227.171L412.112,227.171z"
   id="path23709" />
<g
   id="g23715">
	<path
   style="fill:#8c2e03;fill-opacity:1"
   d="M255.859,298.848v164.564h-62.191V361.04C193.668,326.691,221.51,298.848,255.859,298.848z"
   id="path23711" />
	<path
   style="fill:#b45002;fill-opacity:1"
   d="M318.039,361.04v102.372h-62.18V298.848C290.197,298.848,318.039,326.691,318.039,361.04z"
   id="path23713" />
</g>
<g
   id="g23721">
	<path
   style="fill:#cbc37d;fill-opacity:1"
   d="M359.733,192.798v55.894h-66.347v-55.894c0-18.321,14.852-33.162,33.173-33.162   S359.733,174.477,359.733,192.798z"
   id="path23717" /><path
   style="fill:#cbc37d;fill-opacity:1"
   d="m 218.63017,194.53078 v 55.89401 h -66.347 v -55.89401 c 0,-18.321 14.852,-33.162 33.173,-33.162 18.321,0 33.174,14.841 33.174,33.162 z"
   id="path23717-1" />
	
</g>
<g
   id="g23727">
	
	<path
   style="fill:#808080;fill-opacity:1;stroke-width:0.874542"
   d="m 239.2301,154.7783 h -10.72 c -5.236,0 -9.479,-3.24591 -9.479,-7.24977 v -8.19891 c 0,-4.00462 4.244,-7.24977 9.479,-7.24977 h 10.72 c 5.236,0 9.479,3.24592 9.479,7.24977 v 8.19891 c 0,4.00309 -4.243,7.24977 -9.479,7.24977 z"
   id="path23725" /><path
   style="fill:#808080;fill-opacity:1;stroke-width:0.874542"
   d="m 267.0932,174.37162 h -10.72 c -5.236,0 -9.479,-3.24591 -9.479,-7.24977 v -8.19891 c 0,-4.00462 4.244,-7.24977 9.479,-7.24977 h 10.72 c 5.236,0 9.479,3.24592 9.479,7.24977 v 8.19891 c 0,4.00309 -4.243,7.24977 -9.479,7.24977 z"
   id="path23725-6" /><path
   style="fill:#808080;fill-opacity:1;stroke-width:0.874542"
   d="m 138.96857,296.51378 h -10.72 c -5.236,0 -9.479,-3.24591 -9.479,-7.24977 v -8.19891 c 0,-4.00462 4.244,-7.24977 9.479,-7.24977 h 10.72 c 5.236,0 9.479,3.24592 9.479,7.24977 v 8.19891 c 0,4.00309 -4.243,7.24977 -9.479,7.24977 z"
   id="path23725-55" /><path
   style="fill:#808080;fill-opacity:1;stroke-width:0.874542"
   d="m 165.39116,315.45828 h -10.72 c -5.236,0 -9.479,-3.24591 -9.479,-7.24977 v -8.19891 c 0,-4.00462 4.244,-7.24977 9.479,-7.24977 h 10.72 c 5.236,0 9.479,3.24592 9.479,7.24977 v 8.19891 c 0,4.00309 -4.243,7.24977 -9.479,7.24977 z"
   id="path23725-4" /><path
   style="fill:#808080;fill-opacity:1;stroke-width:0.874542"
   d="m 384.24997,344.37357 h -10.72 c -5.236,0 -9.479,-3.24591 -9.479,-7.24977 v -8.19891 c 0,-4.00462 4.244,-7.24977 9.479,-7.24977 h 10.72 c 5.236,0 9.479,3.24592 9.479,7.24977 v 8.19891 c 0,4.00309 -4.243,7.24977 -9.479,7.24977 z"
   id="path23725-9" /><path
   style="fill:#808080;fill-opacity:1;stroke-width:0.874542"
   d="m 356.33176,325.92761 h -10.72 c -5.236,0 -9.479,-3.24591 -9.479,-7.24977 v -8.19891 c 0,-4.00462 4.244,-7.24977 9.479,-7.24977 h 10.72 c 5.236,0 9.479,3.24592 9.479,7.24977 v 8.19891 c 0,4.00309 -4.243,7.24977 -9.479,7.24977 z"
   id="path23725-5" /><path
   style="fill:#808080;fill-opacity:1;stroke-width:0.874542"
   d="m 466.50898,329.91592 h -10.72 c -5.236,0 -9.479,-3.24591 -9.479,-7.24977 v -8.19891 c 0,-4.00462 4.244,-7.24977 9.479,-7.24977 h 10.72 c 5.236,0 9.479,3.24592 9.479,7.24977 v 8.19891 c 0,4.00309 -4.243,7.24977 -9.479,7.24977 z"
   id="path23725-5-8" /><path
   style="fill:#808080;fill-opacity:1;stroke-width:0.874542"
   d="m 450.55572,350.85459 h -10.72 c -5.236,0 -9.479,-3.24591 -9.479,-7.24977 v -8.19892 c 0,-4.00461 4.244,-7.24977 9.479,-7.24977 h 10.72 c 5.236,0 9.479,3.24592 9.479,7.24977 v 8.19892 c 0,4.00308 -4.243,7.24977 -9.479,7.24977 z"
   id="path23725-5-3" /><path
   style="fill:#808080;fill-opacity:1;stroke-width:0.874542"
   d="m 41.254835,344.37357 h -10.72 c -5.236,0 -9.479,-3.24591 -9.479,-7.24977 v -8.19891 c 0,-4.00462 4.244,-7.24977 9.479,-7.24977 h 10.72 c 5.236,0 9.479,3.24592 9.479,7.24977 v 8.19891 c 0,4.00309 -4.243,7.24977 -9.479,7.24977 z"
   id="path23725-5-2" />
</g>
<path
   d="M153.867,240.31c-4.821,0-8.73,3.909-8.73,8.73c0,4.821,3.909,8.73,8.73,8.73h66.347c4.821,0,8.73-3.909,8.73-8.73v-55.894  c0-23.099-18.797-41.892-41.903-41.892s-41.903,18.792-41.903,41.892v24.758c0,4.821,3.909,8.73,8.73,8.73  c4.821,0,8.73-3.909,8.73-8.73v-24.758c0-13.472,10.965-24.432,24.444-24.432c13.479,0,24.444,10.96,24.444,24.432v47.164H153.867z"
   id="path23729" />
<path
   d="M293.533,257.769h66.347c4.821,0,8.73-3.909,8.73-8.73v-55.894c0-23.099-18.797-41.892-41.903-41.892  c-23.106,0-41.903,18.792-41.903,41.892v55.894C284.803,253.861,288.711,257.769,293.533,257.769z M302.262,193.145  c0-13.472,10.965-24.432,24.444-24.432s24.444,10.96,24.444,24.432v47.164h-48.887V193.145z"
   id="path23731" />
<path
   d="M503.27,162.916h-42.765c-4.821,0-8.73,3.909-8.73,8.73v47.141h-11.861c-4.821,0-8.73,3.909-8.73,8.73  c0,4.821,3.909,8.73,8.73,8.73h20.591c4.821,0,8.73-3.909,8.73-8.73v-47.141h25.305v274.653h-73.552V48.241  c0-4.821-3.909-8.73-8.73-8.73h-42.765c-4.821,0-8.73,3.909-8.73,8.73v47.141h-29.693V48.241c0-4.821-3.909-8.73-8.73-8.73h-42.765  c-4.821,0-8.73,3.909-8.73,8.73v47.141h-29.693V48.241c0-4.821-3.909-8.73-8.73-8.73h-42.765c-4.821,0-8.73,3.909-8.73,8.73v47.141  h-29.693V48.241c0-4.821-3.909-8.73-8.73-8.73H99.741c-4.821,0-8.73,3.909-8.73,8.73v170.546H60.224v-47.141  c0-4.821-3.909-8.73-8.73-8.73H8.73c-4.821,0-8.73,3.909-8.73,8.73v292.112c0,4.821,3.909,8.73,8.73,8.73h494.54  c4.821,0,8.73-3.909,8.73-8.73V171.646C512,166.825,508.091,162.916,503.27,162.916z M17.46,180.376h25.305v47.141  c0,4.821,3.909,8.73,8.73,8.73h39.517v32.871c0,4.821,3.909,8.73,8.73,8.73s8.73-3.909,8.73-8.73V56.971h25.305v47.141  c0,4.821,3.909,8.73,8.73,8.73h47.153c4.821,0,8.73-3.909,8.73-8.73V56.971h25.305v47.141c0,4.821,3.909,8.73,8.73,8.73h47.153  c4.821,0,8.73-3.909,8.73-8.73V56.971h25.305v47.141c0,4.821,3.909,8.73,8.73,8.73h47.153c4.821,0,8.73-3.909,8.73-8.73V56.971  h25.305v398.058h-76.613v-93.642c0-39.106-31.81-70.921-70.91-70.921c-39.106,0-70.921,31.815-70.921,70.921v93.642h-76.613V304.038  c0-4.821-3.909-8.73-8.73-8.73s-8.73,3.909-8.73,8.73v150.992H17.46V180.376z M256.006,428c-4.821,0-8.73,3.909-8.73,8.73v18.299  h-44.732v-93.642c0-26.505,19.392-48.557,44.732-52.738v101.31c0,4.821,3.909,8.73,8.73,8.73c4.821,0,8.73-3.909,8.73-8.73v-101.31  c25.333,4.182,44.72,26.233,44.72,52.738v93.642h-44.72V436.73C264.736,431.909,260.827,428,256.006,428z"
   id="path23733" />
<g
   id="g23735">
</g>
<g
   id="g23737">
</g>
<g
   id="g23739">
</g>
<g
   id="g23741">
</g>
<g
   id="g23743">
</g>
<g
   id="g23745">
</g>
<g
   id="g23747">
</g>
<g
   id="g23749">
</g>
<g
   id="g23751">
</g>
<g
   id="g23753">
</g>
<g
   id="g23755">
</g>
<g
   id="g23757">
</g>
<g
   id="g23759">
</g>
<g
   id="g23761">
</g>
<g
   id="g23763">
</g>
</svg>
