<svg xmlns="http://www.w3.org/2000/svg" viewBox="0 0 64 64">
<path fill="#967ADC" d="M51 52c0 2.211-1.79 4-4 4V46c2.21 0 4-.789 4-3v9z"/><path fill="#ED5565" d="M29 56v2l-3-1-3 1v-7h6z"/><path fill="#E6E9ED" d="M23 51v5h-5c-2.76 0-5-2.24-5-5 0-2.77 2.24-5 5-5h29v10H29v-5h-6z"/><path fill="#656D78" d="M21 10v9h-3c-2.76 0-5 2.24-5 5v-9c0-2.76 2.24-5 5-5h3z"/><path fill="#656D78" d="M18 19h3v9h-3c-2.76 0-5 2.24-5 5v-9c0-2.76 2.24-5 5-5z"/><path fill="#656D78" d="M18 28h3v9h-3c-2.76 0-5 2.24-5 5v-9c0-2.76 2.24-5 5-5z"/><path fill="#656D78" d="M18 37h3v9h-3c-2.76 0-5 2.23-5 5v-9c0-2.76 2.24-5 5-5z"/><path fill="#FFCE54" d="M36 26c1.1 0 2 .9 2 2s-.9 2-2 2-2-.9-2-2 .9-2 2-2z"/><path fill="#F6BB42" d="M36 30c1.1 0 2-.9 2-2s-.9-2-2-2-2 .9-2 2 .9 2 2 2zm4.24-6.24A5.944 5.944 0 0 1 42 28c0 1.66-.67 3.16-1.76 4.24C39.16 33.33 37.66 34 36 34s-3.16-.67-4.24-1.76A5.944 5.944 0 0 1 30 28c0-1.66.67-3.16 1.76-4.24C32.84 22.67 34.34 22 36 22s3.16.67 4.24 1.76z"/><path fill="#FFCE54" d="M42 28c0-1.66-.67-3.16-1.76-4.24C39.16 22.67 37.66 22 36 22s-3.16.67-4.24 1.76A5.944 5.944 0 0 0 30 28c0 1.66.67 3.16 1.76 4.24C32.84 33.33 34.34 34 36 34s3.16-.67 4.24-1.76A5.944 5.944 0 0 0 42 28zm-6-10c5.52 0 10 4.48 10 10s-4.48 10-10 10-10-4.48-10-10 4.48-10 10-10z"/><path fill="#AC92EC" d="M51 14v29c0 2.211-1.79 3-4 3H21V10h26c2.21 0 4 1.79 4 4zm-5 14c0-5.52-4.48-10-10-10s-10 4.48-10 10 4.48 10 10 10 10-4.48 10-10z"/><g><path d="M18.002 57C14.692 57 12 54.308 12 50.998s2.692-6.002 6.002-6.002a1 1 0 1 1 0 2c-2.207 0-4.002 1.795-4.002 4.002S15.795 55 18.002 55a1 1 0 1 1 0 2zM13 16a1 1 0 0 1-1-1c0-3.309 2.692-6 6.002-6a1 1 0 1 1 0 2A4.005 4.005 0 0 0 14 15a1 1 0 0 1-1 1zM13 25a1 1 0 0 1-1-1c0-3.309 2.692-6 6.002-6a1 1 0 1 1 0 2A4.005 4.005 0 0 0 14 24a1 1 0 0 1-1 1zM13 34a1 1 0 0 1-1-1c0-3.309 2.692-6 6.002-6a1 1 0 1 1 0 2A4.005 4.005 0 0 0 14 33a1 1 0 0 1-1 1zM13 43a1 1 0 0 1-1-1c0-3.309 2.692-6 6.002-6a1 1 0 1 1 0 2A4.005 4.005 0 0 0 14 42a1 1 0 0 1-1 1z"/><path d="M23 57h-5a1 1 0 1 1 0-2h5a1 1 0 1 1 0 2zM47 57a1 1 0 1 1 0-2c1.654 0 3-1.346 3-3a1 1 0 1 1 2 0c0 2.757-2.243 5-5 5zM47 47H18a1 1 0 1 1 0-2h29a1 1 0 1 1 0 2zM47 11H18a1 1 0 1 1 0-2h29a1 1 0 1 1 0 2z"/><path d="M47 47a1 1 0 1 1 0-2c3 0 3-1.505 3-2a1 1 0 1 1 2 0c0 2.505-1.869 4-5 4zM51 15a1 1 0 0 1-1-1c0-1.654-1.346-3-3-3a1 1 0 1 1 0-2c2.757 0 5 2.243 5 5a1 1 0 0 1-1 1z"/><path d="M51 53a1 1 0 0 1-1-1V14a1 1 0 1 1 2 0v38a1 1 0 0 1-1 1zM47 57a1 1 0 0 1-1-1V46a1 1 0 1 1 2 0v10a1 1 0 0 1-1 1zM31 52H21a1 1 0 1 1 0-2h10a1 1 0 1 1 0 2z"/><path d="M23 59a1 1 0 0 1-1-1v-7a1 1 0 1 1 2 0v7a1 1 0 0 1-1 1zM29 59a1 1 0 0 1-1-1v-7a1 1 0 1 1 2 0v7a1 1 0 0 1-1 1z"/><path d="M29 59a1 1 0 0 1-.316-.052l-3-1a1 1 0 1 1 .633-1.897l3 1A1 1 0 0 1 29 59z"/><path d="M23 59a1 1 0 0 1-.316-1.949l3-1a1 1 0 1 1 .633 1.897l-3 1A1.011 1.011 0 0 1 23 59zM47 57H29a1 1 0 1 1 0-2h18a1 1 0 1 1 0 2zM13 51.998a1 1 0 0 1-1-1V15a1 1 0 1 1 2 0v35.998a1 1 0 0 1-1 1zM21 46.998a1 1 0 0 1-1-1V10a1 1 0 1 1 2 0v35.998a1 1 0 0 1-1 1z"/><path d="M21 20h-2.998a1 1 0 1 1 0-2H21a1 1 0 1 1 0 2zM21 29h-2.998a1 1 0 1 1 0-2H21a1 1 0 1 1 0 2zM21 38h-2.998a1 1 0 1 1 0-2H21a1 1 0 1 1 0 2z"/><g><path d="M36 39c-6.065 0-11-4.935-11-11s4.935-11 11-11 11 4.935 11 11-4.935 11-11 11zm0-20c-4.963 0-9 4.038-9 9 0 4.963 4.037 9 9 9s9-4.038 9-9c0-4.963-4.037-9-9-9z"/></g><g><path d="M36 35c-3.859 0-7-3.141-7-7s3.141-7 7-7 7 3.14 7 7-3.141 7-7 7zm0-12c-2.757 0-5 2.243-5 5s2.243 5 5 5 5-2.243 5-5-2.243-5-5-5z"/></g><g><path d="M36 31c-1.654 0-3-1.346-3-3s1.346-3 3-3 3 1.346 3 3-1.346 3-3 3zm0-4a1.001 1.001 0 0 0 0 2 1.001 1.001 0 0 0 0-2z"/></g><g><path d="M36 36a1 1 0 0 1-1-1v-2a1 1 0 1 1 2 0v2a1 1 0 0 1-1 1z"/></g><g><path d="M36 24a1 1 0 0 1-1-1v-2a1 1 0 1 1 2 0v2a1 1 0 0 1-1 1z"/></g><g><path d="M40.949 33.949a.996.996 0 0 1-.707-.292l-1.414-1.415a.999.999 0 1 1 1.414-1.414l1.414 1.414a1 1 0 0 1-.707 1.707z"/></g><g><path d="M32.465 25.465a.997.997 0 0 1-.707-.293l-1.414-1.415a1 1 0 1 1 1.414-1.415l1.414 1.415a1 1 0 0 1-.707 1.708z"/></g><g><path d="M43 29.001h-2a1 1 0 1 1 0-2h2a1 1 0 1 1 0 2z"/></g><g><path d="M31 29.001 28.999 29A1 1 0 0 1 29 27h.001l2 .001a1 1 0 0 1-.001 2z"/></g><g><path d="M39.535 25.466a.999.999 0 0 1-.707-1.707l1.415-1.415a.999.999 0 1 1 1.414 1.414l-1.415 1.415a.993.993 0 0 1-.707.293z"/></g><g><path d="M31.05 33.95a.999.999 0 0 1-.707-1.707l1.415-1.414a1 1 0 0 1 1.414 1.415l-1.415 1.414a.992.992 0 0 1-.707.292z"/></g><g><path d="M61 11a1 1 0 0 1-1-1V6a1 1 0 1 1 2 0v4a1 1 0 0 1-1 1z"/><path d="M62 9h-2a1 1 0 1 1 0-2h2a1 1 0 1 1 0 2zM5 60a1 1 0 0 1-1-1v-4a1 1 0 1 1 2 0v4a1 1 0 0 1-1 1z"/><path d="M6 58H4a1 1 0 1 1 0-2h2a1 1 0 1 1 0 2zM7 12a1 1 0 0 1-1-1V5a1 1 0 1 1 2 0v6a1 1 0 0 1-1 1z"/><path d="M8 9H6a1 1 0 1 1 0-2h2a1 1 0 1 1 0 2zM59 62a1 1 0 0 1-1-1v-6a1 1 0 1 1 2 0v6a1 1 0 0 1-1 1z"/><path d="M60 59h-2a1 1 0 1 1 0-2h2a1 1 0 1 1 0 2zM45.03 6c-.553 0-1.005-.448-1.005-1s.442-1 .994-1h.011a1 1 0 0 1 0 2zM57.03 26c-.553 0-1.005-.448-1.005-1s.442-1 .994-1h.011a1 1 0 0 1 0 2zM1.03 26c-.553 0-1.005-.448-1.005-1s.442-1 .994-1h.011a1 1 0 0 1 0 2z"/><g><path d="M63.03 43c-.553 0-1.005-.447-1.005-1s.442-1 .994-1h.011a1 1 0 1 1 0 2z"/></g><g><path d="M7.03 42c-.553 0-1.005-.447-1.005-1s.442-1 .994-1h.011a1 1 0 1 1 0 2z"/></g><g><path d="M38.03 62c-.553 0-1.005-.447-1.005-1s.442-1 .994-1h.011a1 1 0 1 1 0 2z"/></g><g><path d="M26.03 4c-.553 0-1.005-.448-1.005-1s.442-1 .994-1h.011a1 1 0 0 1 0 2z"/></g></g></g></svg>
