<?xml version="1.0" encoding="utf-8"?>
<!-- Generator: Adobe Illustrator 16.0.0, SVG Export Plug-In . SVG Version: 6.00 Build 0)  -->
<!DOCTYPE svg PUBLIC "-//W3C//DTD SVG 1.1//EN" "http://www.w3.org/Graphics/SVG/1.1/DTD/svg11.dtd">
<svg version="1.1" xmlns="http://www.w3.org/2000/svg" xmlns:xlink="http://www.w3.org/1999/xlink" x="0px" y="0px"
 viewBox="0 0 64 64" enable-background="new 0 0 64 64" xml:space="preserve">
<g id="_x35_0_fairy_x2C__wing_x2C__fairy_x2C__tale_x2C__legend_x2C__fantasy">
</g>
<g id="_x34_9_gingerbread_x2C__house_x2C__fairy_x2C__tale_x2C__legend_x2C__fantasy">
</g>
<g id="_x34_8_torch_x2C__fire_x2C__fairy_x2C__tale_x2C__legend_x2C__fantasy">
</g>
<g id="_x34_7_armor_x2C__knight_x2C__fairy_x2C__tale_x2C__legend_x2C__fantasy">
</g>
<g id="_x34_6_jester_x2C__joker_x2C__joke_x2C__fairy_x2C__tale_x2C__legend_x2C__fantasy">
</g>
<g id="_x34_5_shield_x2C__knight_x2C__crown_x2C__fairy_x2C__tale_x2C__legend_x2C__fantasy">
	<g>
		<g>
			<path fill="#CCD1D9" d="M52.19,30c0.63-2.99,1.109-6.28,1.42-9.88c0.18-2.1,0.3-4.31,0.35-6.63c-0.53-0.11-1.14-0.24-1.8-0.4
				c-1.851-0.43-4.16-1.029-6.65-1.84C43.53,10.6,41.44,9.83,39.36,8.91C36.8,7.78,34.26,6.42,32,4.8
				c-7.19,5.15-17.26,7.71-21.96,8.69c0.13,6.3,0.78,11.77,1.77,16.51c0.44,2.12,0.96,4.1,1.521,5.94c0.7,2.26,1.479,4.31,2.32,6.18
				c0.92,2.06,1.909,3.9,2.939,5.53c1.18,1.88,2.4,3.489,3.62,4.87c1.51,1.71,3,3.06,4.37,4.109c2.36,1.83,4.35,2.771,5.42,3.2
				C35.31,58.5,47.55,52.19,52.19,30z M57,11c0,45-25,52-25,52S7,56,7,11c0,0,16.28-2.51,25-10C40.72,8.49,57,11,57,11z"/>
		</g>
		<g>
			<polygon fill="#FFCE54" points="26,19.01 26,23.01 18,23.01 18,19.01 20,20.01 22,18.01 24,20.01 25.84,19.01 			"/>
		</g>
		<g>
			<path fill="#E6E9ED" d="M32,24.76V30h-4.24h-8.49h-7.46c-0.989-4.74-1.64-10.21-1.77-16.51C14.74,12.51,24.81,9.95,32,4.8v11.48
				V24.76z M26,23.01v-4h-0.16l-1.84,1l-2-2l-2,2l-2-1v4H26z"/>
		</g>
		<g>
			<polygon fill="#FFCE54" points="44,40 44,44 36,44 36,40 38,41 40,39 42,41 43.84,40 			"/>
		</g>
		<g>
			<path fill="#E6E9ED" d="M32,59.83v-8.61V42.73v-8.48V30h3.24h8.49h8.46C47.55,52.19,35.31,58.5,32,59.83z M44,44v-4h-0.16L42,41
				l-2-2l-2,2l-2-1v4H44z"/>
		</g>
		<g>
			<path fill="#ED5565" d="M19.27,30l-5.93,5.94h-0.01C12.77,34.1,12.25,32.12,11.81,30H19.27z"/>
		</g>
		<g>
			<path fill="#DA4453" d="M13.34,35.94L19.27,30h8.49L15.65,42.12c-0.841-1.87-1.62-3.92-2.32-6.18H13.34z"/>
		</g>
		<g>
			<path fill="#ED5565" d="M32,30v4.25l-13.41,13.4c-1.03-1.63-2.02-3.471-2.939-5.53L27.76,30H32z"/>
		</g>
		<g>
			<path fill="#DA4453" d="M32,34.25v8.48l-9.79,9.79c-1.22-1.381-2.44-2.99-3.62-4.87L32,34.25z"/>
		</g>
		<g>
			<path fill="#DA4453" d="M32,51.22v8.61c-1.07-0.43-3.06-1.37-5.42-3.2L32,51.22z"/>
		</g>
		<g>
			<path fill="#ED5565" d="M32,42.73v8.489l-5.42,5.41c-1.37-1.05-2.86-2.399-4.37-4.109L32,42.73z"/>
		</g>
		<g>
			<path fill="#ED5565" d="M43.73,30l9.88-9.88c-0.311,3.6-0.79,6.89-1.42,9.88H43.73z"/>
		</g>
		<g>
			<path fill="#DA4453" d="M53.96,13.49c-0.05,2.32-0.17,4.53-0.35,6.63L43.73,30h-8.49l16.92-16.91
				C52.82,13.25,53.43,13.38,53.96,13.49z"/>
		</g>
		<g>
			<path fill="#ED5565" d="M52.16,13.09L35.24,30H32v-5.24l13.51-13.51C48,12.061,50.31,12.66,52.16,13.09z"/>
		</g>
		<g>
			<path fill="#DA4453" d="M45.51,11.25L32,24.76V16.28l7.36-7.37C41.44,9.83,43.53,10.6,45.51,11.25z"/>
		</g>
		<g>
			<path fill="#ED5565" d="M39.36,8.91L32,16.28V4.8C34.26,6.42,36.8,7.78,39.36,8.91z"/>
		</g>
	</g>
	<g>
		<g>
			<g>
				<path d="M31.999,64c-0.437,0-0.838-0.289-0.962-0.73c-0.149-0.531,0.161-1.084,0.693-1.232C31.971,61.969,56,54.618,56,11
					c0-0.553,0.447-1,1-1s1,0.447,1,1c0,45.238-24.68,52.669-25.73,52.963C32.18,63.988,32.089,64,31.999,64z"/>
			</g>
			<g>
				<path d="M57.001,12c-0.051,0-0.102-0.004-0.153-0.012c-0.677-0.104-16.66-2.645-25.499-10.229
					c-0.419-0.359-0.467-0.991-0.107-1.41s0.994-0.466,1.41-0.107c8.401,7.21,24.342,9.746,24.501,9.771
					c0.546,0.085,0.92,0.596,0.836,1.141C57.912,11.646,57.486,12,57.001,12z"/>
			</g>
			<g>
				<path d="M32,64c-0.089,0-0.18-0.012-0.27-0.037C30.68,63.669,6,56.238,6,11c0-0.553,0.447-1,1-1s1,0.447,1,1
					c0,43.618,24.029,50.969,24.271,51.038c0.53,0.15,0.84,0.703,0.689,1.233C32.837,63.712,32.437,64,32,64z"/>
			</g>
			<g>
				<path d="M6.999,12c-0.485,0-0.911-0.354-0.987-0.848c-0.084-0.545,0.29-1.056,0.836-1.141c0.159-0.024,16.1-2.561,24.501-9.771
					c0.419-0.359,1.052-0.312,1.41,0.107c0.359,0.419,0.312,1.051-0.107,1.41C23.813,9.344,7.829,11.884,7.152,11.988
					C7.101,11.996,7.05,12,6.999,12z"/>
			</g>
		</g>
		<g>
			<path d="M32.002,60.821c-0.126,0-0.252-0.023-0.371-0.071C27.997,59.299,9.83,50.199,9.041,13.505
				c-0.01-0.481,0.325-0.902,0.797-1.001c4.099-0.851,14.407-3.383,21.58-8.517c0.348-0.248,0.816-0.248,1.164,0
				c7.173,5.134,17.481,7.666,21.58,8.517c0.472,0.099,0.807,0.519,0.797,1.001C54.17,50.212,36.006,59.301,32.372,60.75
				C32.254,60.798,32.128,60.821,32.002,60.821z M11.062,14.288c0.976,33.622,16.835,42.669,20.94,44.45
				c4.105-1.778,19.961-10.817,20.937-44.45C47.684,13.142,38.789,10.664,32,6.021C25.211,10.664,16.316,13.142,11.062,14.288z"/>
		</g>
		<g>
			<path d="M32,60.821c-0.553,0-1-0.447-1-1V4.801c0-0.553,0.447-1,1-1s1,0.447,1,1v55.021C33,60.374,32.553,60.821,32,60.821z"/>
		</g>
		<g>
			<path d="M52.188,31H11.813c-0.553,0-1-0.447-1-1s0.447-1,1-1h40.375c0.553,0,1,0.447,1,1S52.74,31,52.188,31z"/>
		</g>
		<g>
			<g>
				<path d="M32,17.272c-0.256,0-0.512-0.098-0.707-0.293c-0.391-0.391-0.391-1.023,0-1.414l7.361-7.361
					c0.391-0.391,1.023-0.391,1.414,0s0.391,1.023,0,1.414l-7.361,7.361C32.512,17.175,32.256,17.272,32,17.272z"/>
			</g>
			<g>
				<path d="M32,25.758c-0.256,0-0.512-0.098-0.707-0.293c-0.391-0.391-0.391-1.023,0-1.414l13.512-13.512
					c0.391-0.391,1.023-0.391,1.414,0s0.391,1.023,0,1.414L32.707,25.465C32.512,25.66,32.256,25.758,32,25.758z"/>
			</g>
			<g>
				<path d="M35.242,31c-0.256,0-0.512-0.098-0.707-0.293c-0.391-0.391-0.391-1.023,0-1.414L51.448,12.38
					c0.391-0.391,1.023-0.391,1.414,0s0.391,1.023,0,1.414L35.949,30.707C35.754,30.902,35.498,31,35.242,31z"/>
			</g>
			<g>
				<path d="M43.728,31c-0.256,0-0.512-0.098-0.707-0.293c-0.391-0.391-0.391-1.023,0-1.414l9.883-9.883
					c0.391-0.391,1.023-0.391,1.414,0s0.391,1.023,0,1.414l-9.883,9.883C44.239,30.902,43.983,31,43.728,31z"/>
			</g>
		</g>
		<g>
			<g>
				<path d="M13.337,36.936c-0.256,0-0.512-0.098-0.707-0.293c-0.391-0.391-0.391-1.023,0-1.414l5.936-5.936
					c0.391-0.391,1.023-0.391,1.414,0s0.391,1.023,0,1.414l-5.936,5.936C13.849,36.838,13.593,36.936,13.337,36.936z"/>
			</g>
			<g>
				<path d="M15.646,43.111c-0.256,0-0.512-0.098-0.707-0.293c-0.391-0.391-0.391-1.023,0-1.414l12.111-12.111
					c0.391-0.391,1.023-0.391,1.414,0s0.391,1.023,0,1.414L16.354,42.818C16.158,43.014,15.902,43.111,15.646,43.111z"/>
			</g>
			<g>
				<path d="M18.592,48.65c-0.256,0-0.512-0.098-0.707-0.293c-0.391-0.391-0.391-1.023,0-1.414l13.408-13.408
					c0.391-0.391,1.023-0.391,1.414,0s0.391,1.023,0,1.414L19.299,48.357C19.104,48.553,18.848,48.65,18.592,48.65z"/>
			</g>
			<g>
				<path d="M22.211,53.517c-0.256,0-0.512-0.098-0.707-0.293c-0.391-0.391-0.391-1.023,0-1.414l9.789-9.789
					c0.391-0.391,1.023-0.391,1.414,0s0.391,1.023,0,1.414l-9.789,9.789C22.723,53.419,22.467,53.517,22.211,53.517z"/>
			</g>
			<g>
				<path d="M26.582,57.631c-0.256,0-0.512-0.098-0.707-0.293c-0.391-0.391-0.391-1.023,0-1.414l5.418-5.418
					c0.391-0.391,1.023-0.391,1.414,0s0.391,1.023,0,1.414l-5.418,5.418C27.094,57.533,26.838,57.631,26.582,57.631z"/>
			</g>
		</g>
		<g>
			<g>
				<path d="M36,45c-0.553,0-1-0.447-1-1v-4c0-0.553,0.447-1,1-1s1,0.447,1,1v4C37,44.553,36.553,45,36,45z"/>
			</g>
			<g>
				<path d="M44,45h-8c-0.553,0-1-0.447-1-1s0.447-1,1-1h8c0.553,0,1,0.447,1,1S44.553,45,44,45z"/>
			</g>
			<g>
				<path d="M44,45c-0.553,0-1-0.447-1-1v-4c0-0.553,0.447-1,1-1s1,0.447,1,1v4C45,44.553,44.553,45,44,45z"/>
			</g>
			<g>
				<path d="M37.999,42c-0.15,0-0.303-0.034-0.446-0.105l-2-1c-0.494-0.247-0.694-0.848-0.447-1.342s0.848-0.692,1.342-0.447l2,1
					c0.494,0.247,0.694,0.848,0.447,1.342C38.719,41.798,38.366,42,37.999,42z"/>
			</g>
			<g>
				<path d="M38,42c-0.256,0-0.512-0.098-0.707-0.293c-0.391-0.391-0.391-1.023,0-1.414l2-2c0.391-0.391,1.023-0.391,1.414,0
					s0.391,1.023,0,1.414l-2,2C38.512,41.902,38.256,42,38,42z"/>
			</g>
			<g>
				<path d="M42,42c-0.256,0-0.512-0.098-0.707-0.293l-2-2c-0.391-0.391-0.391-1.023,0-1.414s1.023-0.391,1.414,0l2,2
					c0.391,0.391,0.391,1.023,0,1.414C42.512,41.902,42.256,42,42,42z"/>
			</g>
			<g>
				<path d="M42.001,42c-0.355,0-0.699-0.189-0.88-0.523c-0.264-0.485-0.083-1.092,0.402-1.355l1.844-1
					c0.486-0.263,1.093-0.083,1.355,0.402c0.264,0.485,0.083,1.092-0.402,1.355l-1.844,1C42.325,41.961,42.162,42,42.001,42z"/>
			</g>
		</g>
		<g>
			<g>
				<path d="M18,24.002c-0.553,0-1-0.447-1-1v-4c0-0.553,0.447-1,1-1s1,0.447,1,1v4C19,23.555,18.553,24.002,18,24.002z"/>
			</g>
			<g>
				<path d="M26,24.002h-8c-0.553,0-1-0.447-1-1s0.447-1,1-1h8c0.553,0,1,0.447,1,1S26.553,24.002,26,24.002z"/>
			</g>
			<g>
				<path d="M26,24.002c-0.553,0-1-0.447-1-1v-4c0-0.553,0.447-1,1-1s1,0.447,1,1v4C27,23.555,26.553,24.002,26,24.002z"/>
			</g>
			<g>
				<path d="M19.999,21.002c-0.15,0-0.303-0.034-0.446-0.105l-2-1c-0.494-0.247-0.694-0.848-0.447-1.342
					c0.248-0.494,0.849-0.693,1.342-0.447l2,1c0.494,0.247,0.694,0.848,0.447,1.342C20.719,20.8,20.366,21.002,19.999,21.002z"/>
			</g>
			<g>
				<path d="M20,21.002c-0.256,0-0.512-0.098-0.707-0.293c-0.391-0.391-0.391-1.023,0-1.414l2-2c0.391-0.391,1.023-0.391,1.414,0
					s0.391,1.023,0,1.414l-2,2C20.512,20.904,20.256,21.002,20,21.002z"/>
			</g>
			<g>
				<path d="M24,21.002c-0.256,0-0.512-0.098-0.707-0.293l-2-2c-0.391-0.391-0.391-1.023,0-1.414s1.023-0.391,1.414,0l2,2
					c0.391,0.391,0.391,1.023,0,1.414C24.512,20.904,24.256,21.002,24,21.002z"/>
			</g>
			<g>
				<path d="M24.001,21.002c-0.355,0-0.699-0.189-0.88-0.523c-0.264-0.485-0.083-1.092,0.402-1.355l1.844-1
					c0.484-0.264,1.093-0.084,1.355,0.402c0.264,0.485,0.083,1.092-0.402,1.355l-1.844,1C24.325,20.963,24.162,21.002,24.001,21.002
					z"/>
			</g>
		</g>
	</g>
</g>
<g id="_x34_4_spear_x2C__knight_x2C__weapon_x2C__duel_x2C__war_x2C__fairy_x2C__tale">
</g>
<g id="_x34_3_coach_x2C__pumpkin_x2C__magic_x2C__fairy_x2C__tale_x2C__legend_x2C__fantasy">
</g>
<g id="_x34_2_sword_x2C__magic_x2C__fairy_x2C__tale_x2C__legend_x2C__fantasy">
</g>
<g id="_x34_1_dagger_x2C__blood_x2C__weapon_x2C__fairy_x2C__tale_x2C__legend_x2C__fantasy">
</g>
<g id="_x34_0_ax_x2C__weapon_x2C__war_x2C__fairy_x2C__tale_x2C__legend_x2C__fantasy">
</g>
<g id="_x33_9_ax_x2C__weapon_x2C__fairy_x2C__tale_x2C__legend_x2C__fantasy">
</g>
<g id="_x33_8_standard_x2C__flag_x2C__crown_x2C__fairy_x2C__tale_x2C__legend_x2C__fantasy">
</g>
<g id="_x33_7_trumpet_x2C__flag_x2C__crown_x2C__fairy_x2C__tale_x2C__legend_x2C__fantasy">
</g>
<g id="_x33_6_flag_x2C__crown_x2C__fairy_x2C__tale_x2C__legend_x2C__fantasy">
</g>
<g id="_x33_5_bow_x2C__arrow_x2C__weapon_x2C__fairy_x2C__tale_x2C__legend_x2C__fantasy">
</g>
<g id="_x33_4_crossbow_x2C__arrow_x2C__weapon_x2C__fairy_x2C__tale_x2C__legend_x2C__fantasy">
</g>
<g id="_x33_3_helmet_x2C__knight_x2C__fairy_x2C__tale_x2C__legend_x2C__fantasy">
</g>
<g id="_x33_2_palace_x2C__castle_x2C__fairy_x2C__tale_x2C__legend_x2C__fantasy">
</g>
<g id="_x33_1_stained_x2C__glass_x2C__window_x2C__sword_x2C__fairy_x2C__tale_x2C__legend">
</g>
<g id="_x33_0_little_x2C__red_x2C__riding_x2C__hood_x2C__girl_x2C__fairy_x2C__tale">
</g>
<g id="_x32_9_medusa_x2C__snake_x2C__hair_x2C__fairy_x2C__tale_x2C__legend_x2C__fantasy">
</g>
<g id="_x32_8_tower_x2C__hair_x2C__fairy_x2C__tale_x2C__legend_x2C__fantasy">
</g>
<g id="_x32_7_mirror_x2C__magic_x2C__fairy_x2C__tale_x2C__legend_x2C__fantasy">
</g>
<g id="_x32_6_ring_x2C__magic_x2C__diamond_x2C__fairy_x2C__tale_x2C__legend_x2C__fantasy">
</g>
<g id="_x32_5_sword_x2C__stone_x2C__magic_x2C__fairy_x2C__tale_x2C__legend_x2C__fantasy">
</g>
<g id="_x32_4_wizard_x2C__magician_x2C__staff_x2C__fairy_x2C__tale_x2C__legend_x2C__fantasy">
</g>
<g id="_x32_3_witch_x2C__cat_x2C__potion_x2C__fairy_x2C__tale_x2C__legend_x2C__fantasy">
</g>
<g id="_x32_2_vampire_x2C__fangs_x2C__fairy_x2C__tale_x2C__legend_x2C__fantasy">
</g>
<g id="_x32_1_leprechaun_x2C__gold_x2C__coin_x2C__fairy_x2C__tale_x2C__legend_x2C__fantasy">
</g>
<g id="_x32_0_rainbow_x2C__bird_x2C__sun_x2C__fairy_x2C__tale_x2C__legend_x2C__fantasy">
</g>
<g id="_x31_9_satyr_x2C__horn_x2C__fairy_x2C__tale_x2C__legend_x2C__fantasy">
</g>
<g id="_x31_8_lamp_x2C__jinn_x2C__magic_x2C__fairy_x2C__tale_x2C__legend_x2C__fantasy">
</g>
<g id="_x31_7_frog_x2C__princess_x2C__crown_x2C__fairy_x2C__tale_x2C__legend_x2C__fantasy">
</g>
<g id="_x31_6_royal_x2C__decree_x2C__scroll_x2C__fairy_x2C__tale_x2C__legend_x2C__fantasy">
</g>
<g id="_x31_5_cup_x2C__drink_x2C__gold_x2C__fairy_x2C__tale_x2C__legend_x2C__fantasy">
</g>
<g id="_x31_4_shield_x2C__sword_x2C__fairy_x2C__tale_x2C__legend_x2C__fantasy">
</g>
<g id="_x31_3_potion_x2C__bottle_x2C__magic_x2C__fairy_x2C__tale_x2C__legend_x2C__fantasy">
</g>
<g id="_x31_2_mermaid_x2C__fish_x2C__fairy_x2C__tale_x2C__legend_x2C__fantasy">
</g>
<g id="_x31_1_knight_x2C__helmet_x2C__fairy_x2C__tale_x2C__legend_x2C__fantasy">
</g>
<g id="_x31_0_princess_x2C__crown_x2C__fairy_x2C__tale_x2C__legend_x2C__fantasy">
</g>
<g id="_x39__queen_x2C__crown_x2C__fairy_x2C__tale_x2C__legend_x2C__fantasy">
</g>
<g id="_x38__elf_x2C__flag_x2C__fairy_x2C__tale_x2C__legend_x2C__fantasy">
</g>
<g id="_x37__castle_x2C__flag_x2C__fairy_x2C__tale_x2C__legend_x2C__fantasy">
</g>
<g id="_x36__unicorn_x2C__horn_x2C__horse_x2C__fairy_x2C__tale_x2C__legend_x2C__fantasy">
</g>
<g id="_x35__book_x2C__magic_x2C__fairy_x2C__tale_x2C__legend_x2C__fantasy">
</g>
<g id="_x34__dragon_x2C__fire_x2C__fairy_x2C__tale_x2C__legend_x2C__fantasy">
</g>
<g id="_x33__sword_x2C__duel_x2C__war_x2C__fairy_x2C__tale_x2C__legend_x2C__fantasy">
</g>
<g id="_x32__crown_x2C__king_x2C__fairy_x2C__tale_x2C__legend_x2C__fantasy">
</g>
<g id="_x31__king_x2C__crown_x2C__fairy_x2C__tale_x2C__legend_x2C__fantasy">
</g>
</svg>
