<?xml version="1.0" encoding="UTF-8" standalone="no"?>
<!-- Generator: Adobe Illustrator 19.0.0, SVG Export Plug-In . SVG Version: 6.00 Build 0)  -->

<svg
   version="1.1"
   id="Layer_1"
   x="0px"
   y="0px"
   viewBox="0 0 512 512"
   style="enable-background:new 0 0 512 512;"
   xml:space="preserve"
   sodipodi:docname="icon-monument.svg"
   inkscape:version="1.2.1 (9c6d41e410, 2022-07-14)"
   xmlns:inkscape="http://www.inkscape.org/namespaces/inkscape"
   xmlns:sodipodi="http://sodipodi.sourceforge.net/DTD/sodipodi-0.dtd"
   xmlns="http://www.w3.org/2000/svg"
   xmlns:svg="http://www.w3.org/2000/svg"><defs
   id="defs21259" /><sodipodi:namedview
   id="namedview21257"
   pagecolor="#ffffff"
   bordercolor="#000000"
   borderopacity="0.25"
   inkscape:showpageshadow="2"
   inkscape:pageopacity="0.0"
   inkscape:pagecheckerboard="0"
   inkscape:deskcolor="#d1d1d1"
   showgrid="false"
   inkscape:zoom="0.1772946"
   inkscape:cx="-4041.2963"
   inkscape:cy="-1269.0742"
   inkscape:window-width="2560"
   inkscape:window-height="1387"
   inkscape:window-x="-8"
   inkscape:window-y="-8"
   inkscape:window-maximized="1"
   inkscape:current-layer="g21166" />
<g
   id="g21166">
	<polygon
   style="fill:#b6b6b6;fill-opacity:1"
   points="438.152,103.015 254.274,8.204 69.18,103.015  "
   id="polygon21162" />
	<rect
   x="69.18"
   y="103.02"
   style="fill:#acacac;fill-opacity:1"
   width="368.98"
   height="47.996"
   id="rect21164" />
</g>

<g
   id="g21174">
	<rect
   x="229.69"
   y="198.96"
   style="fill:#4BCDB2;"
   width="52.64"
   height="202.74"
   id="rect21170" />
	<rect
   x="362.45"
   y="198.96"
   style="fill:#4BCDB2;"
   width="52.64"
   height="202.74"
   id="rect21172" />
</g>
<g
   id="g21182">
	<polygon
   style="fill:#5d5d5d;fill-opacity:1"
   points="86.786,430.189 159.702,430.189 149.564,401.703 96.924,401.703  "
   id="polygon21176" />
	<polygon
   style="fill:#5c5d5d;fill-opacity:1"
   points="219.554,430.189 292.47,430.189 282.331,401.703 229.692,401.703  "
   id="polygon21178" />
	<polygon
   style="fill:#5d5d5d;fill-opacity:1"
   points="352.321,430.189 425.238,430.189 415.099,401.703 362.46,401.703  "
   id="polygon21180" />
</g>
<rect
   x="69.19"
   y="430.19"
   style="fill:#b0b0b0;fill-opacity:1"
   width="368.98"
   height="23.998"
   id="rect21184" />
<rect
   x="5.881"
   y="478.19"
   style="enable-background:new 0 0 512 512;fill:#b0b0b0;fill-opacity:1"
   width="496.79"
   height="23.998"
   id="rect21168" /><rect
   x="40"
   y="454.19"
   style="fill:#b0b0b0;fill-opacity:1"
   width="427.33"
   height="23.998"
   id="rect21186" />
<polygon
   style="fill:#606060;fill-opacity:1"
   points="96.924,198.956 149.564,198.956 159.658,174.681 86.829,174.681 "
   id="polygon21188" />
<polygon
   style="fill:#58615f;fill-opacity:1"
   points="76.647,150.194 86.829,174.681 159.658,174.681 169.841,150.194 "
   id="polygon21190" />
<polygon
   style="fill:#505755;fill-opacity:1"
   points="229.692,198.956 282.331,198.956 292.459,174.601 219.565,174.601 "
   id="polygon21192" />
<g
   id="g21198">
	<polygon
   style="fill:#5c5d5d;fill-opacity:1"
   points="209.415,150.194 219.565,174.601 292.459,174.601 302.608,150.194  "
   id="polygon21194" />
	<polygon
   style="fill:#5d5d5d;fill-opacity:1"
   points="435.376,150.194 342.182,150.194 352.321,174.575 425.238,174.575  "
   id="polygon21196" />
</g>
<polygon
   style="fill:#555555;fill-opacity:1"
   points="352.321,174.575 362.46,198.956 415.099,198.956 425.238,174.575 "
   id="polygon21200" />

<rect
   x="96.92"
   y="375.99"
   style="fill:#5d5d5d;fill-opacity:1"
   width="52.64"
   height="25.717"
   id="rect21204" />

<rect
   x="229.67"
   y="375.99"
   style="fill:#5d5d5d;fill-opacity:1"
   width="52.64"
   height="25.717"
   id="rect21208" />
<rect
   x="96.919998"
   y="198.96001"
   style="enable-background:new 0 0 512 512;fill:#c0c1c0;fill-opacity:1"
   width="52.639999"
   height="177.03"
   id="rect21202" /><rect
   x="362.45"
   y="198.96"
   style="fill:#c0c1c0;fill-opacity:1"
   width="52.64"
   height="177.03"
   id="rect21210" />
<rect
   x="229.67"
   y="198.96"
   style="enable-background:new 0 0 512 512;fill:#c0c1c0;fill-opacity:1"
   width="52.64"
   height="177.03"
   id="rect21206" /><g
   id="g21216">
	<rect
   x="362.45"
   y="375.99"
   style="fill:#5d5d5d;fill-opacity:1"
   width="52.64"
   height="25.717"
   id="rect21212" />
	<path
   style="fill:#5d5d5d;fill-opacity:1"
   d="M307.952,71.002L256.96,44.71c-1.937-1-4.239-1.003-6.179-0.008L199.44,70.999   c-1.89,0.968-1.201,3.823,0.923,3.823h106.663C309.146,74.822,309.837,71.974,307.952,71.002z"
   id="path21214" />
</g>
<polygon
   style="fill:#898989;fill-opacity:1"
   points="443.088,102.197 399.279,79.608 118.216,79.608 74.116,102.197 "
   id="polygon21218" />
<g
   id="g21224">
	<path
   style="fill:#000000;fill-opacity:1"
   d="M504.396,471.797h-27.734v-16.394c0-4.199-3.405-7.604-7.604-7.604h-21.577v-16.394   c0-4.199-3.405-7.604-7.604-7.604h-7.552l-7.9-22.194V201.69l9.528-22.914c0.008-0.02,0.016-0.041,0.025-0.06l8.367-20.121   c2.986-1.026,5.135-3.852,5.135-7.186v-47.997c0-0.243-0.014-0.484-0.036-0.721c-0.001-0.014-0.001-0.029-0.002-0.044   c-0.039-0.384-0.114-0.756-0.207-1.121c-0.015-0.058-0.028-0.116-0.045-0.173c-0.101-0.361-0.227-0.712-0.379-1.048   c-0.02-0.045-0.043-0.087-0.063-0.131c-0.327-0.693-0.755-1.328-1.267-1.888c-0.046-0.05-0.088-0.1-0.136-0.149   c-0.253-0.263-0.525-0.504-0.813-0.728c-0.055-0.043-0.109-0.083-0.165-0.124c-0.308-0.226-0.632-0.433-0.972-0.611   c-0.012-0.006-0.021-0.015-0.033-0.021L259.485,1.843c-2.179-1.123-4.767-1.127-6.951-0.009L67.439,96.644   c-0.014,0.007-0.025,0.017-0.04,0.024c-0.34,0.177-0.662,0.381-0.969,0.605c-0.057,0.042-0.114,0.083-0.169,0.127   c-0.289,0.223-0.562,0.464-0.815,0.726c-0.047,0.048-0.088,0.097-0.133,0.147c-0.254,0.277-0.494,0.567-0.706,0.879l-0.001,0.001   c-0.215,0.316-0.398,0.655-0.564,1.003c-0.022,0.047-0.046,0.092-0.068,0.14c-0.151,0.337-0.278,0.685-0.38,1.045   c-0.016,0.058-0.029,0.116-0.045,0.173c-0.094,0.366-0.17,0.738-0.209,1.123c-0.001,0.009,0,0.018-0.001,0.027   c-0.024,0.245-0.038,0.495-0.038,0.746v47.997c0,4.199,3.405,7.604,7.604,7.604h2.39l8.193,19.702   c0.008,0.02,0.016,0.041,0.025,0.06l9.528,22.914v199.915l-7.9,22.194H70.905c-4.199,0-7.604,3.405-7.604,7.604v16.394H41.724   c-4.199,0-7.604,3.405-7.604,7.604v16.394H7.604C3.405,471.795,0,475.199,0,479.399v23.998c0,4.199,3.405,7.604,7.604,7.604   h496.792c4.199,0,7.604-3.405,7.604-7.604v-23.998C512,475.201,508.595,471.797,504.396,471.797z M299.558,423.799l-7.9-22.194   V201.69l9.528-22.914c0.008-0.02,0.016-0.041,0.025-0.06l8.193-19.702h29.427l8.193,19.702c0.008,0.02,0.016,0.041,0.025,0.06   l9.528,22.914v199.915l-7.9,22.194L299.558,423.799L299.558,423.799z M166.789,423.799l-7.9-22.194V201.69l9.528-22.914   c0.008-0.02,0.016-0.041,0.025-0.06l8.193-19.702h29.427l8.193,19.702c0.008,0.02,0.016,0.041,0.025,0.06l9.528,22.914v199.915   l-7.9,22.194L166.789,423.799L166.789,423.799z M78.509,111.015h353.764v32.789h-88.368h-39.574h-93.194h-39.574H78.509V111.015z    M421.887,168.186h-62.77l-3.815-9.173h70.401L421.887,168.186z M409.218,207.775v161.823h-11.112V207.775H409.218z    M382.898,369.598h-11.112V207.775h11.112V369.598z M371.786,384.806h37.432v10.509h-37.432V384.806z M411.748,192.567h-42.493   l-3.815-9.173h50.122L411.748,192.567z M276.45,207.775v161.823h-11.112V207.775H276.45z M250.13,369.598h-11.112V207.775h11.112   V369.598z M239.018,384.806h37.432v10.509h-37.432V384.806L239.018,384.806z M278.98,192.567h-42.493l-3.815-9.173h50.122   L278.98,192.567z M289.119,168.186h-62.77l-3.815-9.173h70.401L289.119,168.186z M106.25,369.598V207.775h11.112v161.823H106.25   L106.25,369.598z M132.569,207.775h11.112v161.823h-11.112V207.775z M146.212,192.567h-42.493l-3.815-9.173h50.122L146.212,192.567   z M106.25,384.806h37.432v10.509H106.25V384.806z M236.779,410.523h41.91l4.726,13.278h-51.362L236.779,410.523z M369.546,410.523   h41.91l4.726,13.278h-51.361L369.546,410.523z M255.989,17.151l152.549,78.657H102.429L255.989,17.151z M160.166,159.012   l-3.815,9.173H93.58l-3.815-9.173H160.166z M104.011,410.523h41.91l4.726,13.278H99.285L104.011,410.523z M78.509,439.007h9.998   h72.917h59.851h72.917h59.851h72.917h5.313v8.79H78.509V439.007z M49.328,463.006h21.577h368.972h21.577v8.79H49.328V463.006z    M496.792,495.795H15.208v-8.79h26.517h427.332h27.735V495.795z"
   id="path21220" />
	<path
   style="fill:#000000;fill-opacity:1;stroke-width:0;stroke-dasharray:none"
   d="M320.569,69.278l-61.49-31.704c-2.179-1.123-4.767-1.127-6.951-0.009l-61.896,31.704   c-3.126,1.602-4.749,5.136-3.926,8.551s3.879,5.821,7.392,5.821h123.385c3.509,0,6.563-2.401,7.39-5.81   C325.3,74.421,323.687,70.886,320.569,69.278z M225.222,68.433l30.361-15.552l30.161,15.552H225.222z"
   id="path21222" />
</g>
<g
   id="g21226">
</g>
<g
   id="g21228">
</g>
<g
   id="g21230">
</g>
<g
   id="g21232">
</g>
<g
   id="g21234">
</g>
<g
   id="g21236">
</g>
<g
   id="g21238">
</g>
<g
   id="g21240">
</g>
<g
   id="g21242">
</g>
<g
   id="g21244">
</g>
<g
   id="g21246">
</g>
<g
   id="g21248">
</g>
<g
   id="g21250">
</g>
<g
   id="g21252">
</g>
<g
   id="g21254">
</g>
</svg>
