<svg xmlns="http://www.w3.org/2000/svg" viewBox="0 0 64 64"><defs><style>.cls-1{isolation:isolate;}.cls-2{fill:#d2dad8;}.cls-3{fill:#2f4f59;}.cls-4{fill:#fab00b;}.cls-5{fill:#602b0b;}.cls-6{fill:none;stroke:#000;stroke-linecap:round;stroke-linejoin:round;stroke-width:2px;}.cls-7{opacity:0.25;mix-blend-mode:multiply;}.cls-8,.cls-9{mix-blend-mode:overlay;}.cls-9{fill:#fff;}</style></defs><title>Icon Color</title><g class="cls-1"><g id="Layer_1" data-name="Layer 1"><g id="Vector"><polygon class="cls-2" points="52.98 34.77 44.34 30.11 44.34 53.95 56.46 53.95 56.46 36.65 52.98 34.77"/><polygon class="cls-2" points="11.03 34.77 19.66 30.11 19.66 53.95 7.54 53.95 7.54 36.65 11.03 34.77"/><path class="cls-3" d="M61.36,36.88l-4.9-2.69L53,32.26l-8.64-4.75v2.6L53,34.87l3.48,1.91.66.36,2.35,1.31c.92.5,2.37.1,2.37-.66v-.26A.81.81,0,0,0,61.36,36.88Z"/><path class="cls-3" d="M2.64,36.88l4.9-2.69L11,32.26l8.64-4.75v2.6L11,34.87,7.54,36.78l-.66.36L4.53,38.45c-.92.5-2.37.1-2.37-.66v-.26A.81.81,0,0,1,2.64,36.88Z"/><path class="cls-3" d="M49.72,26.52v.42A1.43,1.43,0,0,1,47.35,28L45,25.88l-.66-.58-3.48-3.11L32,14.27l-8.86,7.92L19.66,25.3l-.66.58L16.65,28a1.43,1.43,0,0,1-2.37-1.06v-.42a1.43,1.43,0,0,1,.48-1.06l4.9-4.37L23.14,18,32,10.05,40.86,18l3.48,3.12,4.9,4.37A1.43,1.43,0,0,1,49.72,26.52Z"/><polygon class="cls-2" points="44.34 25.3 44.34 53.95 19.66 53.95 19.66 25.3 23.14 22.19 32 14.27 40.86 22.19 44.34 25.3"/><path class="cls-4" d="M30.5,36.62h3a4.58,4.58,0,0,1,4.58,4.58V53.95a0,0,0,0,1,0,0H25.92a0,0,0,0,1,0,0V41.2A4.58,4.58,0,0,1,30.5,36.62Z"/><rect class="cls-4" x="10.56" y="39.53" width="6.08" height="9.69" rx="3.04"/><rect class="cls-4" x="47.37" y="39.53" width="6.08" height="9.69" rx="3.04"/><polygon class="cls-5" points="37.03 23.47 37.03 26.01 33.27 26.01 33.27 32.16 30.73 32.16 30.73 26.01 26.97 26.01 26.97 23.47 30.73 23.47 30.73 21.14 33.27 21.14 33.27 23.47 37.03 23.47"/></g><g id="Line"><polygon class="cls-6" points="52.98 34.77 44.34 30.11 44.34 53.95 56.46 53.95 56.46 36.65 52.98 34.77"/><polygon class="cls-6" points="11.03 34.77 19.66 30.11 19.66 53.95 7.54 53.95 7.54 36.65 11.03 34.77"/><path class="cls-6" d="M61.36,36.88l-4.9-2.69L53,32.26l-8.64-4.75v2.6L53,34.87l3.48,1.91.66.36,2.35,1.31c.92.5,2.37.1,2.37-.66v-.26A.81.81,0,0,0,61.36,36.88Z"/><path class="cls-6" d="M2.64,36.88l4.9-2.69L11,32.26l8.64-4.75v2.6L11,34.87,7.54,36.78l-.66.36L4.53,38.45c-.92.5-2.37.1-2.37-.66v-.26A.81.81,0,0,1,2.64,36.88Z"/><path class="cls-6" d="M49.72,26.52v.42A1.43,1.43,0,0,1,47.35,28L45,25.88l-.66-.58-3.48-3.11L32,14.27l-8.86,7.92L19.66,25.3l-.66.58L16.65,28a1.43,1.43,0,0,1-2.37-1.06v-.42a1.43,1.43,0,0,1,.48-1.06l4.9-4.37L23.14,18,32,10.05,40.86,18l3.48,3.12,4.9,4.37A1.43,1.43,0,0,1,49.72,26.52Z"/><polygon class="cls-6" points="44.34 25.3 44.34 53.95 19.66 53.95 19.66 25.3 23.14 22.19 32 14.27 40.86 22.19 44.34 25.3"/><path class="cls-6" d="M30.5,36.62h3a4.58,4.58,0,0,1,4.58,4.58V53.95a0,0,0,0,1,0,0H25.92a0,0,0,0,1,0,0V41.2A4.58,4.58,0,0,1,30.5,36.62Z"/><rect class="cls-6" x="10.56" y="39.53" width="6.08" height="9.69" rx="3.04"/><rect class="cls-6" x="47.37" y="39.53" width="6.08" height="9.69" rx="3.04"/><polygon class="cls-6" points="37.03 23.47 37.03 26.01 33.27 26.01 33.27 32.16 30.73 32.16 30.73 26.01 26.97 26.01 26.97 23.47 30.73 23.47 30.73 21.14 33.27 21.14 33.27 23.47 37.03 23.47"/></g><g id="Shadow" class="cls-7"><path d="M32.11,15.55a10,10,0,0,1,2.57,2.14A24.88,24.88,0,0,0,37.2,20.2C38.1,21,39,21.76,40,22.48c.74.56,1.53,1.05,2.26,1.62a7.2,7.2,0,0,1,1.89,2,2.45,2.45,0,0,1,.22.5V25.3l.66.58L47.35,28a1.43,1.43,0,0,0,2.37-1.06v-.42a1.43,1.43,0,0,0-.48-1.06l-4.9-4.37L40.86,18,32,10.05l-4.23,3.79,2.87,2.56A1,1,0,0,1,32.11,15.55Z"/><path d="M61.36,36.88l-4.9-2.69L53,32.26l-8.42-4.64c0,.2,0,.4,0,.6a11.79,11.79,0,0,1-.23,3.68.87.87,0,0,1,.33-.33l.24-.11a1.19,1.19,0,0,1,.53,0l.24.11a.68.68,0,0,1,.28.25.75.75,0,0,1,.06.13h2v2.57h0V54h8.46V36.78l.66.36,2.35,1.31c.92.5,2.37.1,2.37-.66v-.26A.81.81,0,0,0,61.36,36.88Z"/></g><g id="Highligth" class="cls-8"><g class="cls-8"><path class="cls-9" d="M19.76,25.46l4.9-4.37L28.14,18l6.36-5.68L32,10.05,23.14,18l-3.48,3.12-4.9,4.37a1.43,1.43,0,0,0-.48,1.06v.42A1.43,1.43,0,0,0,16.65,28L19,25.88l.66-.58v.27A.52.52,0,0,1,19.76,25.46Z"/><path class="cls-9" d="M12.54,34.19l-1.37.41L8.06,36.5a1.54,1.54,0,0,1-.13,1.61,1,1,0,0,1-.39.26V54h5Z"/><path class="cls-9" d="M20.63,28.34a1.42,1.42,0,0,1-1.16-.73L11,32.26,7.54,34.19l-4.9,2.69a.81.81,0,0,0-.48.65v.26c0,.76,1.45,1.16,2.37.66l2.35-1.31.66-.36V37l.1-.07,4.9-2.69L16,32.26l4.65-2.56A5.63,5.63,0,0,1,20.63,28.34Z"/></g></g></g></g></svg>