<?xml version="1.0" encoding="UTF-8" standalone="no"?>
<svg
   version="1.1"
   x="0px"
   y="0px"
   viewBox="0 0 64 64"
   enable-background="new 0 0 64 64"
   id="svg54550"
   sodipodi:docname="icon-smith.svg"
   inkscape:version="1.2.1 (9c6d41e410, 2022-07-14)"
   xmlns:inkscape="http://www.inkscape.org/namespaces/inkscape"
   xmlns:sodipodi="http://sodipodi.sourceforge.net/DTD/sodipodi-0.dtd"
   xmlns="http://www.w3.org/2000/svg"
   xmlns:svg="http://www.w3.org/2000/svg">
  <defs
     id="defs54554" />
  <sodipodi:namedview
     id="namedview54552"
     pagecolor="#ffffff"
     bordercolor="#000000"
     borderopacity="0.25"
     inkscape:showpageshadow="2"
     inkscape:pageopacity="0.0"
     inkscape:pagecheckerboard="0"
     inkscape:deskcolor="#d1d1d1"
     showgrid="false"
     inkscape:zoom="2.0058594"
     inkscape:cx="-270.45764"
     inkscape:cy="3.9883155"
     inkscape:window-width="2560"
     inkscape:window-height="1387"
     inkscape:window-x="-8"
     inkscape:window-y="-8"
     inkscape:window-maximized="1"
     inkscape:current-layer="g54502" />
  <g
     id="_x35_0_badge_x2C__handmade_x2C__craft_x2C__artisan_x2C__workshop_x2C__hobby" />
  <g
     id="_x34_9_bag_x2C__needle_x2C__thread_x2C__handmade_x2C__craft_x2C__artisan_x2C__workshop" />
  <g
     id="_x34_8_yarn_x2C__thread_x2C__handmade_x2C__craft_x2C__artisan_x2C__workshop_x2C__hobby" />
  <g
     id="_x34_7_woodburning_x2C__board_x2C__wood_x2C__handmade_x2C__craft_x2C__artisan_x2C__workshop" />
  <g
     id="_x34_6_beads_x2C__needle_x2C__sewing_x2C__handmade_x2C__craft_x2C__artisan_x2C__workshop" />
  <g
     id="_x34_5_palette_x2C__paint_x2C__brush_x2C__handmade_x2C__craft_x2C__artisan_x2C__workshop" />
  <g
     id="_x34_4_paint_x2C__painting_x2C__handmade_x2C__craft_x2C__artisan_x2C__workshop_x2C__hobby" />
  <g
     id="_x34_3_glue_x2C__gun_x2C__handmade_x2C__craft_x2C__artisan_x2C__workshop_x2C__hobby" />
  <g
     id="_x34_2_tin_x2C__paint_x2C__handmade_x2C__craft_x2C__artisan_x2C__workshop_x2C__hobby" />
  <g
     id="_x34_1_easel_x2C__picture_x2C__painting_x2C__handmade_x2C__craft_x2C__artisan_x2C__workshop" />
  <g
     id="_x34_0_figured_x2C__forging_x2C__gate_x2C__blacksmith_x2C__handmade_x2C__craft_x2C__artisan" />
  <g
     id="_x33_9_sword_x2C__anvil_x2C__hammer_x2C__blacksmith_x2C__handmade_x2C__craft_x2C__artisan" />
  <g
     id="_x33_8_anvil_x2C__hammer_x2C__blacksmith_x2C__handmade_x2C__craft_x2C__artisan_x2C__workshop">
    <g
       id="g54502">
      <path
         fill="#656D78"
         d="M63,26.5l-2,6h-4c-7.73,0-14,6.26-14,14l9,7.98v0.02h-8c0,0-4-2-9-2s-9,2-9,2h-8v-0.02l7-5.98 c1.689-1.44,3-2,3-4c0-2.21-1.79-4-4-4h-2v-13v-1H63z"
         id="path54484"
         style="fill:#828a96;fill-opacity:1" />
      <rect
         x="44"
         y="54.5"
         fill="#AAB2BD"
         width="8"
         height="5"
         id="rect54486" />
      <path
         fill="#656D78"
         d="M44,7.5v12c0,1.65-1.34,3-3,3h-6c-1.65,0-3-1.35-3-3v-3v-5v-4c0-1.65,1.35-3,3-3h6 C42.66,4.5,44,5.85,44,7.5z"
         id="path54488" />
      <path
         fill="#434A54"
         d="M41,4.5h-4c1.66,0,3,1.35,3,3v12c0,1.65-1.34,3-3,3h4c1.66,0,3-1.35,3-3v-12C44,5.85,42.66,4.5,41,4.5z"
         id="path54490" />
      <path
         fill="#FFD2A6"
         d="M32,10.5v7H12c-0.55,0-1-0.45-1-1v-5c0-0.55,0.45-1,1-1H32z"
         id="path54492" />
      <path
         fill="#767F89"
         d="M35,57.5c-5,0-9,2-9,2v-5c0,0,4-2,9-2s9,2,9,2v5C44,59.5,40,57.5,35,57.5z"
         id="path54494" />
      <rect
         x="18"
         y="54.5"
         fill="#AAB2BD"
         width="8"
         height="5"
         id="rect54496" />
      <polygon
         fill="#767F89"
         points="22,27.5 22,40.5 18,40.5 18,28.5 18,27.5 		"
         id="polygon54498" />
      <path
         fill="#AAB2BD"
         d="M18,28.5v12h-5c-6.63,0-12-5.37-12-12H18z"
         id="path54500" />
    </g>
  </g>
  <g
     id="_x33_7_painting_x2C__dish_x2C__plate_x2C__brush_x2C__handmade_x2C__craft_x2C__artisan" />
  <g
     id="_x33_6_shoemaking_x2C__shoes_x2C__hammer_x2C__handmade_x2C__craft_x2C__artisan_x2C__workshop" />
  <g
     id="_x33_5_furniture_x2C__manufacturing_x2C__jack_x2C__plane_x2C__handmade_x2C__craft_x2C__artisan" />
  <g
     id="_x33_4_poster_x2C__picture_x2C__wall_x2C__handmade_x2C__craft_x2C__artisan_x2C__workshop" />
  <g
     id="_x33_3_scrapbooking_x2C__book_x2C__design_x2C__handmade_x2C__craft_x2C__artisan_x2C__workshop" />
  <g
     id="_x33_2_sculpture_x2C__bust_x2C__handmade_x2C__craft_x2C__artisan_x2C__workshop_x2C__hobby" />
  <g
     id="_x33_1_teddy_x2C__bir_x2C__sewing_x2C__handmade_x2C__craft_x2C__artisan_x2C__workshop" />
  <g
     id="_x33_0_scissors_x2C__cloth_x2C__handmade_x2C__craft_x2C__artisan_x2C__workshop_x2C__hobby" />
  <g
     id="_x32_9_yarn_x2C__thread_x2C__handmade_x2C__craft_x2C__artisan_x2C__workshop_x2C__hobby" />
  <g
     id="_x32_8_aerosol_x2C__can_x2C__paint_x2C__handmade_x2C__craft_x2C__artisan_x2C__workshop" />
  <g
     id="_x32_7_cloth_x2C__fabric_x2C__roll_x2C__handmade_x2C__craft_x2C__artisan_x2C__workshop" />
  <g
     id="_x32_6_mannequin_x2C__sewing_x2C__handmade_x2C__craft_x2C__artisan_x2C__workshop_x2C__hobby" />
  <g
     id="_x32_5_pincushion_x2C__pin_x2C__needle_x2C__thread_x2C__handmade_x2C__craft_x2C__artisan" />
  <g
     id="_x32_4_sewing_x2C__machine_x2C__cloth_x2C__handmade_x2C__craft_x2C__artisan_x2C__workshop" />
  <g
     id="_x32_3_measuring_x2C__tape_x2C__handmade_x2C__craft_x2C__artisan_x2C__workshop_x2C__hobby" />
  <g
     id="_x32_2_yarn_x2C__basket_x2C__needles_x2C__knitting_x2C__handmade_x2C__craft_x2C__artisan" />
  <g
     id="_x32_1_jewelry_x2C__accessory_x2C__handmade_x2C__craft_x2C__artisan_x2C__workshop_x2C__hobby" />
  <g
     id="_x32_0_purchase_x2C__shopping_x2C__bag_x2C__handmade_x2C__craft_x2C__artisan_x2C__workshop" />
  <g
     id="_x31_9_button_x2C__clothes_x2C__handmade_x2C__craft_x2C__artisan_x2C__workshop_x2C__hobby" />
  <g
     id="_x31_8_pottery_x2C__pot_x2C__potter_x2C__wheel_x2C__handmade_x2C__craft_x2C__artisan" />
  <g
     id="_x31_7_apron_x2C__tool_x2C__handmade_x2C__craft_x2C__artisan_x2C__workshop_x2C__hobby" />
  <g
     id="_x31_6_kanchelar_x2C__knife_x2C__handmade_x2C__craft_x2C__artisan_x2C__workshop_x2C__hobby" />
  <g
     id="_x31_5_cross_x2C__stitch_x2C__needle_x2C__thread_x2C__handmade_x2C__craft_x2C__artisan" />
  <g
     id="_x31_4_knitting_x2C__yarn_x2C__needle_x2C__handmade_x2C__craft_x2C__artisan_x2C__workshop" />
  <g
     id="_x31_3_finger_x2C__thimble_x2C__needle_x2C__handmade_x2C__craft_x2C__artisan_x2C__workshop" />
  <g
     id="_x31_2_ink_x2C__calligraphy_x2C__handmade_x2C__craft_x2C__artisan_x2C__workshop_x2C__hobby" />
  <g
     id="_x31_1_crayon_x2C__painting_x2C__drawing_x2C__handmade_x2C__craft_x2C__artisan_x2C__workshop" />
  <g
     id="_x31_0_tool_x2C__peneraser_x2C__pencil_x2C__ruler_x2C__handmade_x2C__craft_x2C__artisan" />
  <g
     id="_x39__felt-tip_x2C__pen_x2C__calligraphy_x2C__handmade_x2C__craft_x2C__artisan_x2C__workshop" />
  <g
     id="_x38__calligraphy_x2C__pen_x2C__handmade_x2C__craft_x2C__artisan_x2C__workshop_x2C__hobby" />
  <g
     id="_x37__design_x2C__notebook_x2C__pencil_x2C__handmade_x2C__craft_x2C__artisan_x2C__workshop" />
  <g
     id="_x36__pencil_x2C__handmade_x2C__craft_x2C__artisan_x2C__workshop_x2C__hobby" />
  <g
     id="_x35__glue_x2C__handmade_x2C__craft_x2C__artisan_x2C__workshop_x2C__hobby" />
  <g
     id="_x34__brush_x2C__painting_x2C__drawing_x2C__handmade_x2C__craft_x2C__artisan_x2C__workshop" />
  <g
     id="_x33__yarn_x2C__heart_x2C__needles_x2C__knitting_x2C__handmade_x2C__craft_x2C__artisan" />
  <g
     id="_x32__yarn_x2C__ball_x2C__needles_x2C__knitting_x2C__handmade_x2C__craft_x2C__artisan" />
  <g
     id="_x31__thread_x2C__needle_x2C__handmade_x2C__craft_x2C__artisan_x2C__workshop_x2C__hobby" />
  <path
     style="fill:#a1a1a1"
     d="M 0.93476144,28.541383 17.885102,28.479065"
     id="path55155" />
  <path
     style="fill:#000000;fill-opacity:1"
     d="m 10.531646,46.862707 13.024342,-2.43038"
     id="path55157" />
  <path
     style="fill:none;fill-opacity:1;stroke:#000000;stroke-width:2.4;stroke-linejoin:round;stroke-dasharray:none;stroke-opacity:1"
     d="m 1.0593963,28.416748 16.8880237,0.06232 0.06232,-0.872444 4.050633,-0.06232 v -0.934762 h 40.817916 l -1.93184,5.920156 C 47.643406,32.4758 44.111122,38.759691 42.999029,46.613437 l 8.97371,7.851996 v 5.047712 l -7.914313,-0.06232 c -7.382684,-3.600539 -12.868006,-2.322148 -17.947423,0 L 17.94742,59.38851 v -5.047712 l 9.285297,-7.727361 c 0.841041,-3.2223 -0.370026,-5.040526 -2.67965,-6.107108 H 12.775073 C 5.0279149,38.510433 3.360563,33.295816 1.0593963,28.416748 Z"
     id="path55465"
     sodipodi:nodetypes="cccccccccccccccccc" />
  <path
     style="fill:none;fill-opacity:1;stroke:#000000;stroke-width:2.4;stroke-linejoin:round;stroke-dasharray:none;stroke-opacity:1"
     d="m 11.15482,17.261928 -0.124635,-6.667965 20.814021,-0.124635 0.186953,-3.6144108 c 0.302238,-1.421877 1.340731,-2.1074997 2.804284,-2.3680623 l 6.667965,-0.062317 c 1.101722,0.3305391 2.403162,0.1950668 2.555015,2.7419669 l -0.06232,13.0866602 c 0.127629,1.433654 -0.564166,2.138931 -1.93184,2.243427 l -7.540409,-0.06232 c -2.07462,-0.105176 -2.244192,-1.162877 -2.368062,-2.243428 L 31.968839,17.38656 Z"
     id="path59097"
     sodipodi:nodetypes="ccccccccccccc" />
  <path
     style="fill:none;fill-opacity:1;stroke:#000000;stroke-width:2.4;stroke-linejoin:round;stroke-dasharray:none;stroke-opacity:1;stroke-linecap:round"
     d="m 32.079376,10.487488 v 3.084556"
     id="path59825" />
  <path
     style="fill:none;fill-opacity:1;stroke:#000000;stroke-width:2.4;stroke-linecap:round;stroke-linejoin:round;stroke-dasharray:none;stroke-opacity:1"
     d="m 22.032538,28.025389 0.08813,8.196104"
     id="path59827" />
  <path
     style="fill:none;fill-opacity:1;stroke:#000000;stroke-width:2.4;stroke-linecap:round;stroke-linejoin:round;stroke-dasharray:none;stroke-opacity:1"
     d="m 50.471585,53.433866 -6.169112,-0.17626 c 0,0 -7.843583,-4.759028 -17.978551,-0.26439"
     id="path59835"
     sodipodi:nodetypes="ccc" />
</svg>
