<?xml version="1.0" encoding="iso-8859-1"?>
<!-- Generator: Adobe Illustrator 19.0.0, SVG Export Plug-In . SVG Version: 6.00 Build 0)  -->
<svg xmlns="http://www.w3.org/2000/svg" xmlns:xlink="http://www.w3.org/1999/xlink" version="1.1" id="Layer_1" x="0px" y="0px" viewBox="0 0 512.002 512.002" style="enable-background:new 0 0 512.002 512.002;" xml:space="preserve">
<path style="fill:#A1DD90;" d="M370.117,465.593c-21.164,0-38.322,17.157-38.322,38.322h76.644  C408.439,482.75,391.281,465.593,370.117,465.593z"/>
<path style="fill:#A4B730;" d="M206.524,482.39c-11.886,0-21.524,9.637-21.524,21.526h43.049  C228.047,492.028,218.412,482.39,206.524,482.39z"/>
<path style="fill:#CBCE38;" d="M271.553,444.897c-5.469-18.874-22.87-32.675-43.505-32.675c-25.017,0-45.299,20.281-45.299,45.301  h66.312C255.511,451.851,263.142,447.496,271.553,444.897z"/>
<path style="fill:#84C075;" d="M344.576,475.354c-10.311-19.731-30.958-33.205-54.762-33.205c-34.112,0-61.767,27.652-61.767,61.767  h103.747C331.794,492.564,336.733,482.372,344.576,475.354z"/>
<path style="fill:#A67A4B;" d="M267.929,351.647v-41.796h-39.882v102.371c17.24,0,32.227,9.631,39.882,23.804v-57.43"/>
<polyline style="fill:#97E880;" points="292.959,80.42 319.647,123.351 176.332,123.351 247.988,8.084 247.988,8.084   278.785,57.621 "/>
<polygon style="fill:#99D687;" points="279.752,123.351 216.225,123.351 158.253,216.601 337.723,216.601 "/>
<polygon style="fill:#84C075;" points="292.855,216.601 203.121,216.601 145.153,309.851 350.827,309.851 "/>
<path style="fill:#8FD379;" d="M387.363,469.697c-5.186-2.619-11.041-4.104-17.246-4.104c-21.164,0-38.322,17.157-38.322,38.322  h34.493C366.287,488.956,374.864,476.008,387.363,469.697z"/>
<path style="fill:#A4B730;" d="M245.29,415.631c-5.315-2.192-11.135-3.409-17.242-3.409c-25.017,0-45.299,20.281-45.299,45.301  h34.493C217.241,438.612,228.831,422.416,245.29,415.631z"/>
<path style="fill:#77B266;" d="M307.086,444.601c-5.481-1.594-11.276-2.451-17.271-2.451c-34.112,0-61.767,27.652-61.767,61.767  h34.493C262.54,475.781,281.356,452.059,307.086,444.601z"/>
<path style="fill:#996B42;" d="M260.384,412.221V309.851h-32.337v102.371c17.24,0,32.227,9.631,39.882,23.804v-23.152  C265.473,412.46,262.957,412.221,260.384,412.221z"/>
<polygon style="fill:#84DD66;" points="247.988,8.084 176.332,123.351 210.824,123.351 265.234,35.826 "/>
<polygon style="fill:#84C075;" points="216.225,123.351 158.253,216.601 192.746,216.601 250.717,123.351 "/>
<polygon style="fill:#6CAF5A;" points="203.121,216.601 145.153,309.851 179.645,309.851 237.613,216.601 "/>
<g>
	<path style="fill:#231F20;" d="M370.117,457.509c-8.438,0-16.349,2.274-23.175,6.227c-12.985-18.498-34.136-29.671-57.128-29.671   c-4.523,0-8.942,0.447-13.228,1.273c-0.188-0.407-0.375-0.815-0.572-1.216v-55.527c0-4.466-3.618-8.084-8.084-8.084   s-8.084,3.618-8.084,8.084v36.037c-5.603-4.155-12-7.167-18.828-8.875c-0.027-0.007-0.054-0.013-0.081-0.021   c-1.085-0.269-2.182-0.506-3.288-0.707c-0.33-0.061-0.658-0.127-0.99-0.182c-0.177-0.029-0.35-0.07-0.528-0.097v-86.815h23.714   v33.712c0,4.466,3.618,8.084,8.084,8.084s8.084-3.618,8.084-8.084v-33.712h74.812c2.936,0,5.64-1.592,7.067-4.156   c1.427-2.564,1.35-5.703-0.202-8.196l-50.291-80.897h30.322c2.936,0,5.64-1.592,7.067-4.156c1.427-2.564,1.35-5.703-0.202-8.196   l-50.291-80.897h25.35c2.936,0,5.64-1.592,7.067-4.156c1.427-2.564,1.35-5.702-0.202-8.196l-26.689-42.931   c-2.356-3.792-7.342-4.955-11.134-2.597c-3.792,2.357-4.955,7.342-2.597,11.134l19.01,30.579H279.75h-63.529h-25.349l57.112-91.87   l23.93,38.493c2.357,3.793,7.343,4.956,11.134,2.597c3.792-2.357,4.955-7.343,2.597-11.134L254.854,3.816   C253.379,1.443,250.783,0,247.988,0s-5.391,1.443-6.865,3.816l-71.657,115.268c-1.55,2.493-1.628,5.631-0.202,8.196   c1.426,2.565,4.13,4.156,7.067,4.156h25.348l-50.291,80.897c-1.55,2.493-1.628,5.631-0.202,8.196   c1.426,2.565,4.13,4.156,7.067,4.156h30.323l-50.289,80.897c-1.55,2.493-1.628,5.631-0.202,8.196   c1.426,2.566,4.13,4.156,7.067,4.156h74.81v86.814c-22.976,3.505-41.182,21.712-44.687,44.69h-12.428   c-4.466,0-8.084,3.618-8.084,8.084s3.618,8.084,8.084,8.084h19.901h26.987h21.713c-2.97,4.509-5.439,9.374-7.31,14.527   c-4.926-3.658-11.021-5.826-17.615-5.826c-13.523,0-24.95,9.117-28.477,21.526h-74.483c-4.466,0-8.084,3.618-8.084,8.084   s3.618,8.084,8.084,8.084h81.436h43.049h19.941h83.806h76.644c4.466,0,8.084-3.618,8.084-8.084   C416.523,478.328,395.705,457.509,370.117,457.509z M220.718,131.436h54.541l47.919,77.081h-30.322h-89.735h-30.322   L220.718,131.436z M207.614,224.685h80.747l47.919,77.081h-68.351h-39.882h-68.35L207.614,224.685z M191.716,449.438   c3.703-16.647,18.585-29.132,36.33-29.132c13.949,0,26.63,7.924,32.964,19.957c-5.314,2.405-10.297,5.474-14.896,9.176h-36.379   h-18.019V449.438z M195.793,495.832c2.454-3.252,6.352-5.357,10.73-5.357s8.276,2.105,10.73,5.357H195.793z M236.739,495.832   c2.319-15.281,11.104-28.468,23.468-36.674c0.03-0.021,0.059-0.04,0.089-0.06c3.769-2.491,7.874-4.513,12.225-5.997   c0.243-0.082,0.484-0.167,0.729-0.247c5.219-1.697,10.784-2.619,16.562-2.619c18.136,0,34.786,9.046,44.688,23.944   c-0.208,0.249-0.396,0.513-0.598,0.766c-0.35,0.438-0.7,0.875-1.035,1.326c-0.235,0.317-0.458,0.64-0.684,0.963   c-0.316,0.447-0.624,0.899-0.924,1.358c-0.18,0.277-0.36,0.553-0.535,0.833c-0.439,0.703-0.861,1.415-1.262,2.142   c-0.023,0.041-0.047,0.08-0.069,0.121c-0.465,0.847-0.898,1.714-1.31,2.592c-0.036,0.075-0.068,0.153-0.104,0.229   c-0.38,0.821-0.735,1.657-1.068,2.504c-0.026,0.066-0.052,0.132-0.078,0.197c-0.71,1.835-1.31,3.722-1.785,5.66   c-0.001,0.005-0.002,0.012-0.004,0.017c-0.221,0.901-0.412,1.814-0.579,2.736c-0.013,0.071-0.032,0.141-0.045,0.212h-76.435   h-11.248V495.832z M340.99,495.832c0.054-0.193,0.114-0.384,0.172-0.576c0.125-0.417,0.258-0.831,0.4-1.241   c0.098-0.282,0.195-0.565,0.302-0.844c0.22-0.576,0.455-1.144,0.708-1.702c0.108-0.237,0.224-0.471,0.338-0.705   c0.218-0.449,0.445-0.894,0.684-1.33c0.098-0.18,0.192-0.361,0.293-0.539c0.344-0.598,0.707-1.182,1.09-1.754   c0.083-0.125,0.17-0.248,0.257-0.372c0.397-0.573,0.806-1.136,1.24-1.68c0.017-0.023,0.035-0.045,0.052-0.068   c0.485-0.605,0.994-1.188,1.522-1.753c0.04-0.043,0.081-0.084,0.121-0.127c5.515-5.824,13.313-9.465,21.949-9.465   c13.875,0,25.597,9.393,29.141,22.154H340.99V495.832z"/>
	<path style="fill:#231F20;" d="M122.605,465.606h12.935c4.466,0,8.084-3.618,8.084-8.084s-3.618-8.084-8.084-8.084h-12.935   c-4.466,0-8.084,3.618-8.084,8.084S118.14,465.606,122.605,465.606z"/>
</g>
<g>
</g>
<g>
</g>
<g>
</g>
<g>
</g>
<g>
</g>
<g>
</g>
<g>
</g>
<g>
</g>
<g>
</g>
<g>
</g>
<g>
</g>
<g>
</g>
<g>
</g>
<g>
</g>
<g>
</g>
</svg>
