<?xml version="1.0" encoding="UTF-8" standalone="no"?>
<!-- Generator: Adobe Illustrator 19.0.0, SVG Export Plug-In . SVG Version: 6.00 Build 0)  -->

<svg
   version="1.1"
   id="Layer_1"
   x="0px"
   y="0px"
   viewBox="0 0 512 512"
   style="enable-background:new 0 0 512 512;"
   xml:space="preserve"
   sodipodi:docname="icon-bed.svg"
   inkscape:version="1.2.1 (9c6d41e410, 2022-07-14)"
   xmlns:inkscape="http://www.inkscape.org/namespaces/inkscape"
   xmlns:sodipodi="http://sodipodi.sourceforge.net/DTD/sodipodi-0.dtd"
   xmlns="http://www.w3.org/2000/svg"
   xmlns:svg="http://www.w3.org/2000/svg"><defs
   id="defs30508" /><sodipodi:namedview
   id="namedview30506"
   pagecolor="#ffffff"
   bordercolor="#000000"
   borderopacity="0.25"
   inkscape:showpageshadow="2"
   inkscape:pageopacity="0.0"
   inkscape:pagecheckerboard="0"
   inkscape:deskcolor="#d1d1d1"
   showgrid="false"
   inkscape:zoom="0.25073242"
   inkscape:cx="-1427.8169"
   inkscape:cy="1332.0974"
   inkscape:window-width="2560"
   inkscape:window-height="1387"
   inkscape:window-x="-8"
   inkscape:window-y="-8"
   inkscape:window-maximized="1"
   inkscape:current-layer="Layer_1" />
<g
   id="g30437">
	<rect
   x="56.672"
   y="447.511"
   style="fill:#9B672F;"
   width="65.14"
   height="41.69"
   id="rect30433" />
	<rect
   x="390.188"
   y="447.511"
   style="fill:#9B672F;"
   width="65.14"
   height="41.69"
   id="rect30435" />
</g>
<path
   style="fill:#b27b39;stroke-width:0.73786"
   d="M 476.173,298.271 V 171.96032 c 0,-13.0725 -19.465,-23.66998 -43.476,-23.66998 H 79.303 c -24.011,0 -43.476,10.59748 -43.476,23.66998 v 126.31014 h 440.346 z"
   id="path30439" />
<path
   style="fill:#9b672f;stroke-width:0.760467"
   d="m 102.753,155.34175 h -23.45 c -24.011,0 -43.476,11.2568 -43.476,25.1426 V 337.119 h 23.45 V 180.48377 c 0,-13.88522 19.464,-25.14202 43.476,-25.14202 z"
   id="path30441" />
<path
   style="fill:#EAE2DC;"
   d="M464.371,296.382H47.628c-20.909,0-37.858,16.949-37.858,37.858v113.267h492.458V334.24  C502.229,313.331,485.28,296.382,464.371,296.382z"
   id="path30443" />
<path
   style="fill:#D6D0CC;"
   d="M106.251,296.382H47.628c-20.909,0-37.858,16.949-37.858,37.858v113.267h58.623V334.24  C68.393,313.331,85.342,296.382,106.251,296.382z"
   id="path30445" />
<rect
   x="9.775"
   y="384.977"
   style="fill:#B27B39;"
   width="492.458"
   height="62.534"
   id="rect30447" />
<rect
   x="9.775"
   y="384.977"
   style="fill:#9B672F;"
   width="58.613"
   height="62.534"
   id="rect30449" />

<g
   id="g30457">
	<path
   style="fill:#EAE2DC;"
   d="M182.078,213.002h-75.613c-23.01,0-41.664,18.653-41.664,41.664v0.051   c0,23.01,18.653,41.664,41.664,41.664h75.613c23.01,0,41.664-18.653,41.664-41.664v-0.051   C223.743,231.656,205.089,213.002,182.078,213.002z"
   id="path30453" />
	<path
   style="fill:#EAE2DC;"
   d="M405.534,213.002h-75.613c-23.01,0-41.664,18.653-41.664,41.664v0.051   c0,23.01,18.653,41.664,41.664,41.664h75.613c23.01,0,41.664-18.653,41.664-41.664v-0.051   C447.197,231.656,428.544,213.002,405.534,213.002z"
   id="path30455" />
</g>
<g
   id="g30463">
	<path
   style="fill:#D6D0CC;"
   d="M147.373,296.38h-40.908c-23.02,0-41.664-18.656-41.664-41.664v-0.052   c0-23.007,18.643-41.664,41.664-41.664h40.908c-23.007,0-41.664,18.656-41.664,41.664v0.052   C105.709,277.724,124.365,296.38,147.373,296.38z"
   id="path30459" />
	<path
   style="fill:#D6D0CC;"
   d="M370.829,296.38h-40.908c-23.02,0-41.677-18.656-41.677-41.664v-0.052   c0-23.007,18.656-41.664,41.677-41.664h40.908c-23.007,0-41.664,18.656-41.664,41.664v0.052   C329.165,277.724,347.821,296.38,370.829,296.38z"
   id="path30461" />
</g>

<path
   d="m 464.371,286.616 h -18.536 c 6.961,-8.782 11.134,-19.877 11.134,-31.945 0,-28.362 -23.074,-51.434 -51.435,-51.434 h -75.613 c -28.362,0 -51.435,23.074 -51.435,51.487 0,12.04 4.17,23.119 11.127,31.893 h -67.232 c 6.961,-8.782 11.134,-19.877 11.134,-31.945 0,-5.396 -4.375,-9.745 -9.771,-9.745 -5.396,0 -9.771,4.4 -9.771,9.797 0,17.586 -14.307,31.893 -31.893,31.893 h -75.614 c -17.586,0 -31.893,-14.307 -31.893,-31.945 0,-17.586 14.307,-31.893 31.893,-31.893 h 75.613 c 8.519,0 16.529,3.317 22.551,9.341 3.816,3.816 10.003,3.816 13.817,0 3.816,-3.816 3.816,-10.003 0,-13.817 -9.714,-9.716 -22.631,-15.066 -36.369,-15.066 h -75.613 c -28.362,0 -51.435,23.074 -51.435,51.487 0,12.04 4.17,23.119 11.127,31.893 h -18.53 c -0.681,0 -1.356,0.023 -2.031,0.052 V 129.47 c 0,-5.396 0.111855,37.09171 -5.284145,37.09171 -5.396,0 -14.780525,8.36337 -14.756394,13.75931 L 26.054,291.803 C 10.609,299.685 0,315.744 0,334.243 v 113.268 c 0,5.396 4.375,9.771 9.771,9.771 h 37.13 v 31.919 c 0,5.396 4.375,9.771 9.771,9.771 h 65.14 c 5.396,0 9.771,-4.375 9.771,-9.771 v -7.341 c 0,-5.396 -4.375,-9.771 -9.771,-9.771 -4.558,0 -8.387,3.12 -9.466,7.341 H 66.443 v -22.148 h 313.975 v 31.919 c 0,5.396 4.375,9.771 9.771,9.771 h 65.14 c 5.396,0 9.771,-4.375 9.771,-9.771 v -31.919 h 37.13 c 5.396,0 9.771,-4.375 9.771,-9.771 V 334.245 C 512,307.982 490.634,286.616 464.371,286.616 Z M 298.028,254.671 c 0,-17.586 14.307,-31.893 31.893,-31.893 h 75.613 c 17.586,0 31.893,14.307 31.893,31.945 0,17.586 -14.307,31.893 -31.893,31.893 h -75.613 c -17.585,0 -31.893,-14.308 -31.893,-31.945 z M 445.557,479.43 h -45.598 v -22.148 h 45.598 z M 19.542,437.74 V 394.748 H 374.74 c 5.396,0 9.771,-4.375 9.771,-9.771 0,-5.396 -4.375,-9.771 -9.771,-9.771 H 19.542 v -40.961 c 0,-15.488 12.599,-28.087 28.087,-28.087 h 416.743 c 15.488,0 28.087,12.599 28.087,28.087 v 40.961 H 417.73 c -5.396,0 -9.771,4.375 -9.771,9.771 0,5.396 4.375,9.771 9.771,9.771 h 74.727 v 42.992 z"
   id="path30467"
   sodipodi:nodetypes="scssssccsssssssscccssscscssscssscssssssccccsssscsscsssssssscccccccssscsssscsssccc" />
<path
   d="m 35.827,224.066 c 5.396,0 9.771,-4.375 9.771,-9.771 v -28.02 c 0,-18.584 15.119,-33.705 33.705,-33.705 h 353.395 c 18.586,0 33.705,15.12 33.705,33.705 v 110.92053 c 0,5.396 5.87062,6.77977 11.26662,6.77977 5.396,0 8.27538,0.61039 8.27538,-4.78561 V 186.275 c 0,-29.361 -23.886,-53.247 -53.247,-53.247 H 79.303 c -29.361,0 -53.247,23.886 -53.247,53.247 v 28.021 c 0,5.395 4.375,9.77 9.771,9.77 z"
   id="path30469"
   sodipodi:nodetypes="sssssssssssssss" />


<g
   id="g30475">
</g>
<g
   id="g30477">
</g>
<g
   id="g30479">
</g>
<g
   id="g30481">
</g>
<g
   id="g30483">
</g>
<g
   id="g30485">
</g>
<g
   id="g30487">
</g>
<g
   id="g30489">
</g>
<g
   id="g30491">
</g>
<g
   id="g30493">
</g>
<g
   id="g30495">
</g>
<g
   id="g30497">
</g>
<g
   id="g30499">
</g>
<g
   id="g30501">
</g>
<g
   id="g30503">
</g>
</svg>
