<?xml version="1.0" encoding="utf-8"?>
<svg version="1.1" x="0px" y="0px" viewBox="0 0 64 64" enable-background="new 0 0 64 64" xmlns="http://www.w3.org/2000/svg">
  <g id="_x35_0_fairy_x2C__wing_x2C__fairy_x2C__tale_x2C__legend_x2C__fantasy"/>
  <g id="_x34_9_gingerbread_x2C__house_x2C__fairy_x2C__tale_x2C__legend_x2C__fantasy"/>
  <g id="_x34_8_torch_x2C__fire_x2C__fairy_x2C__tale_x2C__legend_x2C__fantasy"/>
  <g id="_x34_7_armor_x2C__knight_x2C__fairy_x2C__tale_x2C__legend_x2C__fantasy"/>
  <g id="_x34_6_jester_x2C__joker_x2C__joke_x2C__fairy_x2C__tale_x2C__legend_x2C__fantasy"/>
  <g id="_x34_5_shield_x2C__knight_x2C__crown_x2C__fairy_x2C__tale_x2C__legend_x2C__fantasy"/>
  <g id="_x34_4_spear_x2C__knight_x2C__weapon_x2C__duel_x2C__war_x2C__fairy_x2C__tale"/>
  <g id="_x34_3_coach_x2C__pumpkin_x2C__magic_x2C__fairy_x2C__tale_x2C__legend_x2C__fantasy"/>
  <g id="_x34_2_sword_x2C__magic_x2C__fairy_x2C__tale_x2C__legend_x2C__fantasy"/>
  <g id="_x34_1_dagger_x2C__blood_x2C__weapon_x2C__fairy_x2C__tale_x2C__legend_x2C__fantasy"/>
  <g id="_x34_0_ax_x2C__weapon_x2C__war_x2C__fairy_x2C__tale_x2C__legend_x2C__fantasy"/>
  <g id="_x33_9_ax_x2C__weapon_x2C__fairy_x2C__tale_x2C__legend_x2C__fantasy"/>
  <g id="_x33_8_standard_x2C__flag_x2C__crown_x2C__fairy_x2C__tale_x2C__legend_x2C__fantasy"/>
  <g id="_x33_7_trumpet_x2C__flag_x2C__crown_x2C__fairy_x2C__tale_x2C__legend_x2C__fantasy"/>
  <g id="_x33_6_flag_x2C__crown_x2C__fairy_x2C__tale_x2C__legend_x2C__fantasy"/>
  <g id="_x33_5_bow_x2C__arrow_x2C__weapon_x2C__fairy_x2C__tale_x2C__legend_x2C__fantasy"/>
  <g id="_x33_4_crossbow_x2C__arrow_x2C__weapon_x2C__fairy_x2C__tale_x2C__legend_x2C__fantasy"/>
  <g id="_x33_3_helmet_x2C__knight_x2C__fairy_x2C__tale_x2C__legend_x2C__fantasy"/>
  <g id="_x33_2_palace_x2C__castle_x2C__fairy_x2C__tale_x2C__legend_x2C__fantasy"/>
  <g id="_x33_1_stained_x2C__glass_x2C__window_x2C__sword_x2C__fairy_x2C__tale_x2C__legend"/>
  <g id="_x33_0_little_x2C__red_x2C__riding_x2C__hood_x2C__girl_x2C__fairy_x2C__tale"/>
  <g id="_x32_9_medusa_x2C__snake_x2C__hair_x2C__fairy_x2C__tale_x2C__legend_x2C__fantasy"/>
  <g id="_x32_8_tower_x2C__hair_x2C__fairy_x2C__tale_x2C__legend_x2C__fantasy"/>
  <g id="_x32_7_mirror_x2C__magic_x2C__fairy_x2C__tale_x2C__legend_x2C__fantasy"/>
  <g id="_x32_6_ring_x2C__magic_x2C__diamond_x2C__fairy_x2C__tale_x2C__legend_x2C__fantasy"/>
  <g id="_x32_5_sword_x2C__stone_x2C__magic_x2C__fairy_x2C__tale_x2C__legend_x2C__fantasy"/>
  <g id="_x32_4_wizard_x2C__magician_x2C__staff_x2C__fairy_x2C__tale_x2C__legend_x2C__fantasy"/>
  <g id="_x32_3_witch_x2C__cat_x2C__potion_x2C__fairy_x2C__tale_x2C__legend_x2C__fantasy"/>
  <g id="_x32_2_vampire_x2C__fangs_x2C__fairy_x2C__tale_x2C__legend_x2C__fantasy"/>
  <g id="_x32_1_leprechaun_x2C__gold_x2C__coin_x2C__fairy_x2C__tale_x2C__legend_x2C__fantasy"/>
  <g id="_x32_0_rainbow_x2C__bird_x2C__sun_x2C__fairy_x2C__tale_x2C__legend_x2C__fantasy"/>
  <g id="_x31_9_satyr_x2C__horn_x2C__fairy_x2C__tale_x2C__legend_x2C__fantasy"/>
  <g id="_x31_8_lamp_x2C__jinn_x2C__magic_x2C__fairy_x2C__tale_x2C__legend_x2C__fantasy"/>
  <g id="_x31_7_frog_x2C__princess_x2C__crown_x2C__fairy_x2C__tale_x2C__legend_x2C__fantasy"/>
  <g id="_x31_6_royal_x2C__decree_x2C__scroll_x2C__fairy_x2C__tale_x2C__legend_x2C__fantasy"/>
  <g id="_x31_5_cup_x2C__drink_x2C__gold_x2C__fairy_x2C__tale_x2C__legend_x2C__fantasy"/>
  <g id="_x31_4_shield_x2C__sword_x2C__fairy_x2C__tale_x2C__legend_x2C__fantasy"/>
  <g id="_x31_3_potion_x2C__bottle_x2C__magic_x2C__fairy_x2C__tale_x2C__legend_x2C__fantasy"/>
  <g id="_x31_2_mermaid_x2C__fish_x2C__fairy_x2C__tale_x2C__legend_x2C__fantasy"/>
  <g id="_x31_1_knight_x2C__helmet_x2C__fairy_x2C__tale_x2C__legend_x2C__fantasy"/>
  <g id="_x31_0_princess_x2C__crown_x2C__fairy_x2C__tale_x2C__legend_x2C__fantasy"/>
  <g id="_x39__queen_x2C__crown_x2C__fairy_x2C__tale_x2C__legend_x2C__fantasy"/>
  <g id="_x38__elf_x2C__flag_x2C__fairy_x2C__tale_x2C__legend_x2C__fantasy"/>
  <g id="_x37__castle_x2C__flag_x2C__fairy_x2C__tale_x2C__legend_x2C__fantasy"/>
  <g id="_x36__unicorn_x2C__horn_x2C__horse_x2C__fairy_x2C__tale_x2C__legend_x2C__fantasy"/>
  <g id="_x35__book_x2C__magic_x2C__fairy_x2C__tale_x2C__legend_x2C__fantasy"/>
  <g id="_x34__dragon_x2C__fire_x2C__fairy_x2C__tale_x2C__legend_x2C__fantasy"/>
  <g id="_x33__sword_x2C__duel_x2C__war_x2C__fairy_x2C__tale_x2C__legend_x2C__fantasy">
    <g>
      <g>
        <path fill="#FFCE54" d="M62.117,56.371c1.178,1.18,1.18,3.079,0,4.25c-1.17,1.17-3.07,1.17-4.24,0 c-0.631-0.63-0.92-1.47-0.871-2.29c0.041-0.71,0.33-1.41,0.871-1.96c0.539-0.54,1.24-0.841,1.959-0.87 C60.656,55.451,61.486,55.741,62.117,56.371z"/>
      </g>
      <g>
        <path fill="#ED5565" d="M57.047,52.721l-2.82-2.83l-3.83-3.829l-2.83,2.83l2.41,2.409l2.83,2.83l4.199,4.2 c0.041-0.71,0.33-1.41,0.871-1.96c0.539-0.54,1.24-0.841,1.959-0.87L57.047,52.721z"/>
      </g>
      <g>
        <path fill="#FFCE54" d="M49.816,40.991c-0.539-1.11-0.34-2.49,0.58-3.421c1.17-1.17,3.07-1.169,4.24,0.011 c1.17,1.17,1.17,3.07,0,4.239l-4.24,4.241l-2.83,2.83l-4.24,4.239c-1.18,1.17-3.08,1.17-4.25,0s-1.17-3.07,0-4.24 c0.92-0.92,2.301-1.12,3.42-0.579v-0.011l1.531-1.53l4.25-4.239l1.529-1.541L49.816,40.991z"/>
      </g>
      <g>
        <polygon fill="#CCD1D9" points="36.246,30.491 48.268,42.521 48.277,42.531 44.027,46.771 31.996,34.741 34.127,32.611 &#9;&#9;&#9;"/>
      </g>
      <g>
        <polygon fill="#CCD1D9" points="27.756,30.501 5.416,8.151 3.996,2.501 9.656,3.911 31.996,26.251 29.877,28.372 &#9;&#9;&#9;"/>
      </g>
      <g>
        <path fill="#FFCE54" d="M6.986,58.331c0.051,0.82-0.24,1.66-0.869,2.29c-1.17,1.17-3.07,1.17-4.24,0 c-1.17-1.171-1.17-3.07,0-4.25c0.629-0.631,1.471-0.921,2.289-0.87c0.711,0.04,1.41,0.33,1.951,0.87 C6.656,56.921,6.947,57.621,6.986,58.331z"/>
      </g>
      <g>
        <path fill="#ED5565" d="M13.607,46.062l-3.83,3.83l-2.83,2.829l-2.781,2.78c0.711,0.04,1.41,0.33,1.951,0.87 c0.539,0.55,0.83,1.25,0.869,1.96h0.01l4.201-4.189l2.83-2.83l2.41-2.421L13.607,46.062z"/>
      </g>
      <g>
        <path fill="#FFCE54" d="M13.607,46.062l-4.24-4.24c-1.17-1.171-1.17-3.07,0-4.24c1.17-1.18,3.07-1.18,4.238-0.011 c0.922,0.931,1.121,2.311,0.582,3.421l1.539,1.53l4.24,4.249l1.539,1.53c1.121-0.53,2.49-0.33,3.41,0.59 c1.17,1.17,1.17,3.07,0,4.24s-3.068,1.17-4.24,0l-4.238-4.24L13.607,46.062z"/>
      </g>
      <g>
        <polygon fill="#E6E9ED" points="27.756,30.501 29.877,28.372 31.996,26.251 54.348,3.911 59.996,2.501 58.586,8.151&#10;&#9;&#9;&#9;&#9;36.246,30.491 34.127,32.611 31.996,34.741 19.967,46.771 15.727,42.521 &#9;&#9;&#9;"/>
      </g>
    </g>
    <g>
      <g>
        <g>
          <path d="M58.587,9.156c-0.08,0-0.162-0.009-0.243-0.03c-0.536-0.134-0.862-0.677-0.728-1.213l1.414-5.656 c0.134-0.535,0.675-0.865,1.212-0.728c0.536,0.134,0.862,0.677,0.728,1.213l-1.414,5.656 C59.442,8.853,59.035,9.156,58.587,9.156z"/>
        </g>
        <g>
          <path d="M54.343,4.914c-0.448,0-0.855-0.303-0.969-0.757c-0.135-0.536,0.191-1.079,0.728-1.213l5.656-1.414 c0.534-0.136,1.078,0.192,1.212,0.728c0.135,0.536-0.191,1.079-0.728,1.213l-5.656,1.414 C54.505,4.905,54.423,4.914,54.343,4.914z"/>
        </g>
        <g>
          <path d="M19.971,47.771c-0.256,0-0.512-0.098-0.707-0.293c-0.391-0.391-0.391-1.023,0-1.414L57.879,7.449 c0.391-0.391,1.023-0.391,1.414,0s0.391,1.023,0,1.414L20.678,47.479C20.482,47.674,20.227,47.771,19.971,47.771z"/>
        </g>
        <g>
          <path d="M15.729,43.529c-0.256,0-0.512-0.098-0.707-0.293c-0.391-0.391-0.391-1.023,0-1.414L53.637,3.207 c0.391-0.391,1.023-0.391,1.414,0s0.391,1.023,0,1.414L16.436,43.236C16.24,43.432,15.984,43.529,15.729,43.529z"/>
        </g>
        <g>
          <path d="M21.506,49.307c-0.256,0-0.512-0.098-0.707-0.293l-7.316-7.316c-0.391-0.391-0.391-1.023,0-1.414s1.023-0.391,1.414,0 l7.316,7.316c0.391,0.391,0.391,1.023,0,1.414C22.018,49.209,21.762,49.307,21.506,49.307z"/>
        </g>
        <g>
          <path d="M20.676,54.135c-0.256,0-0.512-0.098-0.707-0.293L8.656,42.529c-0.391-0.391-0.391-1.023,0-1.414s1.023-0.391,1.414,0 l11.313,11.313c0.391,0.391,0.391,1.023,0,1.414C21.188,54.037,20.932,54.135,20.676,54.135z"/>
        </g>
        <g>
          <path d="M22.8,55.014c-1.069,0-2.074-0.416-2.83-1.171c-0.392-0.391-0.392-1.023-0.002-1.414 c0.391-0.393,1.025-0.391,1.414-0.002c0.757,0.757,2.075,0.757,2.83,0.002c0.78-0.78,0.779-2.049,0-2.83 c-0.78-0.778-2.049-0.777-2.827,0.001c-0.391,0.391-1.023,0.391-1.414,0s-0.391-1.023,0-1.414 c1.559-1.559,4.097-1.558,5.655-0.001c1.56,1.562,1.56,4.1,0.001,5.657C24.873,54.598,23.868,55.014,22.8,55.014z"/>
        </g>
        <g>
          <path d="M13.607,42.822c-0.256,0-0.512-0.098-0.706-0.292c-0.392-0.391-0.392-1.023-0.002-1.414 c0.779-0.781,0.779-2.051,0-2.832c-0.78-0.778-2.05-0.776-2.828,0.002c-0.78,0.78-0.779,2.049,0,2.83 c0.39,0.391,0.39,1.023-0.002,1.414c-0.389,0.389-1.023,0.391-1.414-0.002c-1.558-1.56-1.558-4.098,0.001-5.655 c1.557-1.561,4.095-1.56,5.657-0.003c1.559,1.562,1.559,4.099,0.002,5.658C14.12,42.725,13.863,42.822,13.607,42.822z"/>
        </g>
        <g>
          <path d="M4.166,56.506c-0.256,0-0.512-0.098-0.707-0.293c-0.391-0.391-0.391-1.023,0-1.414l9.439-9.439 c0.391-0.391,1.023-0.391,1.414,0s0.391,1.023,0,1.414l-9.439,9.439C4.678,56.408,4.422,56.506,4.166,56.506z"/>
        </g>
        <g>
          <path d="M6.992,59.336c-0.256,0-0.512-0.098-0.707-0.293c-0.391-0.391-0.391-1.023,0-1.414l9.441-9.441 c0.391-0.391,1.023-0.391,1.414,0s0.391,1.023,0,1.414l-9.441,9.441C7.504,59.238,7.248,59.336,6.992,59.336z"/>
        </g>
        <g>
          <path d="M3.999,62.5c-1.068,0-2.073-0.416-2.828-1.173C0.416,60.574,0,59.569,0,58.501c0-1.069,0.416-2.073,1.172-2.829 c1.51-1.51,4.146-1.509,5.655-0.001c1.56,1.562,1.56,4.1,0.001,5.657C6.072,62.084,5.068,62.5,3.999,62.5z M3.999,56.502 c-0.534,0-1.036,0.207-1.413,0.584C2.208,57.464,2,57.967,2,58.501s0.208,1.035,0.585,1.412 c0.758,0.758,2.073,0.757,2.829,0.001c0.779-0.779,0.778-2.048-0.001-2.829C5.036,56.709,4.534,56.502,3.999,56.502z"/>
        </g>
        <g/>
      </g>
      <g>
        <g>
          <path d="M5.413,9.156c-0.448,0-0.855-0.303-0.969-0.757L3.03,2.743C2.896,2.207,3.222,1.664,3.758,1.53 C4.29,1.394,4.836,1.722,4.97,2.257l1.414,5.656C6.519,8.45,6.192,8.993,5.656,9.126C5.575,9.147,5.493,9.156,5.413,9.156z"/>
        </g>
        <g>
          <path d="M9.657,4.914c-0.08,0-0.162-0.009-0.243-0.03L3.758,3.47C3.222,3.336,2.896,2.793,3.03,2.257 C3.163,1.722,3.707,1.393,4.242,1.53l5.656,1.414c0.536,0.134,0.862,0.677,0.728,1.213C10.513,4.611,10.105,4.914,9.657,4.914z"/>
        </g>
        <g>
          <path d="M44.029,47.771c-0.256,0-0.512-0.098-0.707-0.293L31.293,35.449c-0.391-0.391-0.391-1.023,0-1.414s1.023-0.391,1.414,0 l12.029,12.029c0.391,0.391,0.391,1.023,0,1.414C44.541,47.674,44.285,47.771,44.029,47.771z"/>
        </g>
        <g>
          <path d="M48.271,43.529c-0.256,0-0.512-0.098-0.707-0.293l-12.028-12.03c-0.391-0.391-0.391-1.024,0-1.414 c0.391-0.391,1.023-0.391,1.414,0l12.028,12.03c0.391,0.391,0.391,1.023,0,1.414C48.783,43.432,48.527,43.529,48.271,43.529z"/>
        </g>
        <g>
          <path d="M42.494,49.307c-0.256,0-0.512-0.098-0.707-0.293c-0.391-0.391-0.391-1.023,0-1.414l7.316-7.316 c0.391-0.391,1.023-0.391,1.414,0s0.391,1.023,0,1.414l-7.316,7.316C43.006,49.209,42.75,49.307,42.494,49.307z"/>
        </g>
        <g>
          <path d="M43.324,54.135c-0.256,0-0.512-0.098-0.707-0.293c-0.391-0.391-0.391-1.023,0-1.414L53.93,41.115 c0.391-0.391,1.023-0.391,1.414,0s0.391,1.023,0,1.414L44.031,53.842C43.836,54.037,43.58,54.135,43.324,54.135z"/>
        </g>
        <g>
          <path d="M41.2,55.014c-1.068,0-2.073-0.416-2.828-1.173c-1.558-1.557-1.558-4.095,0-5.654c1.563-1.561,4.099-1.56,5.657-0.001 c0.391,0.391,0.391,1.023,0,1.414s-1.023,0.391-1.414,0c-0.78-0.78-2.049-0.777-2.829,0.001 c-0.777,0.779-0.778,2.048,0.001,2.827c0.756,0.756,2.073,0.756,2.831-0.001c0.389-0.389,1.023-0.391,1.414,0.002 c0.39,0.391,0.39,1.023-0.002,1.414C43.274,54.598,42.27,55.014,41.2,55.014z"/>
        </g>
        <g>
          <path d="M54.637,42.822c-0.256,0-0.512-0.098-0.706-0.292c-0.392-0.391-0.392-1.023-0.002-1.414 c0.779-0.781,0.78-2.05,0.001-2.829c-0.779-0.781-2.05-0.78-2.831-0.001c-0.777,0.779-0.777,2.049,0.002,2.83 c0.39,0.391,0.39,1.023-0.002,1.414c-0.389,0.389-1.023,0.391-1.414-0.002c-1.557-1.56-1.557-4.097,0-5.656 c1.566-1.559,4.104-1.557,5.66,0.002c1.558,1.557,1.558,4.095,0,5.654C55.149,42.725,54.893,42.822,54.637,42.822z"/>
        </g>
        <g>
          <path d="M59.834,56.506c-0.256,0-0.512-0.098-0.707-0.293l-9.439-9.439c-0.391-0.391-0.391-1.023,0-1.414s1.023-0.391,1.414,0 l9.439,9.439c0.391,0.391,0.391,1.023,0,1.414C60.346,56.408,60.09,56.506,59.834,56.506z"/>
        </g>
        <g>
          <path d="M57.008,59.336c-0.256,0-0.512-0.098-0.707-0.293l-9.441-9.441c-0.391-0.391-0.391-1.023,0-1.414s1.023-0.391,1.414,0 l9.441,9.441c0.391,0.391,0.391,1.023,0,1.414C57.52,59.238,57.264,59.336,57.008,59.336z"/>
        </g>
        <g>
          <path d="M60.001,62.5c-1.069,0-2.073-0.416-2.829-1.172c-1.559-1.558-1.559-4.096-0.001-5.655 c1.514-1.512,4.147-1.511,5.657-0.001C63.584,56.428,64,57.432,64,58.501c0,1.068-0.416,2.073-1.173,2.828 C62.074,62.084,61.069,62.5,60.001,62.5z M60.001,56.502c-0.535,0-1.037,0.207-1.416,0.585 c-0.777,0.779-0.778,2.048,0.001,2.827c0.756,0.756,2.073,0.755,2.827,0.001C61.792,59.536,62,59.035,62,58.501 s-0.208-1.037-0.586-1.415C61.037,56.709,60.535,56.502,60.001,56.502z"/>
        </g>
        <g/>
        <g>
          <path d="M27.758,31.5c-0.256,0-0.512-0.098-0.707-0.293L4.707,8.863c-0.391-0.391-0.391-1.023,0-1.414s1.023-0.391,1.414,0 l22.344,22.344c0.391,0.391,0.391,1.023,0,1.414C28.27,31.402,28.014,31.5,27.758,31.5z"/>
        </g>
        <g/>
        <g>
          <path d="M32,27.258c-0.256,0-0.512-0.098-0.707-0.293L8.949,4.621c-0.391-0.391-0.391-1.023,0-1.414s1.023-0.391,1.414,0 l22.344,22.344c0.391,0.391,0.391,1.023,0,1.414C32.512,27.16,32.256,27.258,32,27.258z"/>
        </g>
      </g>
    </g>
  </g>
  <g id="_x32__crown_x2C__king_x2C__fairy_x2C__tale_x2C__legend_x2C__fantasy"/>
  <g id="_x31__king_x2C__crown_x2C__fairy_x2C__tale_x2C__legend_x2C__fantasy"/>
</svg>