<?xml version="1.0" encoding="utf-8"?>
<!-- Generator: Adobe Illustrator 24.3.0, SVG Export Plug-In . SVG Version: 6.00 Build 0)  -->
<svg version="1.1" id="Layer_1" xmlns="http://www.w3.org/2000/svg" xmlns:xlink="http://www.w3.org/1999/xlink" x="0px" y="0px"
	 viewBox="0 0 300 300" enable-background="new 0 0 300 300" xml:space="preserve">
<g>
	<g>
		<g>
			<path fill="#7FD3B9" d="M179.591,88.13v-26.9c0,0,0-26.901,16.14-37.661c0,0-53.801,10.76-96.842,0c0,0,16.14,16.14,16.14,37.661
				v26.9c-38.26,19.083-64.561,71.783-64.561,112.982c0,51.997,41.874,75.321,96.842,75.321c54.973,0,102.222-23.325,102.222-75.321
				C249.532,159.706,219.558,106.99,179.591,88.13z"/>
		</g>
		<g>
			<path fill="#BBEAD9" d="M66.608,201.113c0-41.199,26.302-93.9,64.561-112.982v-26.9c0-15.67-8.538-28.453-13.193-34.264
				c-6.457-0.754-12.883-1.846-19.088-3.396c0,0,16.14,16.14,16.14,37.661v26.9c-38.26,19.083-64.561,71.783-64.561,112.982
				c0,51.997,41.874,75.321,96.842,75.321c2.727,0,5.412-0.102,8.096-0.218C104.463,274.007,66.608,250.532,66.608,201.113z"/>
		</g>
		<g>
			<rect x="115.029" y="66.61" fill="#FFDA88" width="64.561" height="21.52"/>
		</g>
		<g>
			<rect x="115.029" y="66.61" fill="#FFE2A9" width="16.14" height="21.52"/>
		</g>
		<g>
			<path fill="#FFDA88" d="M179.591,125.791h-30.079h-29.102l-21.52,21.52c0,84.371,50.622,102.222,50.622,102.222
				s51.6-17.851,51.6-102.222L179.591,125.791z"/>
		</g>
		<g>
			<path fill="#7FD3B9" d="M170.937,187.337c-1.45-2.561-3.252-4.561-5.391-6.029c-2.149-1.445-5.338-3.071-9.525-4.849
				c-5.747-2.306-8.595-5.055-8.595-8.21c0-1.6,0.546-2.976,1.644-4.145c1.109-1.13,2.433-1.721,3.962-1.721
				c1.991,0,5.259,1.34,9.778,4.011l4.592-10.201c-2.774-4.014-9.331-6.56-14.711-6.174v-4.581c0-2.38-0.158-4.311-5.38-4.311
				c-5.223,0-5.38,1.931-5.38,4.311v5.283c0,0-2.611,0.883-5.863,4.266c-3.563,3.696-4.261,9.93-4.261,14.201
				c0,8.569,7.13,12.263,8.832,13.553c1.681,1.287,4.45,2.79,7.812,4.243c6.909,2.955,10.103,5.291,10.103,8.643
				c0,1.613-0.746,3.168-2.269,4.645c-1.535,1.479-3.116,2.102-4.776,2.227c-4.676,0.326-8.538-2.961-13.929-6.928l-7.235,10.132
				c4.928,5.832,11.585,8.469,11.585,8.596v4.303c0,2.39,0.83,4.311,5.38,4.311c4.287,0,5.38-1.92,5.38-4.311V214.3
				c0-0.055,7.65-0.804,11.706-4.298c3.993-3.454,7.823-8.798,7.823-14.293C172.219,192.698,172.393,189.924,170.937,187.337z"/>
		</g>
		<g>
			<path fill="#FFDA88" d="M79.596,50.47c2.102,2.101,2.102,5.506,0,7.608l0,0c-2.102,2.104-5.507,2.102-7.608,0L64.38,50.47
				c-2.102-2.101-2.102-5.506,0-7.608l0,0c2.102-2.104,5.507-2.101,7.608,0L79.596,50.47z"/>
		</g>
		<g>
			<path fill="#FFDA88" d="M71.988,82.75c0,2.971-2.407,5.38-5.38,5.38h-10.76c-2.974,0-5.38-2.409-5.38-5.38l0,0
				c0-2.971,2.407-5.38,5.38-5.38h10.76C69.582,77.37,71.988,79.779,71.988,82.75L71.988,82.75z"/>
		</g>
		<g>
			<path fill="#FFDA88" d="M208.068,50.47c-2.102,2.101-2.102,5.506,0,7.608l0,0c2.101,2.104,5.506,2.102,7.608,0l7.608-7.608
				c2.102-2.101,2.102-5.506,0-7.608l0,0c-2.101-2.104-5.506-2.101-7.608,0L208.068,50.47z"/>
		</g>
		<g>
			<path fill="#FFDA88" d="M238.772,82.75c0-2.971-2.407-5.38-5.38-5.38h-10.76c-2.974,0-5.38,2.409-5.38,5.38l0,0
				c0,2.971,2.406,5.38,5.38,5.38h10.76C236.365,88.13,238.772,85.721,238.772,82.75L238.772,82.75z"/>
		</g>
	</g>
	<g>
		<g>
			<path fill="#161616" d="M179.591,93.51h-64.561c-2.974,0-5.38-2.409-5.38-5.38V66.61c0-2.971,2.406-5.38,5.38-5.38h64.561
				c2.974,0,5.38,2.409,5.38,5.38v21.52C184.971,91.101,182.564,93.51,179.591,93.51z M120.409,82.75h53.801V71.99h-53.801V82.75z"
				/>
		</g>
		<g>
			<path fill="#161616" d="M170.937,187.337c-1.45-2.564-3.252-4.561-5.391-6.032c-2.149-1.44-5.338-3.069-9.525-4.844
				c-5.747-2.312-8.595-5.055-8.595-8.212c0-1.602,0.546-2.979,1.644-4.145c1.109-1.13,2.433-1.721,3.962-1.721
				c1.991,0,5.259,1.342,9.778,4.011l4.592-10.201c-2.774-4.014-9.331-6.56-14.711-6.174v-4.581c0-2.38-0.158-4.311-5.38-4.311
				c-5.223,0-5.38,1.931-5.38,4.311v5.283c0,0-2.611,0.883-5.863,4.266c-3.563,3.696-4.261,9.93-4.261,14.201
				c0,8.569,7.13,12.263,8.832,13.555c1.681,1.282,4.45,2.785,7.812,4.24c6.909,2.958,10.103,5.291,10.103,8.643
				c0,1.613-0.746,3.168-2.269,4.645c-1.535,1.481-3.116,2.102-4.776,2.227c-4.676,0.326-8.538-2.963-13.929-6.925l-7.235,10.13
				c4.928,5.832,11.585,8.469,11.585,8.596v4.303c0,2.39,0.83,4.313,5.38,4.313c4.287,0,5.38-1.923,5.38-4.313V214.3
				c0-0.053,7.65-0.804,11.706-4.298c3.993-3.457,7.823-8.795,7.823-14.291C172.219,192.695,172.393,189.921,170.937,187.337z"/>
		</g>
		<g>
			<path fill="#161616" d="M147.31,281.814c-64.01,0-102.222-30.168-102.222-80.702c0-26.189,10.046-56.352,26.874-80.689
				c1.681-2.446,5.044-3.053,7.482-1.366c2.448,1.692,3.058,5.041,1.366,7.487c-15.631,22.605-24.962,50.483-24.962,74.568
				c0,63.127,63.962,69.941,91.462,69.941c46.818,0,96.842-18.373,96.842-69.941c0-41.504-30.615-91.015-66.857-108.117
				c-1.881-0.888-3.084-2.782-3.084-4.865v-26.9c0-0.898,0.116-16.844,7.597-30.027c-16.408,2.125-43.85,4.332-70.225,0.355
				c4.419,7.369,8.827,17.714,8.827,29.672v26.9c0,2.039-1.156,3.904-2.979,4.815c-8.133,4.056-16.046,9.985-23.522,17.625
				c-2.081,2.115-5.485,2.165-7.608,0.081c-2.123-2.081-2.159-5.485-0.084-7.61c7.419-7.576,15.284-13.674,23.433-18.163V61.23
				c0-19.072-14.417-33.71-14.564-33.857c-1.713-1.71-2.07-4.35-0.877-6.455c1.193-2.102,3.652-3.152,5.984-2.569
				c41.391,10.345,93.952,0.042,94.483-0.055c2.564-0.515,5.044,0.846,6.026,3.215c0.982,2.375,0.152,5.112-1.986,6.536
				c-11.275,7.516-13.744,26.504-13.744,33.184v23.564c38.843,20.178,69.941,71.515,69.941,116.319
				C254.912,250.892,213.684,281.814,147.31,281.814z"/>
		</g>
		<g>
			<path fill="#161616" d="M149.511,254.914c-0.604,0-1.208-0.103-1.792-0.307c-2.212-0.78-54.211-20.12-54.211-107.295
				c0-1.426,0.567-2.795,1.576-3.804l21.52-21.52c1.009-1.009,2.375-1.576,3.804-1.576h59.181c1.429,0,2.795,0.567,3.804,1.576
				l21.52,21.52c1.009,1.009,1.576,2.377,1.576,3.804c0,22.613-3.662,42.71-10.876,59.73c-1.166,2.74-4.324,3.998-7.056,2.856
				c-2.732-1.161-4.014-4.319-2.853-7.053c6.42-15.137,9.783-33.064,10.014-53.315l-18.357-18.357h-54.726l-18.358,18.357
				c0.757,68.914,36.752,90.114,45.242,94.157c4.35-2.038,15.951-8.483,26.323-23.036c1.723-2.417,5.075-2.992,7.503-1.258
				c2.422,1.726,2.984,5.083,1.261,7.505c-15.132,21.229-32.601,27.465-33.337,27.72
				C150.704,254.814,150.105,254.914,149.511,254.914z"/>
		</g>
		<g>
			<path fill="#161616" d="M79.596,50.47c2.102,2.101,2.102,5.506,0,7.608l0,0c-2.102,2.104-5.507,2.102-7.608,0L64.38,50.47
				c-2.102-2.101-2.102-5.506,0-7.608l0,0c2.102-2.104,5.507-2.101,7.608,0L79.596,50.47z"/>
		</g>
		<g>
			<path fill="#161616" d="M71.988,82.75c0,2.971-2.407,5.38-5.38,5.38h-10.76c-2.974,0-5.38-2.409-5.38-5.38l0,0
				c0-2.971,2.407-5.38,5.38-5.38h10.76C69.582,77.37,71.988,79.779,71.988,82.75L71.988,82.75z"/>
		</g>
		<g>
			<path fill="#161616" d="M208.068,50.47c-2.102,2.101-2.102,5.506,0,7.608l0,0c2.101,2.104,5.506,2.102,7.608,0l7.608-7.608
				c2.102-2.101,2.102-5.506,0-7.608l0,0c-2.101-2.104-5.506-2.101-7.608,0L208.068,50.47z"/>
		</g>
		<g>
			<path fill="#161616" d="M238.772,82.75c0-2.971-2.407-5.38-5.38-5.38h-10.76c-2.974,0-5.38,2.409-5.38,5.38l0,0
				c0,2.971,2.406,5.38,5.38,5.38h10.76C236.365,88.13,238.772,85.721,238.772,82.75L238.772,82.75z"/>
		</g>
	</g>
</g>
</svg>
