<?xml version="1.0" encoding="utf-8"?>
<!-- Generator: Adobe Illustrator 16.0.0, SVG Export Plug-In . SVG Version: 6.00 Build 0)  -->
<!DOCTYPE svg PUBLIC "-//W3C//DTD SVG 1.1//EN" "http://www.w3.org/Graphics/SVG/1.1/DTD/svg11.dtd">
<svg version="1.1" xmlns="http://www.w3.org/2000/svg" xmlns:xlink="http://www.w3.org/1999/xlink" x="0px" y="0px" viewBox="0 0 64 64" enable-background="new 0 0 64 64" xml:space="preserve">
<g id="_x35_0_fairy_x2C__wing_x2C__fairy_x2C__tale_x2C__legend_x2C__fantasy">
</g>
<g id="_x34_9_gingerbread_x2C__house_x2C__fairy_x2C__tale_x2C__legend_x2C__fantasy">
</g>
<g id="_x34_8_torch_x2C__fire_x2C__fairy_x2C__tale_x2C__legend_x2C__fantasy">
</g>
<g id="_x34_7_armor_x2C__knight_x2C__fairy_x2C__tale_x2C__legend_x2C__fantasy">
</g>
<g id="_x34_6_jester_x2C__joker_x2C__joke_x2C__fairy_x2C__tale_x2C__legend_x2C__fantasy">
</g>
<g id="_x34_5_shield_x2C__knight_x2C__crown_x2C__fairy_x2C__tale_x2C__legend_x2C__fantasy">
</g>
<g id="_x34_4_spear_x2C__knight_x2C__weapon_x2C__duel_x2C__war_x2C__fairy_x2C__tale">
</g>
<g id="_x34_3_coach_x2C__pumpkin_x2C__magic_x2C__fairy_x2C__tale_x2C__legend_x2C__fantasy">
</g>
<g id="_x34_2_sword_x2C__magic_x2C__fairy_x2C__tale_x2C__legend_x2C__fantasy">
</g>
<g id="_x34_1_dagger_x2C__blood_x2C__weapon_x2C__fairy_x2C__tale_x2C__legend_x2C__fantasy">
</g>
<g id="_x34_0_ax_x2C__weapon_x2C__war_x2C__fairy_x2C__tale_x2C__legend_x2C__fantasy">
</g>
<g id="_x33_9_ax_x2C__weapon_x2C__fairy_x2C__tale_x2C__legend_x2C__fantasy">
</g>
<g id="_x33_8_standard_x2C__flag_x2C__crown_x2C__fairy_x2C__tale_x2C__legend_x2C__fantasy">
</g>
<g id="_x33_7_trumpet_x2C__flag_x2C__crown_x2C__fairy_x2C__tale_x2C__legend_x2C__fantasy">
</g>
<g id="_x33_6_flag_x2C__crown_x2C__fairy_x2C__tale_x2C__legend_x2C__fantasy">
</g>
<g id="_x33_5_bow_x2C__arrow_x2C__weapon_x2C__fairy_x2C__tale_x2C__legend_x2C__fantasy">
</g>
<g id="_x33_4_crossbow_x2C__arrow_x2C__weapon_x2C__fairy_x2C__tale_x2C__legend_x2C__fantasy">
</g>
<g id="_x33_3_helmet_x2C__knight_x2C__fairy_x2C__tale_x2C__legend_x2C__fantasy">
</g>
<g id="_x33_2_palace_x2C__castle_x2C__fairy_x2C__tale_x2C__legend_x2C__fantasy">
</g>
<g id="_x33_1_stained_x2C__glass_x2C__window_x2C__sword_x2C__fairy_x2C__tale_x2C__legend">
</g>
<g id="_x33_0_little_x2C__red_x2C__riding_x2C__hood_x2C__girl_x2C__fairy_x2C__tale">
</g>
<g id="_x32_9_medusa_x2C__snake_x2C__hair_x2C__fairy_x2C__tale_x2C__legend_x2C__fantasy">
</g>
<g id="_x32_8_tower_x2C__hair_x2C__fairy_x2C__tale_x2C__legend_x2C__fantasy">
</g>
<g id="_x32_7_mirror_x2C__magic_x2C__fairy_x2C__tale_x2C__legend_x2C__fantasy">
</g>
<g id="_x32_6_ring_x2C__magic_x2C__diamond_x2C__fairy_x2C__tale_x2C__legend_x2C__fantasy">
</g>
<g id="_x32_5_sword_x2C__stone_x2C__magic_x2C__fairy_x2C__tale_x2C__legend_x2C__fantasy">
</g>
<g id="_x32_4_wizard_x2C__magician_x2C__staff_x2C__fairy_x2C__tale_x2C__legend_x2C__fantasy">
</g>
<g id="_x32_3_witch_x2C__cat_x2C__potion_x2C__fairy_x2C__tale_x2C__legend_x2C__fantasy">
</g>
<g id="_x32_2_vampire_x2C__fangs_x2C__fairy_x2C__tale_x2C__legend_x2C__fantasy">
</g>
<g id="_x32_1_leprechaun_x2C__gold_x2C__coin_x2C__fairy_x2C__tale_x2C__legend_x2C__fantasy">
</g>
<g id="_x32_0_rainbow_x2C__bird_x2C__sun_x2C__fairy_x2C__tale_x2C__legend_x2C__fantasy">
</g>
<g id="_x31_9_satyr_x2C__horn_x2C__fairy_x2C__tale_x2C__legend_x2C__fantasy">
</g>
<g id="_x31_8_lamp_x2C__jinn_x2C__magic_x2C__fairy_x2C__tale_x2C__legend_x2C__fantasy">
</g>
<g id="_x31_7_frog_x2C__princess_x2C__crown_x2C__fairy_x2C__tale_x2C__legend_x2C__fantasy">
</g>
<g id="_x31_6_royal_x2C__decree_x2C__scroll_x2C__fairy_x2C__tale_x2C__legend_x2C__fantasy">
</g>
<g id="_x31_5_cup_x2C__drink_x2C__gold_x2C__fairy_x2C__tale_x2C__legend_x2C__fantasy">
</g>
<g id="_x31_4_shield_x2C__sword_x2C__fairy_x2C__tale_x2C__legend_x2C__fantasy">
</g>
<g id="_x31_3_potion_x2C__bottle_x2C__magic_x2C__fairy_x2C__tale_x2C__legend_x2C__fantasy">
</g>
<g id="_x31_2_mermaid_x2C__fish_x2C__fairy_x2C__tale_x2C__legend_x2C__fantasy">
</g>
<g id="_x31_1_knight_x2C__helmet_x2C__fairy_x2C__tale_x2C__legend_x2C__fantasy">
</g>
<g id="_x31_0_princess_x2C__crown_x2C__fairy_x2C__tale_x2C__legend_x2C__fantasy">
</g>
<g id="_x39__queen_x2C__crown_x2C__fairy_x2C__tale_x2C__legend_x2C__fantasy">
</g>
<g id="_x38__elf_x2C__flag_x2C__fairy_x2C__tale_x2C__legend_x2C__fantasy">
</g>
<g id="_x37__castle_x2C__flag_x2C__fairy_x2C__tale_x2C__legend_x2C__fantasy">
</g>
<g id="_x36__unicorn_x2C__horn_x2C__horse_x2C__fairy_x2C__tale_x2C__legend_x2C__fantasy">
</g>
<g id="_x35__book_x2C__magic_x2C__fairy_x2C__tale_x2C__legend_x2C__fantasy">
</g>
<g id="_x34__dragon_x2C__fire_x2C__fairy_x2C__tale_x2C__legend_x2C__fantasy">
	<g>
		<g>
			<path fill="#FFCE54" d="M39.23,49c-0.28-2.14-0.74-4.14-1.3-6c-0.681-2.22-1.5-4.229-2.37-6c-1.4-2.859-2.91-5.1-4.07-6.629
				c0,0-2.22,2.959-0.43,6.629v0.01C32,38.701,32.95,40.711,33.73,43c0.62,1.82,1.14,3.83,1.46,6c0.28,1.881,0.42,3.891,0.359,6
				c-0.069,1.92-0.29,3.92-0.72,6c-0.07,0.351-0.149,0.711-0.24,1.07L34.41,63h4.07c0.16-0.67,0.3-1.34,0.42-2
				c0.39-2.08,0.59-4.08,0.64-6C39.61,52.9,39.49,50.9,39.23,49z"/>
		</g>
		<g>
			<path fill="#ED5565" d="M31.061,37v0.01C32,38.701,32.95,40.711,33.73,43c0.62,1.82,1.14,3.83,1.46,6
				c0.28,1.881,0.42,3.891,0.359,6c-0.069,1.92-0.29,3.92-0.72,6c-0.07,0.351-0.149,0.711-0.24,1.07L34.41,63H9.061
				c4.58-4.369,11.43-15,6.43-26h-2c0-3.31-2.24-6-5-6c0,0,1-3.99-3.99-6H4.49c0,0,1-3.99-2.99-7c0.32-0.15,6.891-3.12,2.99-8h8
				c-0.97-4.84-6.63-8.75-6.98-8.99L24.49,10h3l17,9l3-1l-2,8l-2,2l-14-2.62V28c0,0,0.82,0.82,2,2.37
				C31.49,30.371,29.271,33.33,31.061,37z"/>
		</g>
		<g>
			<g>
				<polygon fill="#DA4453" points="44.49,19 44.27,18.884 42.49,26 40.963,27.527 43.49,28 45.49,26 47.49,18 				"/>
			</g>
		</g>
	</g>
	<g>
		<g>
			<path d="M43.5,29c-0.062,0-0.123-0.006-0.185-0.017l-16-3c-0.543-0.102-0.9-0.625-0.798-1.167
				c0.102-0.542,0.618-0.901,1.167-0.799l15.481,2.903l1.431-1.431l1.491-5.964l-1.271,0.424c-0.261,0.086-0.542,0.063-0.784-0.065
				L27.252,11H24.5c-0.148,0-0.294-0.033-0.428-0.096l-19-9C4.573,1.667,4.359,1.071,4.597,0.572
				c0.236-0.499,0.834-0.711,1.331-0.476L24.725,9H27.5c0.163,0,0.324,0.04,0.468,0.116l16.622,8.8l2.594-0.865
				c0.345-0.115,0.729-0.033,0.996,0.215s0.379,0.623,0.29,0.977l-2,8c-0.044,0.176-0.135,0.336-0.263,0.464l-2,2
				C44.018,28.896,43.763,29,43.5,29z"/>
		</g>
		<g>
			<path d="M38.49,64c-0.077,0-0.155-0.009-0.233-0.027c-0.537-0.128-0.868-0.668-0.74-1.205
				c4.815-20.182-8.589-33.925-8.725-34.061c-0.39-0.391-0.389-1.024,0.002-1.414c0.392-0.39,1.023-0.389,1.413,0
				c0.144,0.144,14.337,14.642,9.255,35.939C39.353,63.691,38.942,64,38.49,64z"/>
		</g>
		<g>
			<path d="M14.5,11h-10c-0.553,0-1-0.448-1-1s0.447-1,1-1h10c0.553,0,1,0.448,1,1S15.053,11,14.5,11z"/>
		</g>
		<g>
			<path d="M9.5,19h-8c-0.553,0-1-0.448-1-1s0.447-1,1-1h8c0.553,0,1,0.448,1,1S10.053,19,9.5,19z"/>
		</g>
		<g>
			<path d="M11.5,26h-7c-0.553,0-1-0.448-1-1s0.447-1,1-1h7c0.553,0,1,0.448,1,1S12.053,26,11.5,26z"/>
		</g>
		<g>
			<path d="M12.5,32h-4c-0.553,0-1-0.448-1-1s0.447-1,1-1h4c0.553,0,1,0.448,1,1S13.053,32,12.5,32z"/>
		</g>
		<g>
			<path d="M8.501,32c-0.08,0-0.162-0.009-0.243-0.03c-0.536-0.134-0.862-0.677-0.728-1.213c0.072-0.317,0.614-3.222-3.401-4.829
				c-0.513-0.206-0.763-0.787-0.558-1.3s0.791-0.76,1.3-0.557c4.597,1.839,5.019,5.495,4.599,7.171C9.356,31.697,8.949,32,8.501,32z
				"/>
		</g>
		<g>
			<path d="M4.501,26c-0.08,0-0.162-0.009-0.243-0.03c-0.536-0.134-0.862-0.677-0.728-1.213c0.03-0.132,0.759-3.416-2.63-5.958
				c-0.442-0.331-0.532-0.958-0.2-1.4c0.331-0.44,0.958-0.532,1.399-0.2c4.48,3.359,3.418,7.853,3.37,8.042
				C5.356,25.697,4.949,26,4.501,26z"/>
		</g>
		<g>
			<path d="M16.5,38h-3c-0.553,0-1-0.447-1-1s0.447-1,1-1h3c0.553,0,1,0.447,1,1S17.053,38,16.5,38z"/>
		</g>
		<g>
			<path d="M1.501,19c-0.388,0-0.756-0.227-0.919-0.605c-0.218-0.506,0.017-1.094,0.522-1.313c0.841-0.364,3.119-1.692,3.555-3.441
				c0.234-0.945-0.073-1.931-0.94-3.016c-0.345-0.431-0.274-1.061,0.156-1.405c0.433-0.346,1.061-0.274,1.406,0.156
				c1.268,1.584,1.71,3.184,1.316,4.756c-0.77,3.07-4.544,4.719-4.704,4.788C1.766,18.974,1.632,19,1.501,19z"/>
		</g>
		<g>
			<path d="M29.5,29c-0.553,0-1-0.448-1-1v-2.646c0-0.552,0.447-1,1-1s1,0.448,1,1V28C30.5,28.552,30.053,29,29.5,29z"/>
		</g>
		<g>
			<path d="M34.6,63.071c-0.077,0-0.155-0.009-0.233-0.027c-0.537-0.128-0.868-0.668-0.74-1.205
				c2.513-10.53-0.479-19.054-3.431-24.35c-0.27-0.482-0.097-1.092,0.386-1.36c0.481-0.269,1.092-0.097,1.36,0.386
				c3.126,5.607,6.292,14.632,3.63,25.789C35.462,62.763,35.052,63.071,34.6,63.071z"/>
		</g>
		<g>
			<path d="M9.073,64c-0.264,0-0.526-0.104-0.723-0.309c-0.382-0.399-0.368-1.032,0.031-1.414
				c4.532-4.336,10.94-14.452,6.208-24.863c-0.229-0.503-0.007-1.096,0.496-1.324c0.508-0.232,1.097-0.005,1.324,0.496
				c5.196,11.432-1.732,22.437-6.646,27.137C9.57,63.908,9.322,64,9.073,64z"/>
		</g>
		<g>
			<path d="M12.499,11c-0.467,0-0.885-0.329-0.979-0.804C10.614,5.668,5.001,1.87,4.944,1.832C4.486,1.525,4.362,0.904,4.669,0.445
				c0.307-0.458,0.925-0.583,1.386-0.277c0.259,0.173,6.357,4.291,7.426,9.636c0.108,0.542-0.243,1.068-0.784,1.177
				C12.63,10.994,12.563,11,12.499,11z"/>
		</g>
		<g>
			<path d="M13.5,38c-0.553,0-1-0.447-1-1c0-2.757-1.794-5-4-5c-0.553,0-1-0.448-1-1s0.447-1,1-1c3.309,0,6,3.141,6,7
				C14.5,37.553,14.053,38,13.5,38z"/>
		</g>
		<g>
			<path d="M30.499,17c-0.15,0-0.303-0.034-0.446-0.105l-4-2c-0.494-0.247-0.694-0.848-0.447-1.342
				c0.248-0.494,0.849-0.695,1.342-0.447l4,2c0.494,0.247,0.694,0.848,0.447,1.342C31.219,16.798,30.866,17,30.499,17z"/>
		</g>
		<g>
			<path d="M28.53,17c-0.553,0-1.005-0.448-1.005-1s0.442-1,0.994-1h0.011c0.552,0,1,0.448,1,1S29.082,17,28.53,17z"/>
		</g>
		<g>
			<path d="M31.069,38.002c-0.37,0-0.727-0.206-0.899-0.562c-2.035-4.166,0.424-7.528,0.529-7.669
				c0.333-0.441,0.957-0.532,1.4-0.201c0.442,0.331,0.532,0.958,0.201,1.4c-0.072,0.098-1.82,2.548-0.334,5.593
				c0.242,0.496,0.037,1.095-0.46,1.337C31.366,37.97,31.217,38.002,31.069,38.002z"/>
		</g>
		<g>
			<path d="M34.423,64c-0.062,0-0.125-0.006-0.188-0.018c-0.543-0.104-0.899-0.627-0.796-1.169l0.177-0.929
				c0.103-0.543,0.628-0.898,1.169-0.796c0.543,0.104,0.899,0.627,0.796,1.169l-0.177,0.929C35.313,63.666,34.894,64,34.423,64z"/>
		</g>
		<g>
			<path d="M38.914,62h-4.076c-0.553,0-1-0.447-1-1s0.447-1,1-1h4.076c0.553,0,1,0.447,1,1S39.467,62,38.914,62z"/>
		</g>
		<g>
			<path d="M39.558,56h-3.989c-0.553,0-1-0.447-1-1s0.447-1,1-1h3.989c0.553,0,1,0.447,1,1S40.11,56,39.558,56z"/>
		</g>
		<g>
			<path d="M39.254,50h-4.055c-0.553,0-1-0.447-1-1s0.447-1,1-1h4.055c0.553,0,1,0.447,1,1S39.807,50,39.254,50z"/>
		</g>
		<g>
			<path d="M37.94,44h-4.201c-0.553,0-1-0.447-1-1s0.447-1,1-1h4.201c0.553,0,1,0.447,1,1S38.493,44,37.94,44z"/>
		</g>
		<g>
			<path d="M35.568,38h-4.5c-0.553,0-1-0.447-1-1s0.447-1,1-1h4.5c0.553,0,1,0.447,1,1S36.121,38,35.568,38z"/>
		</g>
		<g>
			<path d="M60,28c-0.553,0-1-0.448-1-1s0.447-1,1-1c0.827,0,1.5-0.673,1.5-1.5S60.827,23,60,23c-0.553,0-1-0.448-1-1s0.447-1,1-1
				c1.93,0,3.5,1.57,3.5,3.5S61.93,28,60,28z"/>
		</g>
		<g>
			<path d="M60.001,28c-0.062,0-0.125-0.006-0.188-0.018l-10.5-2c-0.542-0.104-0.898-0.627-0.795-1.169s0.62-0.9,1.17-0.795l10.5,2
				c0.542,0.104,0.898,0.627,0.795,1.169C60.891,27.667,60.472,28,60.001,28z"/>
		</g>
		<g>
			<path d="M54.501,31c-0.065,0-0.131-0.006-0.197-0.02l-5-1c-0.541-0.108-0.893-0.635-0.784-1.177
				c0.107-0.542,0.637-0.893,1.177-0.784l5,1c0.541,0.108,0.893,0.635,0.784,1.177C55.386,30.671,54.968,31,54.501,31z"/>
		</g>
	</g>
</g>
<g id="_x33__sword_x2C__duel_x2C__war_x2C__fairy_x2C__tale_x2C__legend_x2C__fantasy">
</g>
<g id="_x32__crown_x2C__king_x2C__fairy_x2C__tale_x2C__legend_x2C__fantasy">
</g>
<g id="_x31__king_x2C__crown_x2C__fairy_x2C__tale_x2C__legend_x2C__fantasy">
</g>
</svg>
