<?xml version="1.0" encoding="UTF-8" standalone="no"?>
<!-- Generator: Adobe Illustrator 19.0.0, SVG Export Plug-In . SVG Version: 6.00 Build 0)  -->

<svg
   version="1.1"
   id="Capa_1"
   x="0px"
   y="0px"
   viewBox="0 0 512 512"
   style="enable-background:new 0 0 512 512;"
   xml:space="preserve"
   sodipodi:docname="icon-chest.svg"
   inkscape:version="1.2.1 (9c6d41e410, 2022-07-14)"
   xmlns:inkscape="http://www.inkscape.org/namespaces/inkscape"
   xmlns:sodipodi="http://sodipodi.sourceforge.net/DTD/sodipodi-0.dtd"
   xmlns="http://www.w3.org/2000/svg"
   xmlns:svg="http://www.w3.org/2000/svg"><defs
   id="defs15466" /><sodipodi:namedview
   id="namedview15464"
   pagecolor="#ffffff"
   bordercolor="#000000"
   borderopacity="0.25"
   inkscape:showpageshadow="2"
   inkscape:pageopacity="0.0"
   inkscape:pagecheckerboard="0"
   inkscape:deskcolor="#d1d1d1"
   showgrid="false"
   inkscape:zoom="2.8367135"
   inkscape:cx="198.99789"
   inkscape:cy="269.32575"
   inkscape:window-width="2560"
   inkscape:window-height="1387"
   inkscape:window-x="-8"
   inkscape:window-y="-8"
   inkscape:window-maximized="1"
   inkscape:current-layer="Capa_1" />
<path
   style="fill:#AA785F;"
   d="M488.468,432.355H23.532c-8.854,0-16.032-7.178-16.032-16.032V127.742  c0-26.563,21.534-48.097,48.097-48.097h400.806c26.563,0,48.097,21.534,48.097,48.097v288.581  C504.5,425.177,497.322,432.355,488.468,432.355z"
   id="path15381" />
<g
   id="g15387">
	<rect
   x="39.565"
   y="296.079"
   style="fill:#96695A;"
   width="432.87"
   height="16.03"
   id="rect15383" />
	<path
   style="fill:#96695A;"
   d="M256,264.016L256,264.016c-30.99,0-56.113-25.123-56.113-56.113v-32.237h112.226v32.237   C312.113,238.894,286.99,264.016,256,264.016z"
   id="path15385" />
</g>
<path
   style="fill:#C38767;"
   d="M456.403,79.645H55.597c-26.563,0-48.097,21.534-48.097,48.097v48.097  c0-26.563,21.534-48.097,48.097-48.097h400.806c26.563,0,48.097,21.534,48.097,48.097v-48.097  C504.5,101.179,482.966,79.645,456.403,79.645z"
   id="path15389" />
<g
   id="g15395">
	<path
   style="fill:#707487;"
   d="M39.565,82.441C20.896,89.05,7.5,106.809,7.5,127.742v288.581c0,8.855,7.178,16.032,16.032,16.032   h16.032L39.565,82.441L39.565,82.441z"
   id="path15391" />
	<path
   style="fill:#707487;"
   d="M472.435,82.441c18.668,6.609,32.065,24.369,32.065,45.301v288.581   c0,8.855-7.178,16.032-16.032,16.032h-16.032L472.435,82.441L472.435,82.441z"
   id="path15393" />
</g>
<g
   id="g15401">
	<path
   style="fill:#7F8499;"
   d="M39.565,130.538V82.441C20.896,89.05,7.5,106.809,7.5,127.742v48.097   C7.5,154.906,20.896,137.147,39.565,130.538z"
   id="path15397" />
	<path
   style="fill:#7F8499;"
   d="M472.435,130.538V82.441c18.668,6.609,32.065,24.369,32.065,45.301v48.097   C504.5,154.906,491.104,137.147,472.435,130.538z"
   id="path15399" />
</g>
<g
   id="g15407">
	<path
   style="fill:#96695A;"
   d="M433.163,376.242H78.837c-3.715-18.294-19.882-32.065-39.272-32.065v80.161   c19.391,0,35.558-13.77,39.272-32.065h354.326c3.715,18.294,19.882,32.065,39.272,32.065v-80.161   C453.045,344.178,436.878,357.948,433.163,376.242z"
   id="path15403" />
	<path
   style="fill:#96695A;"
   d="M433.163,215.92H78.837c-3.715-18.294-19.882-32.065-39.272-32.065v80.161   c19.391,0,35.558-13.77,39.272-32.065h354.326c3.715,18.294,19.882,32.065,39.272,32.065v-80.161   C453.045,183.855,436.878,197.625,433.163,215.92z"
   id="path15405" />
</g>
<g
   id="g15417">
	<path
   style="fill:#5B5D6E;"
   d="M39.565,368.226H7.5v32.065h32.065c8.854,0,16.032-7.178,16.032-16.032   C55.597,375.404,48.419,368.226,39.565,368.226z"
   id="path15409" />
	<path
   style="fill:#5B5D6E;"
   d="M39.565,207.903H7.5v32.065h32.065c8.854,0,16.032-7.178,16.032-16.032   C55.597,215.081,48.419,207.903,39.565,207.903z"
   id="path15411" />
	<path
   style="fill:#5B5D6E;"
   d="M472.435,368.226H504.5v32.065h-32.065c-8.854,0-16.032-7.178-16.032-16.032   C456.403,375.404,463.581,368.226,472.435,368.226z"
   id="path15413" />
	<path
   style="fill:#5B5D6E;"
   d="M472.435,207.903H504.5v32.065h-32.065c-8.854,0-16.032-7.178-16.032-16.032   C456.403,215.081,463.581,207.903,472.435,207.903z"
   id="path15415" />
</g>
<rect
   x="239.97"
   y="79.64"
   style="fill:#707487;"
   width="32.06"
   height="352.71"
   id="rect15419" />
<rect
   x="239.97"
   y="79.64"
   style="fill:#7F8499;"
   width="32.06"
   height="48.1"
   id="rect15421" />
<path
   style="fill:#5B5D6E;"
   d="M239.968,261.661c5.082,1.514,10.457,2.354,16.032,2.354c5.576,0,10.95-0.841,16.032-2.354v-77.807  h-32.065L239.968,261.661L239.968,261.661z"
   id="path15423" />
<path
   style="fill:#7F8499;"
   d="M256,239.968L256,239.968c-17.709,0-32.065-14.356-32.065-32.064V151.79h64.129v56.113  C288.065,225.612,273.709,239.968,256,239.968z"
   id="path15425" />
<path
   d="M 456.403,72.145 H 55.597 C 24.94,72.145 0,97.085 0,127.742 v 288.581 c 0,12.976 10.557,23.533 23.532,23.533 h 464.936 c 12.976,0 23.532,-10.557 23.532,-23.533 V 127.742 C 512,97.085 487.06,72.145 456.403,72.145 Z M 272.032,312.629 c -4.142,0 -7.5,3.358 -7.5,7.5 V 424.855 H 247.468 V 246.531 c 2.75,0.607 5.603,0.937 8.532,0.937 21.816,0 39.564,-17.749 39.564,-39.564 l -4.13433,11.56239 160.10525,-0.14601 L 464.935,201.637 c -9.308,3.139 -16.032,11.946 -16.032,22.3 0,10.354 6.724,19.16 16.032,22.3 V 361.96 c -9.308,3.139 -16.032,11.946 -16.032,22.3 0,10.354 6.724,19.16 16.032,22.3 v 18.298 H 279.532 V 320.129 c 0,-4.142 -3.358,-7.5 -7.5,-7.5 z M 39.564,215.403 c 4.705,0 8.532,3.828 8.532,8.532 0,4.704 -3.828,8.532 -8.532,8.532 H 15 V 215.403 Z M 14.79049,182.42445 15,200.403 v -17.064 l 0.14301,0.35252 z M 15,375.726 h 24.564 c 4.705,0 8.532,3.828 8.532,8.532 0,4.704 -3.828,8.532 -8.532,8.532 H 15 Z m 32.064,30.831 c 9.308,-3.139 16.032,-11.946 16.032,-22.3 0,-10.354 -6.724,-19.16 -16.032,-22.3 v -89.926 c 0,-4.142 -3.358,-7.5 -7.5,-7.5 -4.142,0 -7.5,3.358 -7.5,7.5 v 88.693 H 15 V 247.468 h 24.564 c 12.976,0 23.532,-10.557 23.532,-23.532 0,-10.354 2.965344,9.44518 -0.521093,0.26132 v -2.78609 L 221.37029,221.0587 216.435,207.903 c 2.11512,13.36052 6.312,24.567 16.032,31.783 V 424.855 H 47.064 Z M 247.468,144.29 V 87.145 h 17.064 v 57.145 z m 32.58,15 c 0.285,0 0.516,0.231 0.516,0.516 v 48.097 c 0,13.545 -11.02,24.564 -24.564,24.564 -13.544,0 -24.564,-11.02 -24.564,-24.564 v -48.097 c 0,-0.285 0.231,-0.516 0.516,-0.516 z m 199.888,88.178 H 497 v 113.258 h -17.064 z m -7.5,-15 c -4.705,0 -8.532,-3.828 -8.532,-8.532 0,-4.704 3.828,-8.532 8.532,-8.532 H 497 v 17.064 z m 7.5,-32.065 -23.92989,5.86881 41.99097,-4.48685 L 497,200.403 Z m -7.5,192.387 c -4.705,0 -8.532,-3.828 -8.532,-8.532 0,-4.704 3.828,-8.532 8.532,-8.532 H 497 v 17.064 z m -7.5,-304.735 1.7626,87.44886 c 0.0835,4.14115 3.00548,8.91008 7.14748,8.91008 4.142,0 7.94245,-4.41654 7.85252,-8.55756 L 479.936,94.693 C 479.66073,82.017324 497,114.125 497,127.742 l 0.49854,73.00206 -200.93746,0.49854 -0.99708,-41.4366 c -0.20582,-8.55352 -6.96,-15.516 -15.516,-15.516 h -0.516 V 87.145 h 176.871 c 2.927,0 5.78,0.318 8.533,0.91 z M 32.064,94.693 v 49.084 c 0,4.142 3.358,7.5 7.5,7.5 4.142,0 7.5,-3.358 7.5,-7.5 V 88.055 c 2.753,-0.591 5.605,-0.91 8.532,-0.91 h 176.871 v 57.145 h -0.516 c -8.556,0 -15.516,6.96 -15.516,15.516 L 215.72996,201.47594 14.294959,200.7709 15,127.742 c 0,-13.617 6.746,-25.681 17.064,-33.049 z M 15,416.322 v -8.532 h 17.064 v 17.065 h -8.532 c -4.704,0 -8.532,-3.828 -8.532,-8.533 z m 473.468,8.533 h -8.532 V 407.79 H 497 v 8.532 c 0,4.705 -3.828,8.533 -8.532,8.533 z"
   id="path15427"
   sodipodi:nodetypes="ssssssssssscccsscccsccscccsscssccccccccccssscccscssscccsscccsccccccccssssssssccccccssscccscccccsssccscssscsccsscccccssscsccssccccsccccssccc" />
<path
   d="m 256,213.403 c 4.142,0 7.5,-3.358 7.5,-7.5 v -8.016 c 0,-4.142 -3.358,-7.5 -7.5,-7.5 -4.142,0 -7.5,3.358 -7.5,7.5 v 8.016 c 0,4.142 3.358,7.5 7.5,7.5 z"
   id="path15429" />
<path
   d="M279.532,272.028c0-4.142-3.358-7.5-7.5-7.5s-7.5,3.358-7.5,7.5v16.03c0,4.142,3.358,7.5,7.5,7.5s7.5-3.358,7.5-7.5V272.028  z"
   id="path15431" />
<g
   id="g15433">
</g>
<g
   id="g15435">
</g>
<g
   id="g15437">
</g>
<g
   id="g15439">
</g>
<g
   id="g15441">
</g>
<g
   id="g15443">
</g>
<g
   id="g15445">
</g>
<g
   id="g15447">
</g>
<g
   id="g15449">
</g>
<g
   id="g15451">
</g>
<g
   id="g15453">
</g>
<g
   id="g15455">
</g>
<g
   id="g15457">
</g>
<g
   id="g15459">
</g>
<g
   id="g15461">
</g>
<ellipse
   style="fill:#000000;fill-opacity:1"
   id="path15520"
   cx="256"
   cy="186.95813"
   rx="13.211295"
   ry="13.460565" /></svg>
