<?xml version="1.0" encoding="UTF-8" standalone="no"?>
<svg
   viewBox="0 0 500 500"
   version="1.1"
   id="svg12"
   sodipodi:docname="cave.svg"
   inkscape:version="1.2.1 (9c6d41e410, 2022-07-14)"
   xmlns:inkscape="http://www.inkscape.org/namespaces/inkscape"
   xmlns:sodipodi="http://sodipodi.sourceforge.net/DTD/sodipodi-0.dtd"
   xmlns="http://www.w3.org/2000/svg"
   xmlns:svg="http://www.w3.org/2000/svg">
  <defs
     id="defs16" />
  <sodipodi:namedview
     id="namedview14"
     pagecolor="#ffffff"
     bordercolor="#000000"
     borderopacity="0.25"
     inkscape:showpageshadow="2"
     inkscape:pageopacity="0.0"
     inkscape:pagecheckerboard="0"
     inkscape:deskcolor="#d1d1d1"
     showgrid="false"
     inkscape:zoom="1.4523973"
     inkscape:cx="646.86156"
     inkscape:cy="408.29048"
     inkscape:window-width="2560"
     inkscape:window-height="1387"
     inkscape:window-x="-8"
     inkscape:window-y="-8"
     inkscape:window-maximized="1"
     inkscape:current-layer="svg12" />
  <path
     style="fill:#6a6a6a;stroke:rgb(0, 0, 0);stroke-linecap:round;stroke-linejoin:round;stroke-width:15px;fill-opacity:1"
     d="M 27.286 443.13 C 27.286 405.639 64.354 238.575 64.354 238.69 L 100.861 217.909 C 103.872 225.266 111.917 139.483 113.779 131.416 C 110.391 129.722 185.336 113.276 187.916 114.566 C 190.187 116.837 241.186 43.712 240.711 43.237 C 241.561 43.662 331.488 89.187 329.451 88.169 C 331.002 87.394 378.074 98.681 396.849 103.896 C 402.81 120.424 431.94 214.606 431.671 214.54 C 431.402 214.474 468.178 287.554 468.178 287.554 C 468.178 287.554 491.205 443.129 490.643 443.129 C 490.081 443.129 327.766 453.24 326.643 453.24 C 325.52 453.24 173.313 452.116 173.313 452.116 L 63.231 448.746"
     id="path2" />
  <path
     style="stroke:rgb(0, 0, 0);stroke-linejoin:round;stroke-linecap:round;fill:#0b0b0b;stroke-width:16px;fill-opacity:1"
     d="M 168.465 448.867 C 165.302 448.867 181.43 311.739 185.719 311.739 C 184.182 310.202 246.887 251.084 248.984 252.542 C 250.163 251.953 310.002 314.49 311.61 316.984 C 313.218 319.478 321.847 448.758 318.64 448.116 C 315.433 447.474 168.465 448.867 168.465 448.867"
     id="path4" />
  <path
     style="stroke:rgb(0, 0, 0);paint-order:fill;fill:#212121;stroke-width:0px;fill-opacity:1"
     d="M 276.378 438.148 C 283.313 440.129 284.019 347.787 280.764 346.857 C 277.685 318.058 249.547 258.797 248.072 261.01 L 304.264 321.181 L 312.439 442.096 C 312.408 442.221 275.057 443.432 276.378 438.148 Z"
     id="path6" />
  <path
     style="fill:#5b5b5b;fill-opacity:1;stroke:#000000;stroke-width:0px"
     d="m 245.05385,64.407 c -3.09928,2.643 67.90875,56.13 73.44173,51.412 -1.02039,4.175 32.38665,33.094 32.7649,31.545 0,0 28.67551,105.046 29.22773,106.175 0.55223,1.129 33.71003,66.621 33.71003,66.621 0,0 22.58445,64.288 22.58445,119.042 0,0 46.23131,-2.831 46.23131,-3.396 0,-0.565 -22.604,-149.365 -22.604,-149.365 L 423.96525,214.124 394.69842,110.169 331.74893,94.35 249.47164,53.672 Z"
     id="path8" />
  <path
     style="fill: rgb(216, 216, 216); stroke: rgb(0, 0, 0);"
     d="M 104.793 172.416 L 100.299 179.156"
     id="path10" />
  <path
     style="fill:#c5c5c5;fill-opacity:1;stroke:#000000;stroke-width:11.06666667;stroke-linecap:round;stroke-linejoin:round;stroke-dasharray:none"
     d="m 343.34922,481.25446 -23.30572,-4.8597 -4.00567,-19.81264 -3.27737,-17.56971 23.66987,-13.83146 20.39251,11.2147 27.31138,-0.74764 14.93023,15.32676 -0.36416,31.40117 -26.21893,2.99059 -15.65852,4.11205 z"
     id="path1729"
     sodipodi:nodetypes="cccccccccccc" />
  <path
     style="fill:#c5c5c5;fill-opacity:1;stroke:#000000;stroke-width:11.06666667;stroke-linecap:round;stroke-linejoin:round;stroke-dasharray:none"
     d="m 155.31836,474.48722 -21.83863,10.88232 -16.98558,-13.92937 -13.1725,-7.83527 4.85302,-6.0941 3.81309,-27.85873 11.09264,-7.39999 19.06546,6.5294 9.70606,5.65881 14.21243,32.21165 z"
     id="path1731" />
  <path
     style="fill:#a9a9a9;fill-opacity:1;stroke:#000000;stroke-width:10.7;stroke-linecap:round;stroke-linejoin:round;stroke-dasharray:none"
     d="m 72.541382,396.78675 -36.514118,4.86855 -11.684518,40.40896 5.355404,10.22395 5.842259,13.63194 12.658227,10.22395 15.579358,0.97371 21.421616,4.3817 32.61928,-31.15872 11.19767,-37.48783 -8.27654,-18.50048 -25.316454,-13.14509 -12.171376,8.27654 -10.223953,-2.43428 z"
     id="path1733" />
  <path
     style="fill:#a3a3a3;fill-opacity:1;stroke:#000000;stroke-width:10.7;stroke-linecap:round;stroke-linejoin:round;stroke-dasharray:none"
     d="m 436.55613,486.03394 -38.94839,0.97371 -4.86855,-10.22396 -14.11879,-5.84226 -2.92113,-33.10613 21.42161,-38.46154 55.98832,-19.4742 30.67186,14.1188 10.71081,46.73807 -15.57936,29.21129 -21.90847,17.52678 z"
     id="path1735" />
</svg>
