<?xml version="1.0" encoding="UTF-8" standalone="no"?>
<!-- Generator: Adobe Illustrator 19.0.0, SVG Export Plug-In . SVG Version: 6.00 Build 0)  -->

<svg
   version="1.1"
   id="Capa_1"
   x="0px"
   y="0px"
   viewBox="0 0 511.999 511.999"
   style="enable-background:new 0 0 511.999 511.999;"
   xml:space="preserve"
   sodipodi:docname="icon-tent.svg"
   inkscape:version="1.2.1 (9c6d41e410, 2022-07-14)"
   xmlns:inkscape="http://www.inkscape.org/namespaces/inkscape"
   xmlns:sodipodi="http://sodipodi.sourceforge.net/DTD/sodipodi-0.dtd"
   xmlns="http://www.w3.org/2000/svg"
   xmlns:svg="http://www.w3.org/2000/svg"><defs
   id="defs32842" /><sodipodi:namedview
   id="namedview32840"
   pagecolor="#ffffff"
   bordercolor="#000000"
   borderopacity="0.25"
   inkscape:showpageshadow="2"
   inkscape:pageopacity="0.0"
   inkscape:pagecheckerboard="0"
   inkscape:deskcolor="#d1d1d1"
   showgrid="false"
   inkscape:zoom="2.0058633"
   inkscape:cx="255.75023"
   inkscape:cy="255.75023"
   inkscape:window-width="2560"
   inkscape:window-height="1387"
   inkscape:window-x="-8"
   inkscape:window-y="-8"
   inkscape:window-maximized="1"
   inkscape:current-layer="Capa_1" />
<path
   style="fill:#31a372;stroke-width:1.1049"
   d="m 459.123,444.14117 c -35.419,-85.07351 -27.864,-219.86826 -24.56,-242.51676 0.423,-2.92507 -0.997,-5.77688 -3.317,-6.6693 C 365.115,169.5256 322.422,127.93985 298.252,97.531864 271.651,64.065746 260.861,36.426561 260.414,35.265569 c -1.745,-4.535316 -7.037,-4.517005 -8.773,0 -0.447,1.159771 -11.235,28.796515 -37.837,62.266295 -24.17,30.407986 -66.862,71.992506 -132.993,97.423246 -2.318,0.89119 -3.737,3.74423 -3.317,6.66564 0.024,0.17213 2.461,17.43685 2.602,44.08352 0,0.0587 10e-4,0.11719 0.003,0.1758 1.374,46.37621 -0.328,133.801 -27.166,198.26232 -1.635,3.92736 0.706,8.59695 4.319,8.59695 424.947,0 399.57,1.37587 401.68,-2.82251 0.883,-1.75431 0.955,-3.942 0.191,-5.77566 z"
   id="path32775" />
<path
   style="fill:#1b8e5a;stroke-width:1.1049"
   d="m 104.956,238.5674 c -0.002,-0.0672 -0.003,-0.13185 -0.004,-0.19899 -0.152,-30.05639 -2.761,-49.53322 -2.787,-49.72612 -0.135,-0.98885 -0.074,-1.96184 0.118,-2.87867 -6.869,3.23881 -14.013,6.32258 -21.471,9.18906 -2.318,0.89119 -3.737,3.74423 -3.317,6.66562 0.024,0.17214 2.461,17.43687 2.602,44.08353 0,0.0587 0.001,0.1172 0.003,0.17579 1.374,46.37622 -0.328,133.80101 -27.166,198.26233 -1.635,3.92735 0.706,8.59696 4.319,8.59696 h 22.14 C 104.75,381.13994 106.365,288.64145 104.956,238.5674 Z"
   id="path32777" />
<rect
   x="193.149"
   y="292.38205"
   style="fill:#779300;stroke-width:1.1049"
   width="124.457"
   height="151.60777"
   id="rect32779" />
<rect
   x="193.149"
   y="292.38205"
   style="fill:#576b1a;stroke-width:1.1049"
   width="25.038"
   height="151.60777"
   id="rect32781" />
<rect
   x="255.373"
   y="292.38205"
   style="fill:#99ba3e;stroke-width:1.1049"
   width="62.223"
   height="151.60777"
   id="rect32783" />
<g
   id="g32791"
   transform="matrix(1,0,0,1.2208121,0,-74.410966)">
	<path
   style="fill:#605e15"
   d="m 324.844,297.932 c 0,3.388 -2.683,6.132 -5.992,6.132 H 193.147 c -3.31,0 -5.991,-2.744 -5.991,-6.132 v -11.247 c 0,-3.388 2.682,-6.134 5.991,-6.134 h 125.705 c 3.31,0 5.992,2.746 5.992,6.134 z"
   id="path32785" />
	<path
   style="fill:#605e15"
   d="m 406.345,297.932 v -11.247 c 0,-3.388 -2.682,-6.134 -5.992,-6.134 h -45.31 c -3.31,0 -5.992,2.746 -5.992,6.134 v 11.247 c 0,3.388 2.683,6.132 5.992,6.132 h 45.31 c 3.311,0 5.992,-2.744 5.992,-6.132 z"
   id="path32787" />
	<path
   style="fill:#605e15"
   d="m 164.122,297.932 v -11.247 c 0,-3.388 -2.683,-6.134 -5.992,-6.134 h -45.311 c -3.309,0 -5.991,2.746 -5.991,6.134 v 11.247 c 0,3.388 2.683,6.132 5.991,6.132 h 45.311 c 3.309,0 5.992,-2.744 5.992,-6.132 z"
   id="path32789" />
</g>
<g
   id="g32799"
   transform="matrix(1,0,0,1.2208121,0,-74.410966)">
	<path
   style="fill:#4f4d2c"
   d="m 212.194,297.932 v -11.247 c 0,-3.388 2.682,-6.134 5.991,-6.134 h -25.038 c -3.31,0 -5.991,2.746 -5.991,6.134 v 11.247 c 0,3.388 2.682,6.132 5.991,6.132 h 25.038 c -3.309,0 -5.991,-2.744 -5.991,-6.132 z"
   id="path32793" />
	<path
   style="fill:#4f4d2c"
   d="m 374.088,297.932 v -11.247 c 0,-3.388 2.683,-6.134 5.992,-6.134 h -25.038 c -3.31,0 -5.992,2.746 -5.992,6.134 v 11.247 c 0,3.388 2.683,6.132 5.992,6.132 h 25.038 c -3.309,0 -5.992,-2.744 -5.992,-6.132 z"
   id="path32795" />
	<path
   style="fill:#4f4d2c"
   d="m 131.864,297.932 v -11.247 c 0,-3.388 2.683,-6.134 5.991,-6.134 h -25.038 c -3.309,0 -5.991,2.746 -5.991,6.134 v 11.247 c 0,3.388 2.683,6.132 5.991,6.132 h 25.038 c -3.308,0 -5.991,-2.744 -5.991,-6.132 z"
   id="path32797" />
</g>
<path
   d="m 400.353,258.91712 h -45.31 c -7.446,0 -13.503,7.47259 -13.503,16.65798 v 13.73047 c 0,9.18418 6.058,16.65554 13.503,16.65554 h 45.31 c 7.445,0 13.503,-7.47136 13.503,-16.65554 V 275.5751 c 0,-9.18417 -6.057,-16.65798 -13.503,-16.65798 z m -1.519,28.7074 h -42.272 v -10.36714 h 42.272 z"
   id="path32801"
   style="stroke-width:1.1049" />
<path
   d="m 112.818,258.91712 c -7.445,0 -13.502,7.47259 -13.502,16.65798 v 13.73047 c 0,9.18418 6.057,16.65554 13.502,16.65554 h 45.311 c 7.446,0 13.503,-7.47136 13.503,-16.65554 V 275.5751 c 0,-9.18539 -6.058,-16.65798 -13.503,-16.65798 z m 43.793,28.7074 h -42.272 v -10.36714 h 42.272 z"
   id="path32803"
   style="stroke-width:1.1049" />
<path
   d="M 511.62,446.5718 C 437.952,174.57121 443.744,188.53852 437.836,186.27636 386.664,166.59931 342.908,135.58702 307.781,94.101382 304.8,90.581785 300.045,90.675787 297.16,94.31625 c -2.884,3.640464 -2.805,9.44665 0.176,12.96624 35.418,41.82869 79.104,73.45993 129.927,94.09043 -0.804,8.10864 -1.857,22.02833 -1.958,40.02433 -1.661,56.35634 1.428,134.8741 24.284,198.88127 H 325.111 v -83.7062 c 0,-5.06515 -3.363,-9.16952 -7.511,-9.16952 -4.149,0 -7.511,4.10437 -7.511,9.16952 v 83.7062 H 262.886 V 305.96356 h 47.203 v 18.81515 c 0,5.06515 3.362,9.16952 7.511,9.16952 4.148,0 7.511,-4.10437 7.511,-9.16952 v -20.72573 c 4.3,-2.78833 7.244,-8.34669 7.244,-14.74497 v -13.73046 c 0,-9.1854 -6.058,-16.65799 -13.503,-16.65799 H 193.147 c -7.446,0 -13.502,7.47259 -13.502,16.65799 v 13.73046 c 0,5.75736 2.382,10.8396 5.991,13.83302 V 440.28096 H 62.469 C 85.326,376.27135 88.415,297.75359 86.754,241.39725 86.653,223.40003 85.6,209.48156 84.796,201.37536 189.664,158.78123 239.25,78.796065 256.024,45.57899 c 4.917,9.740859 12.665,23.506736 23.858,39.243004 2.718,3.822362 7.462,4.231334 10.596,0.911946 3.133,-3.319388 3.467,-9.11092 0.747,-12.935725 -30.793,-43.298541 -25.929,-55.184367 -35.197,-55.184367 -2.911,0 -5.561,2.055847 -6.799,5.271466 -0.454,1.180525 -11.428,29.290944 -38.627,63.510306 -24.774,31.16733 -68.545,73.79687 -136.38,99.88196 -2.258,0.87654 -4.112,3.05081 -4.874,5.86478 L 0.385,446.56937 C -1.223,452.50251 2.407,458.62 7.516,458.62 h 43.118 c 2.349,0 439.811,0 453.855,0 2.411,0 4.676,-1.4137 6.088,-3.79916 1.412,-2.38547 1.799,-5.45459 1.043,-8.24904 z M 71.734,241.71832 c 0.76,65.63574 -2.157,137.99693 -25.792,198.56264 H 17.914 Z m 122.934,35.53906 h 122.666 v 10.36714 c -5.71,0 -117.822,0 -122.666,0 z m 5.991,163.02236 V 305.96356 h 47.205 v 134.31618 z m 265.457,0 c -23.32,-59.76485 -26.704,-132.4752 -25.792,-198.52846 l 53.769,198.52846 z"
   id="path32805"
   style="stroke-width:1.1049" />
<path
   d="M 406.345,218.12613 H 106.827 c -4.149,0 -7.511,4.10436 -7.511,9.16951 0,5.06516 3.362,9.16952 7.511,9.16952 h 299.518 c 4.148,0 7.511,-4.10436 7.511,-9.16952 0,-5.06392 -3.362,-9.16951 -7.511,-9.16951 z"
   id="path32807"
   style="stroke-width:1.1049" />
<g
   id="g32809">
</g>
<g
   id="g32811">
</g>
<g
   id="g32813">
</g>
<g
   id="g32815">
</g>
<g
   id="g32817">
</g>
<g
   id="g32819">
</g>
<g
   id="g32821">
</g>
<g
   id="g32823">
</g>
<g
   id="g32825">
</g>
<g
   id="g32827">
</g>
<g
   id="g32829">
</g>
<g
   id="g32831">
</g>
<g
   id="g32833">
</g>
<g
   id="g32835">
</g>
<g
   id="g32837">
</g>
</svg>
