<?xml version="1.0" encoding="utf-8"?>
<!-- Generator: Adobe Illustrator 16.0.0, SVG Export Plug-In . SVG Version: 6.00 Build 0)  -->
<!DOCTYPE svg PUBLIC "-//W3C//DTD SVG 1.1//EN" "http://www.w3.org/Graphics/SVG/1.1/DTD/svg11.dtd">
<svg version="1.1" xmlns="http://www.w3.org/2000/svg" xmlns:xlink="http://www.w3.org/1999/xlink" x="0px" y="0px" viewBox="0 0 64 64" enable-background="new 0 0 64 64" xml:space="preserve">
<g id="_x35_0_fairy_x2C__wing_x2C__fairy_x2C__tale_x2C__legend_x2C__fantasy">
</g>
<g id="_x34_9_gingerbread_x2C__house_x2C__fairy_x2C__tale_x2C__legend_x2C__fantasy">
</g>
<g id="_x34_8_torch_x2C__fire_x2C__fairy_x2C__tale_x2C__legend_x2C__fantasy">
</g>
<g id="_x34_7_armor_x2C__knight_x2C__fairy_x2C__tale_x2C__legend_x2C__fantasy">
</g>
<g id="_x34_6_jester_x2C__joker_x2C__joke_x2C__fairy_x2C__tale_x2C__legend_x2C__fantasy">
</g>
<g id="_x34_5_shield_x2C__knight_x2C__crown_x2C__fairy_x2C__tale_x2C__legend_x2C__fantasy">
</g>
<g id="_x34_4_spear_x2C__knight_x2C__weapon_x2C__duel_x2C__war_x2C__fairy_x2C__tale">
</g>
<g id="_x34_3_coach_x2C__pumpkin_x2C__magic_x2C__fairy_x2C__tale_x2C__legend_x2C__fantasy">
</g>
<g id="_x34_2_sword_x2C__magic_x2C__fairy_x2C__tale_x2C__legend_x2C__fantasy">
</g>
<g id="_x34_1_dagger_x2C__blood_x2C__weapon_x2C__fairy_x2C__tale_x2C__legend_x2C__fantasy">
</g>
<g id="_x34_0_ax_x2C__weapon_x2C__war_x2C__fairy_x2C__tale_x2C__legend_x2C__fantasy">
</g>
<g id="_x33_9_ax_x2C__weapon_x2C__fairy_x2C__tale_x2C__legend_x2C__fantasy">
</g>
<g id="_x33_8_standard_x2C__flag_x2C__crown_x2C__fairy_x2C__tale_x2C__legend_x2C__fantasy">
</g>
<g id="_x33_7_trumpet_x2C__flag_x2C__crown_x2C__fairy_x2C__tale_x2C__legend_x2C__fantasy">
</g>
<g id="_x33_6_flag_x2C__crown_x2C__fairy_x2C__tale_x2C__legend_x2C__fantasy">
</g>
<g id="_x33_5_bow_x2C__arrow_x2C__weapon_x2C__fairy_x2C__tale_x2C__legend_x2C__fantasy">
	<g>
		<g>
			<path fill="#965353" d="M30.5,1c1.11,0,2,0.9,2,2s-0.89,2-2,2c-1.1,0-2-0.9-2-2S29.4,1,30.5,1z"/>
		</g>
		<g>
			<path fill="#773E3E" d="M50.5,26v2h-4v-3c0-7.19-5.81-13-13-13V9.92V9.91c0.32,0.06,0.66,0.09,1,0.09
				C43.351,10,50.5,17.16,50.5,26z"/>
		</g>
		<g>
			<rect x="46.5" y="28" fill="#ED5565" width="4" height="4"/>
		</g>
		<g>
			<rect x="46.5" y="32" fill="#ED5565" width="4" height="4"/>
		</g>
		<g>
			<path fill="#773E3E" d="M34.5,54c-0.34,0-0.68,0.03-1,0.09v-0.01V52c7.19,0,13-5.81,13-13v-3h4v2C50.5,46.84,43.351,54,34.5,54z"
				/>
		</g>
		<g>
			<path fill="#965353" d="M30.5,59c1.11,0,2,0.9,2,2s-0.89,2-2,2c-1.1,0-2-0.9-2-2S29.4,59,30.5,59z"/>
		</g>
		<g>
			<polygon fill="#E6E9ED" points="16.5,9 16.5,16 13.5,13 13.5,6 			"/>
		</g>
		<g>
			<polygon fill="#E6E9ED" points="16.5,16 16.5,9 19.5,6 19.5,13 			"/>
		</g>
	</g>
	<g>
		<g>
			<path d="M34.5,11c-3.859,0-7-3.141-7-7c0-0.553,0.447-1,1-1s1,0.447,1,1c0,2.757,2.243,5,5,5c0.553,0,1,0.447,1,1
				S35.053,11,34.5,11z"/>
		</g>
		<g>
			<path d="M50.5,27c-0.553,0-1-0.447-1-1c0-8.271-6.729-15-15-15c-0.553,0-1-0.447-1-1s0.447-1,1-1c9.374,0,17,7.626,17,17
				C51.5,26.553,51.053,27,50.5,27z"/>
		</g>
		<g>
			<path d="M46.5,26c-0.553,0-1-0.447-1-1c0-6.617-5.383-12-12-12c-0.553,0-1-0.447-1-1s0.447-1,1-1c7.72,0,14,6.28,14,14
				C47.5,25.553,47.053,26,46.5,26z"/>
		</g>
		<g>
			<path d="M30.5,6c-1.654,0-3-1.346-3-3s1.346-3,3-3s3,1.346,3,3S32.154,6,30.5,6z M30.5,2c-0.552,0-1,0.448-1,1s0.448,1,1,1
				s1-0.448,1-1S31.052,2,30.5,2z"/>
		</g>
		<g>
			<path d="M28.5,5c-0.553,0-1-0.447-1-1V3c0-0.553,0.447-1,1-1s1,0.447,1,1v1C29.5,4.553,29.053,5,28.5,5z"/>
		</g>
		<g>
			<path d="M28.5,61c-0.553,0-1-0.447-1-1c0-3.859,3.141-7,7-7c0.553,0,1,0.447,1,1s-0.447,1-1,1c-2.757,0-5,2.243-5,5
				C29.5,60.553,29.053,61,28.5,61z"/>
		</g>
		<g>
			<path d="M34.5,55c-0.553,0-1-0.447-1-1s0.447-1,1-1c8.271,0,15-6.729,15-15c0-0.553,0.447-1,1-1s1,0.447,1,1
				C51.5,47.374,43.874,55,34.5,55z"/>
		</g>
		<g>
			<path d="M33.5,53c-0.553,0-1-0.447-1-1s0.447-1,1-1c6.617,0,12-5.383,12-12c0-0.553,0.447-1,1-1s1,0.447,1,1
				C47.5,46.72,41.22,53,33.5,53z"/>
		</g>
		<g>
			<path d="M30.5,64c-1.654,0-3-1.346-3-3s1.346-3,3-3s3,1.346,3,3S32.154,64,30.5,64z M30.5,60c-0.552,0-1,0.448-1,1s0.448,1,1,1
				s1-0.448,1-1S31.052,60,30.5,60z"/>
		</g>
		<g>
			<path d="M28.5,62c-0.553,0-1-0.447-1-1v-1c0-0.553,0.447-1,1-1s1,0.447,1,1v1C29.5,61.553,29.053,62,28.5,62z"/>
		</g>
		<g>
			<path d="M50.5,39c-0.553,0-1-0.447-1-1V26c0-0.553,0.447-1,1-1s1,0.447,1,1v12C51.5,38.553,51.053,39,50.5,39z"/>
		</g>
		<g>
			<path d="M46.5,40c-0.553,0-1-0.447-1-1V25c0-0.553,0.447-1,1-1s1,0.447,1,1v14C47.5,39.553,47.053,40,46.5,40z"/>
		</g>
		<g>
			<path d="M33.5,13c-0.553,0-1-0.447-1-1V9.917c0-0.553,0.447-1,1-1s1,0.447,1,1V12C34.5,12.553,34.053,13,33.5,13z"/>
		</g>
		<g>
			<path d="M33.5,55.084c-0.553,0-1-0.447-1-1V52c0-0.553,0.447-1,1-1s1,0.447,1,1v2.084C34.5,54.637,34.053,55.084,33.5,55.084z"/>
		</g>
		<g>
			<path d="M50.5,29h-4c-0.553,0-1-0.447-1-1s0.447-1,1-1h4c0.553,0,1,0.447,1,1S51.053,29,50.5,29z"/>
		</g>
		<g>
			<path d="M50.5,33h-4c-0.553,0-1-0.447-1-1s0.447-1,1-1h4c0.553,0,1,0.447,1,1S51.053,33,50.5,33z"/>
		</g>
		<g>
			<path d="M50.5,37h-4c-0.553,0-1-0.447-1-1s0.447-1,1-1h4c0.553,0,1,0.447,1,1S51.053,37,50.5,37z"/>
		</g>
		<g>
			<path d="M28.5,61c-0.553,0-1-0.447-1-1V4c0-0.553,0.447-1,1-1s1,0.447,1,1v56C29.5,60.553,29.053,61,28.5,61z"/>
		</g>
		<g>
			<g>
				<path d="M16.5,59c-0.553,0-1-0.447-1-1V6c0-0.553,0.447-1,1-1s1,0.447,1,1v52C17.5,58.553,17.053,59,16.5,59z"/>
			</g>
			<g>
				<path d="M16.5,10c-0.256,0-0.512-0.098-0.707-0.293c-0.391-0.391-0.391-1.023,0-1.414l3-3c0.391-0.391,1.023-0.391,1.414,0
					s0.391,1.023,0,1.414l-3,3C17.012,9.902,16.756,10,16.5,10z"/>
			</g>
			<g>
				<path d="M16.5,10c-0.256,0-0.512-0.098-0.707-0.293l-3-3c-0.391-0.391-0.391-1.023,0-1.414s1.023-0.391,1.414,0l3,3
					c0.391,0.391,0.391,1.023,0,1.414C17.012,9.902,16.756,10,16.5,10z"/>
			</g>
			<g>
				<path d="M16.5,17c-0.256,0-0.512-0.098-0.707-0.293c-0.391-0.391-0.391-1.023,0-1.414l3-3c0.391-0.391,1.023-0.391,1.414,0
					s0.391,1.023,0,1.414l-3,3C17.012,16.902,16.756,17,16.5,17z"/>
			</g>
			<g>
				<path d="M16.5,17c-0.256,0-0.512-0.098-0.707-0.293l-3-3c-0.391-0.391-0.391-1.023,0-1.414s1.023-0.391,1.414,0l3,3
					c0.391,0.391,0.391,1.023,0,1.414C17.012,16.902,16.756,17,16.5,17z"/>
			</g>
			<g>
				<path d="M13.5,14c-0.553,0-1-0.447-1-1V6c0-0.553,0.447-1,1-1s1,0.447,1,1v7C14.5,13.553,14.053,14,13.5,14z"/>
			</g>
			<g>
				<path d="M19.5,14c-0.553,0-1-0.447-1-1V6c0-0.553,0.447-1,1-1s1,0.447,1,1v7C20.5,13.553,20.053,14,19.5,14z"/>
			</g>
			<g>
				<path d="M16.501,59c-0.323,0-0.641-0.156-0.833-0.445l-2-3c-0.307-0.46-0.183-1.08,0.277-1.387
					c0.46-0.306,1.081-0.182,1.387,0.277l2,3c0.307,0.46,0.183,1.08-0.277,1.387C16.884,58.945,16.691,59,16.501,59z"/>
			</g>
			<g>
				<path d="M16.499,59c-0.19,0-0.383-0.055-0.554-0.168c-0.46-0.307-0.584-0.927-0.277-1.387l2-3
					c0.305-0.459,0.925-0.583,1.387-0.277c0.46,0.307,0.584,0.927,0.277,1.387l-2,3C17.14,58.844,16.822,59,16.499,59z"/>
			</g>
		</g>
	</g>
</g>
<g id="_x33_4_crossbow_x2C__arrow_x2C__weapon_x2C__fairy_x2C__tale_x2C__legend_x2C__fantasy">
</g>
<g id="_x33_3_helmet_x2C__knight_x2C__fairy_x2C__tale_x2C__legend_x2C__fantasy">
</g>
<g id="_x33_2_palace_x2C__castle_x2C__fairy_x2C__tale_x2C__legend_x2C__fantasy">
</g>
<g id="_x33_1_stained_x2C__glass_x2C__window_x2C__sword_x2C__fairy_x2C__tale_x2C__legend">
</g>
<g id="_x33_0_little_x2C__red_x2C__riding_x2C__hood_x2C__girl_x2C__fairy_x2C__tale">
</g>
<g id="_x32_9_medusa_x2C__snake_x2C__hair_x2C__fairy_x2C__tale_x2C__legend_x2C__fantasy">
</g>
<g id="_x32_8_tower_x2C__hair_x2C__fairy_x2C__tale_x2C__legend_x2C__fantasy">
</g>
<g id="_x32_7_mirror_x2C__magic_x2C__fairy_x2C__tale_x2C__legend_x2C__fantasy">
</g>
<g id="_x32_6_ring_x2C__magic_x2C__diamond_x2C__fairy_x2C__tale_x2C__legend_x2C__fantasy">
</g>
<g id="_x32_5_sword_x2C__stone_x2C__magic_x2C__fairy_x2C__tale_x2C__legend_x2C__fantasy">
</g>
<g id="_x32_4_wizard_x2C__magician_x2C__staff_x2C__fairy_x2C__tale_x2C__legend_x2C__fantasy">
</g>
<g id="_x32_3_witch_x2C__cat_x2C__potion_x2C__fairy_x2C__tale_x2C__legend_x2C__fantasy">
</g>
<g id="_x32_2_vampire_x2C__fangs_x2C__fairy_x2C__tale_x2C__legend_x2C__fantasy">
</g>
<g id="_x32_1_leprechaun_x2C__gold_x2C__coin_x2C__fairy_x2C__tale_x2C__legend_x2C__fantasy">
</g>
<g id="_x32_0_rainbow_x2C__bird_x2C__sun_x2C__fairy_x2C__tale_x2C__legend_x2C__fantasy">
</g>
<g id="_x31_9_satyr_x2C__horn_x2C__fairy_x2C__tale_x2C__legend_x2C__fantasy">
</g>
<g id="_x31_8_lamp_x2C__jinn_x2C__magic_x2C__fairy_x2C__tale_x2C__legend_x2C__fantasy">
</g>
<g id="_x31_7_frog_x2C__princess_x2C__crown_x2C__fairy_x2C__tale_x2C__legend_x2C__fantasy">
</g>
<g id="_x31_6_royal_x2C__decree_x2C__scroll_x2C__fairy_x2C__tale_x2C__legend_x2C__fantasy">
</g>
<g id="_x31_5_cup_x2C__drink_x2C__gold_x2C__fairy_x2C__tale_x2C__legend_x2C__fantasy">
</g>
<g id="_x31_4_shield_x2C__sword_x2C__fairy_x2C__tale_x2C__legend_x2C__fantasy">
</g>
<g id="_x31_3_potion_x2C__bottle_x2C__magic_x2C__fairy_x2C__tale_x2C__legend_x2C__fantasy">
</g>
<g id="_x31_2_mermaid_x2C__fish_x2C__fairy_x2C__tale_x2C__legend_x2C__fantasy">
</g>
<g id="_x31_1_knight_x2C__helmet_x2C__fairy_x2C__tale_x2C__legend_x2C__fantasy">
</g>
<g id="_x31_0_princess_x2C__crown_x2C__fairy_x2C__tale_x2C__legend_x2C__fantasy">
</g>
<g id="_x39__queen_x2C__crown_x2C__fairy_x2C__tale_x2C__legend_x2C__fantasy">
</g>
<g id="_x38__elf_x2C__flag_x2C__fairy_x2C__tale_x2C__legend_x2C__fantasy">
</g>
<g id="_x37__castle_x2C__flag_x2C__fairy_x2C__tale_x2C__legend_x2C__fantasy">
</g>
<g id="_x36__unicorn_x2C__horn_x2C__horse_x2C__fairy_x2C__tale_x2C__legend_x2C__fantasy">
</g>
<g id="_x35__book_x2C__magic_x2C__fairy_x2C__tale_x2C__legend_x2C__fantasy">
</g>
<g id="_x34__dragon_x2C__fire_x2C__fairy_x2C__tale_x2C__legend_x2C__fantasy">
</g>
<g id="_x33__sword_x2C__duel_x2C__war_x2C__fairy_x2C__tale_x2C__legend_x2C__fantasy">
</g>
<g id="_x32__crown_x2C__king_x2C__fairy_x2C__tale_x2C__legend_x2C__fantasy">
</g>
<g id="_x31__king_x2C__crown_x2C__fairy_x2C__tale_x2C__legend_x2C__fantasy">
</g>
</svg>
