<?xml version="1.0" encoding="UTF-8" standalone="no"?>
<!-- Generator: Adobe Illustrator 19.0.0, SVG Export Plug-In . SVG Version: 6.00 Build 0)  -->

<svg
   version="1.1"
   id="Layer_1"
   x="0px"
   y="0px"
   viewBox="0 0 512.003 512.003"
   style="enable-background:new 0 0 512.003 512.003;"
   xml:space="preserve"
   sodipodi:docname="reshot-icon-pawprint-3JTZGVY9FW.svg"
   inkscape:version="1.2.1 (9c6d41e410, 2022-07-14)"
   xmlns:inkscape="http://www.inkscape.org/namespaces/inkscape"
   xmlns:sodipodi="http://sodipodi.sourceforge.net/DTD/sodipodi-0.dtd"
   xmlns="http://www.w3.org/2000/svg"
   xmlns:svg="http://www.w3.org/2000/svg"><defs
   id="defs5833" /><sodipodi:namedview
   id="namedview5831"
   pagecolor="#ffffff"
   bordercolor="#000000"
   borderopacity="0.25"
   inkscape:showpageshadow="2"
   inkscape:pageopacity="0.0"
   inkscape:pagecheckerboard="0"
   inkscape:deskcolor="#d1d1d1"
   showgrid="false"
   inkscape:zoom="1.4183485"
   inkscape:cx="94.123554"
   inkscape:cy="208.69342"
   inkscape:window-width="2560"
   inkscape:window-height="1387"
   inkscape:window-x="-8"
   inkscape:window-y="-8"
   inkscape:window-maximized="1"
   inkscape:current-layer="g5778" />
<path
   style="fill:#90622c;stroke-width:0.919387;fill-opacity:1"
   d="m 366.59643,304.70581 c -8.24062,-2.64652 -13.73751,-10.09003 -13.72905,-18.39624 v -0.15456 c 0,-49.16868 -41.71953,-89.02735 -93.18372,-89.02735 -51.46419,0 -93.18467,39.85867 -93.18467,89.02735 v 0.15456 c 0.008,8.30442 -5.4903,15.74972 -13.72905,18.39624 -37.0231,11.89093 -63.657232,45.38626 -63.470992,84.8064 0.226685,48.02199 41.044182,87.65241 91.300632,88.60048 5.80541,0.10964 11.4923,-0.28846 17.01647,-1.15117 41.15799,-6.42264 82.97629,-6.42534 124.1324,0 5.52605,0.86271 11.21482,1.26081 17.02211,1.15117 50.25551,-0.94807 91.07395,-40.57939 91.29875,-88.60138 0.18436,-39.42013 -26.44977,-72.91637 -63.47288,-84.8055 z"
   id="path5766" />
<path
   style="fill:#a4733f;stroke-width:0.919387;fill-opacity:1"
   d="m 339.68012,328.88037 c -6.16472,-1.98062 -10.27892,-7.55045 -10.27327,-13.76371 v -0.11503 c 0,-36.79068 -31.21676,-66.61504 -69.72507,-66.61504 -38.50832,0 -69.72507,29.82436 -69.72507,66.61504 v 0.11503 c 0.007,6.21506 -4.10762,11.78488 -10.27327,13.76371 -27.70266,8.89662 -47.63123,33.95904 -47.49296,63.45629 0.16836,35.93337 30.71165,65.58609 68.31416,66.29512 4.34465,0.0827 8.599,-0.21567 12.73295,-0.8618 30.79631,-4.80598 62.08549,-4.80687 92.88179,0 4.1349,0.64523 8.39113,0.94358 12.73672,0.8618 37.60345,-0.70993 68.14579,-30.36265 68.31416,-66.29602 0.14015,-29.49635 -19.78842,-54.55877 -47.49014,-63.45539 z"
   id="path5768" />
<g
   id="g5778"
   transform="matrix(0.94060367,0,0,0.89864885,18.944615,29.685113)">
	<path
   style="fill:#90622c;fill-opacity:1"
   d="m 490.79,261.942 c -13.568,27.159 -46.583,38.176 -73.742,24.608 -27.159,-13.568 -38.176,-46.583 -24.608,-73.742 13.568,-27.159 63.281,-71.599 90.439,-58.031 27.158,13.568 21.479,80.007 7.911,107.165 z"
   id="path5770" />
	<path
   style="fill:#90622c;fill-opacity:1"
   d="m 21.089,261.942 c 13.568,27.159 46.583,38.176 73.742,24.608 27.159,-13.568 38.176,-46.583 24.608,-73.742 C 105.871,185.649 56.158,141.209 29,154.777 1.84,168.345 7.521,234.784 21.089,261.942 Z"
   id="path5772" />
	<path
   style="fill:#90622c;fill-opacity:1"
   d="m 401.049,106.603 c 0,33.558 -27.204,60.763 -60.763,60.763 -33.559,0 -60.763,-27.204 -60.763,-60.763 0,-33.559 27.204,-94.589 60.763,-94.589 33.559,0 60.763,61.031 60.763,94.589 z"
   id="path5774" />
	<path
   style="fill:#90622c;fill-opacity:1"
   d="m 110.829,106.603 c 0,33.558 27.204,60.763 60.763,60.763 33.559,0 60.763,-27.204 60.763,-60.763 0,-33.559 -27.204,-94.589 -60.763,-94.589 -33.559,0 -60.763,61.031 -60.763,94.589 z"
   id="path5776" />
</g>
<g
   id="g5788"
   transform="matrix(0.94060367,0,0,0.89864885,18.944615,29.685113)">
	<path
   style="fill:#a4733f;fill-opacity:1"
   d="m 480.811,257.721 c -10.04,20.098 -34.472,28.251 -54.569,18.209 -20.097,-10.04 -28.251,-34.472 -18.209,-54.569 10.042,-20.096 46.828,-52.984 66.925,-42.942 20.097,10.042 15.893,59.205 5.853,79.302 z"
   id="path5780" />
	<path
   style="fill:#a4733f;fill-opacity:1"
   d="m 31.068,257.721 c 10.04,20.098 34.472,28.251 54.569,18.209 20.097,-10.042 28.251,-34.472 18.209,-54.569 C 93.804,201.264 57.017,168.378 36.92,178.42 16.823,188.462 21.027,237.624 31.068,257.721 Z"
   id="path5782" />
	<path
   style="fill:#a4733f;fill-opacity:1"
   d="m 385.91,118.454 c 0,24.833 -20.132,44.964 -44.964,44.964 -24.832,0 -44.964,-20.132 -44.964,-44.964 0,-24.832 20.132,-69.996 44.964,-69.996 24.832,0 44.964,45.164 44.964,69.996 z"
   id="path5784" />
	<path
   style="fill:#a4733f;fill-opacity:1"
   d="m 125.969,118.454 c 0,24.833 20.132,44.964 44.964,44.964 24.832,0 44.964,-20.132 44.964,-44.964 0,-24.832 -20.132,-69.996 -44.964,-69.996 -24.832,0 -44.964,45.164 -44.964,69.996 z"
   id="path5786" />
</g>
<path
   d="m 369.59696,296.77344 c -4.45188,-1.42885 -7.44017,-5.45659 -7.43453,-10.02892 v -0.15277 c 0,-53.95668 -45.94661,-97.85387 -102.42233,-97.85387 -56.47573,0 -102.42234,43.89719 -102.42234,97.85387 v 0.16086 c 0.004,4.56513 -2.98453,8.59288 -7.43453,10.02263 -41.92929,13.46535 -69.965863,50.92463 -69.766455,93.21235 0.136387,29.15487 13.888953,56.58163 37.732315,75.24836 3.94677,3.08776 9.76817,2.53869 13.00103,-1.23294 3.23473,-3.77073 2.65532,-9.33067 -1.28957,-12.42113 -19.56926,-15.32016 -30.855566,-37.79807 -30.967498,-61.67337 -0.163665,-34.66179 22.813398,-65.36502 57.177418,-76.40133 11.98705,-3.84981 20.0358,-14.60754 20.02451,-26.76176 v -0.15277 c 0,-44.22341 37.65707,-80.20082 83.94512,-80.20082 46.28804,0 83.94511,35.97921 83.94511,80.20082 v 0.14468 c -0.0122,12.16142 8.03464,22.92094 20.02451,26.76985 34.36119,11.03631 57.3392,41.73775 57.17742,76.39863 -0.20223,43.15941 -37.09553,78.96518 -82.24451,79.81799 -5.1545,0.0989 -10.3156,-0.25162 -15.35065,-1.03704 -42.1635,-6.5817 -84.93087,-6.5817 -127.1113,0 -5.03317,0.78452 -10.20272,1.13679 -15.34406,1.03704 -4.7698,-0.0908 -9.54995,-0.57423 -14.20876,-1.43783 -5.0059,-0.92741 -9.85659,2.19719 -10.82917,6.9807 -0.97353,4.78531 2.29883,9.41784 7.30849,10.34615 5.69535,1.05681 11.53744,1.64902 17.36542,1.75955 0.68476,0.0126 1.36576,0.0198 2.05052,0.0198 5.58436,0 11.17249,-0.43045 16.6374,-1.28417 40.20328,-6.27437 80.96622,-6.27347 121.15445,0 6.13556,0.95796 12.4235,1.38122 18.6945,1.2653 55.08928,-1.03884 100.10751,-44.72755 100.35489,-97.38658 0.19752,-42.28951 -27.83999,-79.74879 -69.7674,-93.21325 z"
   id="path5790"
   style="stroke-width:0.919387" />
<path
   d="m 477.32712,161.31291 c -14.60287,-6.96992 -34.8155,-2.31133 -56.90746,13.12117 -17.03622,11.89991 -33.33217,29.17194 -40.55037,42.97878 -2.14457,4.09784 -3.77934,8.42124 -4.85916,12.84978 -1.15694,4.74756 1.93295,9.49243 6.9031,10.59867 4.96638,1.10893 9.93371,-1.84673 11.09347,-6.59339 0.75155,-3.08416 1.89156,-6.09913 3.39088,-8.96492 5.92863,-11.33466 20.2907,-26.39332 34.92744,-36.61904 15.76169,-11.00935 29.87169,-15.33904 37.74736,-11.57909 17.86395,8.52638 15.36382,61.40377 3.30622,84.464 -10.46609,20.01291 -36.02229,28.15916 -56.97048,18.16259 -8.52845,-4.07088 -15.20768,-10.55283 -19.31153,-18.74401 -2.20196,-4.39799 -7.72048,-6.2564 -12.32097,-4.14907 -4.60143,2.10374 -6.5466,7.37522 -4.34277,11.77141 5.89477,11.76601 15.47952,21.07241 27.71959,26.91363 8.7194,4.16254 17.99375,6.13328 27.13642,6.13238 22.37602,-9e-4 43.95629,-11.80914 54.61709,-32.19769 7.22102,-13.80774 11.88923,-36.62983 11.61928,-56.78922 -0.35461,-26.14618 -8.59242,-44.38426 -23.19811,-51.35598 z"
   id="path5792"
   style="stroke-width:0.919387" />
<path
   d="m 112.32963,295.52252 c 14.56337,-6.95015 25.42075,-18.90308 30.57338,-33.6562 5.15263,-14.75221 3.98346,-30.53968 -3.29211,-44.45166 -7.21913,-13.80774 -23.51698,-31.08067 -40.552249,-42.97968 -22.091958,-15.4316 -42.305531,-20.09289 -56.908403,-13.12117 -14.605694,6.97082 -22.8435,25.2089 -23.194346,51.35419 -0.270893,20.16028 4.397323,42.98237 11.619277,56.78921 v 0 c 10.661743,20.39034 32.240132,32.19679 54.617093,32.19679 9.140786,9e-4 18.418898,-1.97073 27.137358,-6.13148 z M 47.102526,261.56887 v 0 c -12.056657,-23.05933 -14.559604,-75.93672 3.304341,-84.464 7.878496,-3.75905 21.986611,0.57064 37.748306,11.57909 14.638617,10.22572 29.000697,25.28348 34.927437,36.61994 5.06891,9.69462 5.88442,20.69588 2.29319,30.97463 -3.59028,10.27964 -11.15744,18.60922 -21.30467,23.45114 -20.947246,10.00016 -46.502507,1.85211 -56.968604,-18.1608 z"
   id="path5794"
   style="stroke-width:0.919387" />
<path
   d="m 339.07719,189.34716 c 36.60924,0 66.39157,-28.45392 66.39157,-63.43023 0,-32.957053 -27.37909,-93.827931 -66.39157,-93.827931 -39.01247,0 -66.39063,60.870878 -66.39063,93.827931 -9.4e-4,34.97541 29.7814,63.43023 66.39063,63.43023 z M 306.70538,76.450799 c 10.04282,-16.974578 21.84176,-26.708742 32.37087,-26.708742 10.53006,0 22.32805,9.735063 32.37182,26.708742 9.29693,15.713778 15.54347,35.592791 15.54347,49.466131 0,25.24305 -21.49467,45.77807 -47.91529,45.77807 -26.41967,0 -47.91435,-20.53502 -47.91435,-45.77807 0,-13.87334 6.24749,-33.752353 15.54348,-49.466131 z"
   id="path5796"
   style="stroke-width:0.919387" />
<path
   d="m 180.40018,189.34716 c 9.98733,0 19.59089,-2.06869 28.54732,-6.14856 4.60425,-2.09834 6.55789,-7.36532 4.36158,-11.76601 -2.19631,-4.40068 -7.70825,-6.26627 -12.31533,-4.16703 -6.45066,2.93948 -13.37914,4.42944 -20.59357,4.42944 -26.41968,0 -47.91435,-20.53502 -47.91435,-45.77807 0,-13.87334 6.24654,-33.752353 15.54347,-49.466131 10.04283,-16.974578 21.84176,-26.708742 32.37088,-26.708742 10.52911,0 22.32805,9.735063 32.37087,26.708742 9.29693,15.713778 15.54348,35.592791 15.54348,49.466131 0,9.1743 -2.8284,18.0233 -8.17761,25.58992 -2.85567,4.03853 -1.74388,9.52478 2.48413,12.25398 4.22896,2.7292 9.97134,1.66609 12.82607,-2.37333 7.42043,-10.49442 11.34369,-22.76098 11.34369,-35.47057 0,-32.957053 -27.3791,-93.827931 -66.39063,-93.827931 -39.01154,0 -66.39063,60.870878 -66.39063,93.827931 0,34.97541 29.78233,63.43023 66.39063,63.43023 z"
   id="path5798"
   style="stroke-width:0.919387" />
<g
   id="g5800">
</g>
<g
   id="g5802">
</g>
<g
   id="g5804">
</g>
<g
   id="g5806">
</g>
<g
   id="g5808">
</g>
<g
   id="g5810">
</g>
<g
   id="g5812">
</g>
<g
   id="g5814">
</g>
<g
   id="g5816">
</g>
<g
   id="g5818">
</g>
<g
   id="g5820">
</g>
<g
   id="g5822">
</g>
<g
   id="g5824">
</g>
<g
   id="g5826">
</g>
<g
   id="g5828">
</g>
</svg>
