<?xml version="1.0" encoding="iso-8859-1"?>
<!-- Generator: Adobe Illustrator 19.0.0, SVG Export Plug-In . SVG Version: 6.00 Build 0)  -->
<svg version="1.1" id="Layer_1" xmlns="http://www.w3.org/2000/svg" xmlns:xlink="http://www.w3.org/1999/xlink" x="0px" y="0px"
	 viewBox="0 0 512 512" style="enable-background:new 0 0 512 512;" xml:space="preserve">
<polygon style="fill:#EFBE52;" points="406.761,201.066 406.761,307.522 280.026,307.522 239.468,307.522 105.13,307.522 
	54.439,254.3 105.13,201.066 239.468,201.066 280.026,201.066 "/>
<polygon style="fill:#FED159;" points="116.277,281.508 90.361,254.297 116.28,227.08 380.747,227.08 380.747,281.508 "/>
<polygon style="fill:#EFBE52;" points="406.761,41.388 457.452,94.61 406.761,147.844 280.026,147.844 239.468,147.844 
	105.13,147.844 105.13,41.388 239.468,41.388 280.026,41.388 "/>
<polygon style="fill:#FED159;" points="395.837,67.402 421.753,94.611 395.835,121.83 131.369,121.83 131.369,67.402 "/>
<rect x="239.469" y="307.519" style="fill:#CC9758;" width="40.558" height="195.175"/>
<rect x="239.469" y="307.519" style="fill:#B78046;" width="40.558" height="44.259"/>
<rect x="239.469" y="8.433" style="fill:#CC9758;" width="40.558" height="32.955"/>
<rect x="239.469" y="147.841" style="fill:#B78046;" width="40.558" height="53.222"/>
<path d="M406.815,157.147c2.428,0,4.749-0.994,6.423-2.753l50.692-53.234c3.261-3.424,3.261-8.807-0.001-12.232l-50.692-53.222
	c-1.673-1.757-3.994-2.752-6.422-2.752H288.949V8.868c0-4.898-3.969-8.868-8.868-8.868h-40.559c-4.899,0-8.868,3.971-8.868,8.868
	v24.086H195.7c-4.899,0-8.868,3.971-8.868,8.868s3.969,8.868,8.868,8.868h207.314l42.245,44.354l-42.245,44.365H114.053V50.692
	h50.313c4.899,0,8.868-3.971,8.868-8.868s-3.969-8.868-8.868-8.868h-59.182c-4.899,0-8.868,3.971-8.868,8.868v106.456
	c0,4.898,3.969,8.868,8.868,8.868h125.468v35.485H105.185c-2.428,0-4.749,0.994-6.423,2.753L48.07,248.619
	c-3.261,3.424-3.261,8.807,0.001,12.232l50.692,53.222c1.673,1.757,3.994,2.752,6.422,2.752h125.468v177.438h-83.645
	c-4.899,0-8.868,3.971-8.868,8.868c0,4.898,3.969,8.868,8.868,8.868h225.586c4.899,0,8.868-3.971,8.868-8.868
	c0-4.898-3.969-8.868-8.868-8.868h-83.645V336.726c0-4.898-3.969-8.868-8.868-8.868c-4.899,0-8.868,3.971-8.868,8.868v157.538
	H248.39V316.825h158.424c4.899,0,8.868-3.971,8.868-8.868v-60.506c0-4.898-3.969-8.868-8.868-8.868s-8.868,3.971-8.868,8.868v51.638
	H108.985L66.74,254.735l42.246-44.365h288.961v9.294c0,4.898,3.969,8.868,8.868,8.868s8.868-3.971,8.868-8.868v-18.162
	c0-4.898-3.969-8.868-8.868-8.868H288.949v-35.485H406.815z M248.39,17.737h22.822v15.218H248.39V17.737z M271.212,192.633H248.39
	v-35.485h22.822V192.633z"/>
<g>
</g>
<g>
</g>
<g>
</g>
<g>
</g>
<g>
</g>
<g>
</g>
<g>
</g>
<g>
</g>
<g>
</g>
<g>
</g>
<g>
</g>
<g>
</g>
<g>
</g>
<g>
</g>
<g>
</g>
</svg>
