<?xml version="1.0" encoding="UTF-8" standalone="no"?>
<!-- Generator: Adobe Illustrator 19.0.0, SVG Export Plug-In . SVG Version: 6.00 Build 0)  -->

<svg
   version="1.1"
   id="Layer_1"
   x="0px"
   y="0px"
   viewBox="0 0 512 512"
   style="enable-background:new 0 0 512 512;"
   xml:space="preserve"
   sodipodi:docname="icon-trail.svg"
   inkscape:version="1.2.1 (9c6d41e410, 2022-07-14)"
   xmlns:inkscape="http://www.inkscape.org/namespaces/inkscape"
   xmlns:sodipodi="http://sodipodi.sourceforge.net/DTD/sodipodi-0.dtd"
   xmlns="http://www.w3.org/2000/svg"
   xmlns:svg="http://www.w3.org/2000/svg"><defs
   id="defs42828" /><sodipodi:namedview
   id="namedview42826"
   pagecolor="#ffffff"
   bordercolor="#000000"
   borderopacity="0.25"
   inkscape:showpageshadow="2"
   inkscape:pageopacity="0.0"
   inkscape:pagecheckerboard="0"
   inkscape:deskcolor="#d1d1d1"
   showgrid="false"
   inkscape:zoom="0.12536621"
   inkscape:cx="-829.56962"
   inkscape:cy="-2273.3398"
   inkscape:window-width="2560"
   inkscape:window-height="1387"
   inkscape:window-x="-8"
   inkscape:window-y="-8"
   inkscape:window-maximized="1"
   inkscape:current-layer="Layer_1" />
<path
   style="fill:#2ba5f7;stroke-width:1.14561"
   d="m 470.14461,283.07011 v 0 c -30.88698,-30.3277 -80.96443,-30.3277 -111.8514,0 v 0 c -30.88697,30.32771 -30.88697,79.49841 0,109.82612 l 55.92628,54.91363 55.92627,-54.91363 c 30.88582,-30.32771 30.88582,-79.49841 -10e-4,-109.82612 z"
   id="path42775" />
<ellipse
   style="fill:#e6e6e6;stroke-width:1.14561"
   cx="414.21484"
   cy="338.54449"
   id="circle42777"
   rx="28.811731"
   ry="28.290041" />
<path
   style="fill:#f95428;stroke-width:1.17533"
   d="m 148.39283,56.640858 v 0 c -30.84504,-31.965193 -80.854507,-31.965193 -111.699548,0 v 0 c -30.8450409,31.965193 -30.8450409,83.790772 0,115.755972 l 55.850353,57.87858 55.850355,-57.87858 c 30.84273,-31.9652 30.84273,-83.790779 -9.7e-4,-115.755972 z"
   id="path42779" />
<circle
   style="fill:#e6e6e6"
   cx="98.775497"
   cy="111.57458"
   id="circle42781"
   r="24.921" />
<g
   id="g42791">
	<path
   style="fill:#333333;stroke-width:1.17982"
   d="m 94.785902,243.708 c -3.608347,0 -7.069463,-1.41501 -9.619884,-3.93435 L 27.730487,183.06323 c -36.9739825,-36.50762 -36.9739825,-95.908546 0,-132.417333 36.975169,-36.507614 97.139223,-36.507614 134.114393,0 36.97398,36.507615 36.97398,95.908543 0,132.417333 l -57.43791,56.71042 c -2.5516,2.51817 -6.012721,3.93435 -9.621068,3.93435 z m 0,-193.58848 c -17.317454,0 -34.632534,6.507619 -47.814459,19.52403 -26.366225,26.032821 -26.366225,68.3892 0,94.42202 l 47.814459,47.21219 47.816838,-47.21219 c 26.36622,-26.03282 26.36622,-68.389199 0,-94.42202 C 129.41844,56.628311 112.10336,50.11952 94.785902,50.11952 Z"
   id="path42783" />
	<path
   style="fill:#333333;stroke-width:1.17982"
   d="m 94.785902,160.08902 c -23.818179,0 -43.19568,-19.1313 -43.19568,-42.64946 0,-23.516999 19.376314,-42.64947 43.19568,-42.64947 7.514718,0 13.605808,6.014068 13.605808,13.433762 0,7.419694 -6.09109,13.433758 -13.605808,13.433758 -8.813676,0 -15.985251,7.08089 -15.985251,15.78312 0,8.7034 7.171575,15.78311 15.985251,15.78311 8.814868,0 15.985248,-7.08089 15.985248,-15.78311 0,-7.4197 6.09109,-13.43376 13.60581,-13.43376 7.51472,0 13.60581,6.01406 13.60581,13.43376 -10e-4,23.51582 -19.37869,42.64829 -43.196868,42.64829 z"
   id="path42785" />
	<path
   style="fill:#333333;stroke-width:1.14561"
   d="m 414.21949,460.81685 c -3.38976,0 -6.78182,-1.26914 -9.36691,-3.80969 l -55.92512,-54.91249 c -36.00282,-35.35092 -36.00282,-92.86981 0,-128.22186 17.44011,-17.12432 40.62962,-26.55547 65.29318,-26.55547 24.66472,0 47.85308,9.43115 65.29319,26.55547 v 0 c 36.00165,35.35092 36.00165,92.8698 0,128.22186 l -55.92513,54.91249 c -2.58855,2.53941 -5.97831,3.80969 -9.36921,3.80969 z m -0.001,-187.48552 c -17.58809,0 -34.1218,6.72486 -46.55706,18.93495 -25.67286,25.208 -25.67286,66.22238 0,91.43038 l 46.55937,45.71405 46.55706,-45.71405 c 25.67286,-25.208 25.67286,-66.22238 0,-91.43038 v 0 c -12.43525,-12.21009 -28.97012,-18.93495 -46.55937,-18.93495 z"
   id="path42787" />
	<path
   style="fill:#333333;stroke-width:1.14561"
   d="m 414.21949,379.84723 c -23.19182,0 -42.05975,-18.52514 -42.05975,-41.29817 0,-22.77302 18.86908,-41.29817 42.05975,-41.29817 7.3171,0 13.24801,5.82352 13.24801,13.00813 0,7.18461 -5.93091,13.00813 -13.24801,13.00813 -8.58306,0 -15.56488,6.85654 -15.56488,15.28305 0,8.4265 6.98298,15.28305 15.56488,15.28305 8.58189,0 15.56488,-6.85655 15.56488,-15.28305 0,-7.18461 5.9309,-13.00813 13.24801,-13.00813 7.3171,0 13.248,5.82352 13.248,13.00813 -0.002,22.77075 -18.86907,41.29703 -42.06089,41.29703 z"
   id="path42789" />
</g>
<path
   style="fill:#4d4d4d;stroke-width:1.03918"
   d="m 405.44024,466.75771 -195.13436,0.54014 c -37.83328,0.10477 -68.61367,-29.4768 -68.61367,-65.70808 0,-36.23127 30.78027,-65.70809 68.61367,-65.70809 h 43.93403 c 24.41523,0 44.27808,-19.02172 44.27808,-42.40303 0,-23.38131 -19.86285,-42.40303 -44.27808,-42.40303 H 95.546263 c -6.720775,0 -12.168327,-5.21687 -12.168327,-11.65304 0,-6.43616 5.447552,-11.65302 12.168327,-11.65302 H 254.23991 c 37.8334,0 68.61367,29.4768 68.61367,65.70808 0,36.23127 -30.78027,65.70807 -68.61367,65.70807 h -43.93403 c -24.41523,0 -44.27808,19.02173 -44.27808,42.40305 0,23.38131 19.86293,42.3351 44.27808,42.40303 l 194.13728,0.54014 c 6.72075,0.0187 13.66395,7.3774 13.66395,13.81356 -10e-4,6.43617 -5.94718,8.39362 -12.66687,8.41222 z"
   id="path42793"
   sodipodi:nodetypes="ssssssssssssssssscs" /><path
   style="fill:#4d4d4d;stroke-width:1.03918"
   d="m 404.28231,483.02514 -195.13436,0.54014 c -37.83328,0.10477 -68.61367,-29.4768 -68.61367,-65.70808 0,-36.23127 30.78027,-65.70809 68.61367,-65.70809 h 43.93403 c 24.41523,0 44.27808,-19.02172 44.27808,-42.40303 0,-23.38131 -19.86285,-42.40303 -44.27808,-42.40303 H 94.388333 c -6.720772,0 -12.168324,-5.21687 -12.168324,-11.65304 0,-6.43616 5.447552,-11.65302 12.168324,-11.65302 H 253.08198 c 37.8334,0 68.61367,29.4768 68.61367,65.70808 0,36.23127 -30.78027,65.70807 -68.61367,65.70807 h -43.93403 c -24.41523,0 -44.27808,19.02173 -44.27808,42.40305 0,23.38131 19.86293,42.3351 44.27808,42.40303 l 194.13728,0.54014 c 6.72075,0.0187 13.66395,7.3774 13.66395,13.81356 -0.001,6.43617 -5.94718,8.39362 -12.66687,8.41222 z"
   id="path42793-0"
   sodipodi:nodetypes="ssssssssssssssssscs" />
<g
   id="g42795">
</g>
<g
   id="g42797">
</g>
<g
   id="g42799">
</g>
<g
   id="g42801">
</g>
<g
   id="g42803">
</g>
<g
   id="g42805">
</g>
<g
   id="g42807">
</g>
<g
   id="g42809">
</g>
<g
   id="g42811">
</g>
<g
   id="g42813">
</g>
<g
   id="g42815">
</g>
<g
   id="g42817">
</g>
<g
   id="g42819">
</g>
<g
   id="g42821">
</g>
<g
   id="g42823">
</g>
</svg>
