<?xml version="1.0" encoding="iso-8859-1"?>
<!-- Generator: Adobe Illustrator 19.0.0, SVG Export Plug-In . SVG Version: 6.00 Build 0)  -->
<svg version="1.1" id="Layer_1" xmlns="http://www.w3.org/2000/svg" xmlns:xlink="http://www.w3.org/1999/xlink" x="0px" y="0px"
	 viewBox="0 0 512.002 512.002" style="enable-background:new 0 0 512.002 512.002;" xml:space="preserve">
<path style="fill:#EE4948;" d="M379.823,59.856c58.768,58.768,68.152,150.74,22.475,220.164L255.954,502.472L109.598,280.019
	c-19.363-29.438-28.833-62.933-28.833-96.222c0-45.229,17.462-90.095,51.308-123.941C200.493-8.551,311.416-8.551,379.823,59.856z"
	/>
<path style="fill:#72C5D5;" d="M255.954,59.856c67.729,0,122.645,54.917,122.645,122.645c0,67.741-54.917,122.645-122.645,122.645
	c-67.741,0-122.645-54.905-122.645-122.645C133.309,114.772,188.213,59.856,255.954,59.856z"/>
<path style="fill:#A2E4ED;" d="M255.954,277.295c-52.27,0-94.794-42.524-94.794-94.794s42.524-94.794,94.794-94.794
	s94.794,42.524,94.794,94.794C350.747,234.771,308.223,277.295,255.954,277.295z"/>
<polygon style="fill:#44BCCC;" points="277.667,204.214 195.237,243.218 234.242,160.789 "/>
<polygon style="fill:#EE4948;" points="316.659,121.784 277.667,204.214 234.242,160.789 "/>
<path d="M439.318,165.465c-4.293-42.061-23.122-81.69-53.018-111.585c-71.84-71.841-188.741-71.841-260.593,0
	C90.906,88.682,71.739,134.98,71.739,184.244c0,36.051,10.487,71.05,30.327,101.215l146.356,222.452
	c1.68,2.554,4.531,4.091,7.588,4.091s5.907-1.538,7.588-4.091L409.942,285.46C433.179,250.14,443.611,207.525,439.318,165.465z
	 M394.767,275.473L256.01,486.393L117.242,275.475c-17.886-27.191-27.339-58.739-27.339-91.232
	c0-44.412,17.277-86.149,48.648-117.518c32.389-32.383,74.917-48.569,117.458-48.569c42.53,0,85.072,16.194,117.448,48.568
	c26.949,26.949,43.921,62.671,47.792,100.586S415.713,243.637,394.767,275.473z"/>
<path d="M362.518,121.425c-4.516,2.185-6.405,7.616-4.219,12.131c7.481,15.461,11.274,32.078,11.274,49.391
	c0,62.618-50.944,113.563-113.563,113.563s-113.563-50.945-113.563-113.563S193.39,69.385,256.01,69.385
	c30.056,0,58.389,11.63,79.778,32.747c3.57,3.524,9.32,3.486,12.843-0.082c3.524-3.569,3.486-9.32-0.082-12.843
	C323.737,64.71,290.873,51.22,256.01,51.22c-72.634,0-131.728,59.092-131.728,131.728s59.092,131.728,131.728,131.728
	s131.728-59.093,131.728-131.728c0-20.075-4.403-39.355-13.088-57.302C372.466,121.129,367.033,119.241,362.518,121.425z"/>
<path d="M312.829,114.02l-82.418,39.005c-1.898,0.899-3.426,2.427-4.324,4.324l-39.005,82.43c-1.641,3.468-0.926,7.594,1.787,10.306
	c1.741,1.741,4.065,2.66,6.424,2.66c1.315,0,2.641-0.286,3.882-0.873l82.43-39.005c1.899-0.899,3.427-2.427,4.326-4.326
	l38.993-82.43c1.641-3.468,0.925-7.594-1.789-10.306C320.423,113.094,316.299,112.38,312.829,114.02z M236.992,176.773
	l25.191,25.191l-47.818,22.628L236.992,176.773z M275.027,189.119l-25.191-25.191l47.811-22.627L275.027,189.119z"/>
<g>
</g>
<g>
</g>
<g>
</g>
<g>
</g>
<g>
</g>
<g>
</g>
<g>
</g>
<g>
</g>
<g>
</g>
<g>
</g>
<g>
</g>
<g>
</g>
<g>
</g>
<g>
</g>
<g>
</g>
</svg>
