<?xml version="1.0" encoding="utf-8"?>
<!-- Generator: Adobe Illustrator 16.0.0, SVG Export Plug-In . SVG Version: 6.00 Build 0)  -->
<!DOCTYPE svg PUBLIC "-//W3C//DTD SVG 1.1//EN" "http://www.w3.org/Graphics/SVG/1.1/DTD/svg11.dtd">
<svg version="1.1" xmlns="http://www.w3.org/2000/svg" xmlns:xlink="http://www.w3.org/1999/xlink" x="0px" y="0px" viewBox="0 0 64 64" enable-background="new 0 0 64 64" xml:space="preserve">
<g id="_x35_0_fairy_x2C__wing_x2C__fairy_x2C__tale_x2C__legend_x2C__fantasy">
</g>
<g id="_x34_9_gingerbread_x2C__house_x2C__fairy_x2C__tale_x2C__legend_x2C__fantasy">
</g>
<g id="_x34_8_torch_x2C__fire_x2C__fairy_x2C__tale_x2C__legend_x2C__fantasy">
</g>
<g id="_x34_7_armor_x2C__knight_x2C__fairy_x2C__tale_x2C__legend_x2C__fantasy">
</g>
<g id="_x34_6_jester_x2C__joker_x2C__joke_x2C__fairy_x2C__tale_x2C__legend_x2C__fantasy">
</g>
<g id="_x34_5_shield_x2C__knight_x2C__crown_x2C__fairy_x2C__tale_x2C__legend_x2C__fantasy">
</g>
<g id="_x34_4_spear_x2C__knight_x2C__weapon_x2C__duel_x2C__war_x2C__fairy_x2C__tale">
</g>
<g id="_x34_3_coach_x2C__pumpkin_x2C__magic_x2C__fairy_x2C__tale_x2C__legend_x2C__fantasy">
</g>
<g id="_x34_2_sword_x2C__magic_x2C__fairy_x2C__tale_x2C__legend_x2C__fantasy">
</g>
<g id="_x34_1_dagger_x2C__blood_x2C__weapon_x2C__fairy_x2C__tale_x2C__legend_x2C__fantasy">
</g>
<g id="_x34_0_ax_x2C__weapon_x2C__war_x2C__fairy_x2C__tale_x2C__legend_x2C__fantasy">
</g>
<g id="_x33_9_ax_x2C__weapon_x2C__fairy_x2C__tale_x2C__legend_x2C__fantasy">
</g>
<g id="_x33_8_standard_x2C__flag_x2C__crown_x2C__fairy_x2C__tale_x2C__legend_x2C__fantasy">
</g>
<g id="_x33_7_trumpet_x2C__flag_x2C__crown_x2C__fairy_x2C__tale_x2C__legend_x2C__fantasy">
</g>
<g id="_x33_6_flag_x2C__crown_x2C__fairy_x2C__tale_x2C__legend_x2C__fantasy">
</g>
<g id="_x33_5_bow_x2C__arrow_x2C__weapon_x2C__fairy_x2C__tale_x2C__legend_x2C__fantasy">
</g>
<g id="_x33_4_crossbow_x2C__arrow_x2C__weapon_x2C__fairy_x2C__tale_x2C__legend_x2C__fantasy">
</g>
<g id="_x33_3_helmet_x2C__knight_x2C__fairy_x2C__tale_x2C__legend_x2C__fantasy">
</g>
<g id="_x33_2_palace_x2C__castle_x2C__fairy_x2C__tale_x2C__legend_x2C__fantasy">
</g>
<g id="_x33_1_stained_x2C__glass_x2C__window_x2C__sword_x2C__fairy_x2C__tale_x2C__legend">
</g>
<g id="_x33_0_little_x2C__red_x2C__riding_x2C__hood_x2C__girl_x2C__fairy_x2C__tale">
</g>
<g id="_x32_9_medusa_x2C__snake_x2C__hair_x2C__fairy_x2C__tale_x2C__legend_x2C__fantasy">
</g>
<g id="_x32_8_tower_x2C__hair_x2C__fairy_x2C__tale_x2C__legend_x2C__fantasy">
</g>
<g id="_x32_7_mirror_x2C__magic_x2C__fairy_x2C__tale_x2C__legend_x2C__fantasy">
</g>
<g id="_x32_6_ring_x2C__magic_x2C__diamond_x2C__fairy_x2C__tale_x2C__legend_x2C__fantasy">
</g>
<g id="_x32_5_sword_x2C__stone_x2C__magic_x2C__fairy_x2C__tale_x2C__legend_x2C__fantasy">
</g>
<g id="_x32_4_wizard_x2C__magician_x2C__staff_x2C__fairy_x2C__tale_x2C__legend_x2C__fantasy">
</g>
<g id="_x32_3_witch_x2C__cat_x2C__potion_x2C__fairy_x2C__tale_x2C__legend_x2C__fantasy">
	<g>
		<g>
			<path fill="#434A54" d="M19.89,58.71l-0.01,0.01l-0.22,0.24l-3.2,3.41C16.08,62.77,15.55,63,15,63c-0.51,0-1-0.19-1.37-0.54
				c-0.8-0.76-0.84-2.02-0.09-2.83l3.04-3.24C17.61,57.25,18.72,58.03,19.89,58.71z"/>
		</g>
		<g>
			<path fill="#656D78" d="M45,24h6.5c2.83,3.94,4.5,8.78,4.5,14c0,7.38-3.33,13.98-8.58,18.39c-1.03,0.86-2.14,1.641-3.31,2.32
				C40.56,60.8,36.42,62,32,62s-8.56-1.2-12.11-3.29c-1.17-0.68-2.279-1.46-3.31-2.32C11.33,51.98,8,45.38,8,38
				c0-5.22,1.67-10.06,4.5-14H18h9H45z"/>
		</g>
		<g>
			<path fill="#434A54" d="M51.5,24h-4c2.83,3.94,4.5,8.78,4.5,14c0,7.38-3.33,13.98-8.58,18.39c-1.03,0.86-2.14,1.641-3.31,2.32
				c-3.009,1.771-6.443,2.894-10.11,3.198C30.66,61.963,31.325,62,32,62c4.42,0,8.56-1.2,12.11-3.29c1.17-0.68,2.279-1.46,3.31-2.32
				C52.67,51.98,56,45.38,56,38C56,32.78,54.33,27.94,51.5,24z"/>
		</g>
		<g>
			<path fill="#353B44" d="M50.46,59.63c0.75,0.811,0.71,2.07-0.09,2.83C50,62.81,49.51,63,49,63c-0.55,0-1.08-0.23-1.46-0.63
				l-3.2-3.41l-0.22-0.24l-0.01-0.01c1.17-0.68,2.279-1.46,3.31-2.32L50.46,59.63z"/>
		</g>
		<g>
			<path fill="#A0D468" d="M45,6c1.1,0,2,0.9,2,2s-0.9,2-2,2s-2-0.9-2-2S43.9,6,45,6z"/>
		</g>
		<g>
			<path fill="#A0D468" d="M24,20h-6c0-1.66,1.34-3,3-3S24,18.34,24,20z"/>
		</g>
		<g>
			<path fill="#CCD1D9" d="M52,20h-7h-9h-9h-3h-6h-6c-1.1,0-2,0.9-2,2s0.9,2,2,2h0.5H18h9h18h6.5H52c1.1,0,2-0.9,2-2S53.1,20,52,20z
				"/>
		</g>
		<g>
			<path fill="#AAB2BD" d="M52,20h-4c1.1,0,2,0.9,2,2s-0.9,2-2,2h3.5H52c1.1,0,2-0.9,2-2S53.1,20,52,20z"/>
		</g>
		<g>
			<circle fill="#A0D468" cx="15.5" cy="7.5" r="1.5"/>
		</g>
	</g>
	<g>
		<g>
			<path d="M47.03,17c-0.553,0-1.005-0.447-1.005-1s0.442-1,0.994-1h0.011c0.552,0,1,0.447,1,1S47.582,17,47.03,17z"/>
		</g>
		<g>
			<path d="M32,63C18.215,63,7,51.785,7,38c0-5.274,1.622-10.317,4.692-14.584c0.322-0.448,0.946-0.551,1.396-0.228
				c0.448,0.322,0.551,0.947,0.228,1.396C10.492,28.508,9,33.147,9,38c0,12.683,10.317,23,23,23s23-10.317,23-23
				c0-4.852-1.492-9.491-4.316-13.416c-0.323-0.448-0.221-1.073,0.228-1.396c0.448-0.32,1.073-0.22,1.396,0.228
				C55.377,27.684,57,32.727,57,38C57,51.785,45.785,63,32,63z"/>
		</g>
		<g>
			<path d="M52,21H12c-0.553,0-1-0.447-1-1s0.447-1,1-1h40c0.553,0,1,0.447,1,1S52.553,21,52,21z"/>
		</g>
		<g>
			<path d="M52,25H12c-0.553,0-1-0.447-1-1s0.447-1,1-1h40c0.553,0,1,0.447,1,1S52.553,25,52,25z"/>
		</g>
		<g>
			<path d="M12,25c-1.654,0-3-1.346-3-3s1.346-3,3-3c0.553,0,1,0.447,1,1s-0.447,1-1,1c-0.552,0-1,0.448-1,1s0.448,1,1,1
				c0.553,0,1,0.447,1,1S12.553,25,12,25z"/>
		</g>
		<g>
			<path d="M52,25c-0.553,0-1-0.447-1-1s0.447-1,1-1c0.552,0,1-0.448,1-1s-0.448-1-1-1c-0.553,0-1-0.447-1-1s0.447-1,1-1
				c1.654,0,3,1.346,3,3S53.654,25,52,25z"/>
		</g>
		<g>
			<path d="M15,64c-0.765,0-1.493-0.288-2.051-0.811c-1.208-1.133-1.27-3.035-0.138-4.242l3.039-3.24
				c0.378-0.401,1.01-0.422,1.414-0.045c0.402,0.378,0.423,1.011,0.045,1.414l-3.039,3.24c-0.377,0.401-0.356,1.036,0.047,1.414
				c0.383,0.36,1.046,0.341,1.415-0.049l3.418-3.645c0.376-0.404,1.008-0.425,1.413-0.048c0.403,0.376,0.425,1.009,0.048,1.413
				l-3.423,3.651C16.618,63.656,15.821,64,15,64z"/>
		</g>
		<g>
			<path d="M49.001,64c-0.821,0-1.618-0.344-2.186-0.943l-3.427-3.655c-0.377-0.403-0.355-1.036,0.048-1.413
				c0.402-0.378,1.037-0.355,1.413,0.048l3.422,3.648c0.364,0.384,1.027,0.406,1.413,0.046c0.402-0.378,0.423-1.013,0.046-1.414
				l-3.04-3.241c-0.378-0.403-0.357-1.036,0.045-1.414c0.404-0.376,1.036-0.356,1.414,0.045l3.04,3.241
				c1.132,1.207,1.07,3.109-0.137,4.242C50.494,63.712,49.766,64,49.001,64z"/>
		</g>
		<g>
			<path d="M27,33c-0.553,0-1-0.447-1-1V20c0-0.553,0.447-1,1-1s1,0.447,1,1v12C28,32.553,27.553,33,27,33z"/>
		</g>
		<g>
			<path d="M36,22c-0.553,0-1-0.447-1-1v-1c0-0.553,0.447-1,1-1s1,0.447,1,1v1C37,21.553,36.553,22,36,22z"/>
		</g>
		<g>
			<path d="M45,26c-0.553,0-1-0.447-1-1v-5c0-0.553,0.447-1,1-1s1,0.447,1,1v5C46,25.553,45.553,26,45,26z"/>
		</g>
		<g>
			<path d="M18,28c-0.553,0-1-0.447-1-1v-7c0-0.553,0.447-1,1-1s1,0.447,1,1v7C19,27.553,18.553,28,18,28z"/>
		</g>
		<g>
			<g>
				<path d="M27.001,16c-0.367,0-0.72-0.202-0.896-0.553c-0.247-0.494-0.047-1.095,0.447-1.342c0.03-0.016,0.953-0.513,1.176-1.578
					c0.219-1.046-0.304-2.396-1.51-3.903c-1.628-2.036-2.266-3.922-1.896-5.604c0.439-1.999,2.157-2.878,2.229-2.914
					c0.494-0.246,1.096-0.047,1.342,0.447c0.245,0.492,0.049,1.089-0.439,1.338c-0.051,0.026-0.963,0.523-1.184,1.581
					c-0.219,1.046,0.304,2.395,1.51,3.902c1.628,2.036,2.266,3.922,1.896,5.604c-0.439,2-2.156,2.88-2.229,2.916
					C27.304,15.966,27.151,16,27.001,16z"/>
			</g>
			<g>
				<path d="M36.001,16c-0.367,0-0.72-0.202-0.896-0.553c-0.247-0.494-0.047-1.095,0.447-1.342c0.03-0.016,0.953-0.513,1.176-1.578
					c0.219-1.046-0.304-2.396-1.51-3.903c-1.628-2.036-2.266-3.922-1.896-5.604c0.439-1.999,2.157-2.878,2.229-2.914
					c0.493-0.246,1.096-0.047,1.342,0.447c0.245,0.492,0.049,1.089-0.439,1.338c-0.051,0.026-0.963,0.523-1.184,1.581
					c-0.219,1.046,0.304,2.395,1.51,3.902c1.628,2.036,2.266,3.922,1.896,5.604c-0.439,2-2.156,2.88-2.229,2.916
					C36.304,15.966,36.151,16,36.001,16z"/>
			</g>
		</g>
		<g>
			<path d="M24,21c-0.553,0-1-0.447-1-1c0-1.103-0.897-2-2-2s-2,0.897-2,2c0,0.553-0.447,1-1,1s-1-0.447-1-1c0-2.206,1.794-4,4-4
				s4,1.794,4,4C25,20.553,24.553,21,24,21z"/>
		</g>
		<g>
			<path d="M45,11c-1.654,0-3-1.346-3-3s1.346-3,3-3s3,1.346,3,3S46.654,11,45,11z M45,7c-0.552,0-1,0.448-1,1s0.448,1,1,1
				s1-0.448,1-1S45.552,7,45,7z"/>
		</g>
		<g>
			<path d="M15.5,10C14.121,10,13,8.879,13,7.5S14.121,5,15.5,5S18,6.121,18,7.5S16.879,10,15.5,10z M15.5,7
				C15.225,7,15,7.225,15,7.5S15.225,8,15.5,8S16,7.775,16,7.5S15.775,7,15.5,7z"/>
		</g>
	</g>
</g>
<g id="_x32_2_vampire_x2C__fangs_x2C__fairy_x2C__tale_x2C__legend_x2C__fantasy">
</g>
<g id="_x32_1_leprechaun_x2C__gold_x2C__coin_x2C__fairy_x2C__tale_x2C__legend_x2C__fantasy">
</g>
<g id="_x32_0_rainbow_x2C__bird_x2C__sun_x2C__fairy_x2C__tale_x2C__legend_x2C__fantasy">
</g>
<g id="_x31_9_satyr_x2C__horn_x2C__fairy_x2C__tale_x2C__legend_x2C__fantasy">
</g>
<g id="_x31_8_lamp_x2C__jinn_x2C__magic_x2C__fairy_x2C__tale_x2C__legend_x2C__fantasy">
</g>
<g id="_x31_7_frog_x2C__princess_x2C__crown_x2C__fairy_x2C__tale_x2C__legend_x2C__fantasy">
</g>
<g id="_x31_6_royal_x2C__decree_x2C__scroll_x2C__fairy_x2C__tale_x2C__legend_x2C__fantasy">
</g>
<g id="_x31_5_cup_x2C__drink_x2C__gold_x2C__fairy_x2C__tale_x2C__legend_x2C__fantasy">
</g>
<g id="_x31_4_shield_x2C__sword_x2C__fairy_x2C__tale_x2C__legend_x2C__fantasy">
</g>
<g id="_x31_3_potion_x2C__bottle_x2C__magic_x2C__fairy_x2C__tale_x2C__legend_x2C__fantasy">
</g>
<g id="_x31_2_mermaid_x2C__fish_x2C__fairy_x2C__tale_x2C__legend_x2C__fantasy">
</g>
<g id="_x31_1_knight_x2C__helmet_x2C__fairy_x2C__tale_x2C__legend_x2C__fantasy">
</g>
<g id="_x31_0_princess_x2C__crown_x2C__fairy_x2C__tale_x2C__legend_x2C__fantasy">
</g>
<g id="_x39__queen_x2C__crown_x2C__fairy_x2C__tale_x2C__legend_x2C__fantasy">
</g>
<g id="_x38__elf_x2C__flag_x2C__fairy_x2C__tale_x2C__legend_x2C__fantasy">
</g>
<g id="_x37__castle_x2C__flag_x2C__fairy_x2C__tale_x2C__legend_x2C__fantasy">
</g>
<g id="_x36__unicorn_x2C__horn_x2C__horse_x2C__fairy_x2C__tale_x2C__legend_x2C__fantasy">
</g>
<g id="_x35__book_x2C__magic_x2C__fairy_x2C__tale_x2C__legend_x2C__fantasy">
</g>
<g id="_x34__dragon_x2C__fire_x2C__fairy_x2C__tale_x2C__legend_x2C__fantasy">
</g>
<g id="_x33__sword_x2C__duel_x2C__war_x2C__fairy_x2C__tale_x2C__legend_x2C__fantasy">
</g>
<g id="_x32__crown_x2C__king_x2C__fairy_x2C__tale_x2C__legend_x2C__fantasy">
</g>
<g id="_x31__king_x2C__crown_x2C__fairy_x2C__tale_x2C__legend_x2C__fantasy">
</g>
</svg>
