<?xml version="1.0" encoding="utf-8"?>
<!-- Generator: Adobe Illustrator 16.0.0, SVG Export Plug-In . SVG Version: 6.00 Build 0)  -->
<!DOCTYPE svg PUBLIC "-//W3C//DTD SVG 1.1//EN" "http://www.w3.org/Graphics/SVG/1.1/DTD/svg11.dtd">
<svg version="1.1" xmlns="http://www.w3.org/2000/svg" xmlns:xlink="http://www.w3.org/1999/xlink" x="0px" y="0px" viewBox="0 0 64 64" enable-background="new 0 0 64 64" xml:space="preserve">
<g id="_x35_0_fairy_x2C__wing_x2C__fairy_x2C__tale_x2C__legend_x2C__fantasy">
</g>
<g id="_x34_9_gingerbread_x2C__house_x2C__fairy_x2C__tale_x2C__legend_x2C__fantasy">
</g>
<g id="_x34_8_torch_x2C__fire_x2C__fairy_x2C__tale_x2C__legend_x2C__fantasy">
</g>
<g id="_x34_7_armor_x2C__knight_x2C__fairy_x2C__tale_x2C__legend_x2C__fantasy">
</g>
<g id="_x34_6_jester_x2C__joker_x2C__joke_x2C__fairy_x2C__tale_x2C__legend_x2C__fantasy">
</g>
<g id="_x34_5_shield_x2C__knight_x2C__crown_x2C__fairy_x2C__tale_x2C__legend_x2C__fantasy">
</g>
<g id="_x34_4_spear_x2C__knight_x2C__weapon_x2C__duel_x2C__war_x2C__fairy_x2C__tale">
</g>
<g id="_x34_3_coach_x2C__pumpkin_x2C__magic_x2C__fairy_x2C__tale_x2C__legend_x2C__fantasy">
</g>
<g id="_x34_2_sword_x2C__magic_x2C__fairy_x2C__tale_x2C__legend_x2C__fantasy">
</g>
<g id="_x34_1_dagger_x2C__blood_x2C__weapon_x2C__fairy_x2C__tale_x2C__legend_x2C__fantasy">
</g>
<g id="_x34_0_ax_x2C__weapon_x2C__war_x2C__fairy_x2C__tale_x2C__legend_x2C__fantasy">
</g>
<g id="_x33_9_ax_x2C__weapon_x2C__fairy_x2C__tale_x2C__legend_x2C__fantasy">
</g>
<g id="_x33_8_standard_x2C__flag_x2C__crown_x2C__fairy_x2C__tale_x2C__legend_x2C__fantasy">
</g>
<g id="_x33_7_trumpet_x2C__flag_x2C__crown_x2C__fairy_x2C__tale_x2C__legend_x2C__fantasy">
</g>
<g id="_x33_6_flag_x2C__crown_x2C__fairy_x2C__tale_x2C__legend_x2C__fantasy">
	<g>
		<g>
			<polygon fill="#FFCE54" points="30.5,20 30.5,25 20.5,25 20.5,20 22.5,21 25.5,18 28.5,21 30.34,20 			"/>
		</g>
		<g>
			<g>
				<polygon fill="#F6BB42" points="30.34,20 28.5,21 28.5,25 30.5,25 30.5,20 				"/>
			</g>
		</g>
		<g>
			<polygon fill="#DA4453" points="55.5,17 51.5,26 55.5,37 33.5,37 38.5,32 38.5,17 			"/>
		</g>
		<g>
			<path fill="#ED5565" d="M38.5,17v15h-26V12h26V17z M30.5,25v-5h-0.16l-1.84,1l-3-3l-3,3l-2-1v5H30.5z"/>
		</g>
		<g>
			<polygon fill="#E6E9ED" points="11,1 13.5,8 12.5,8 9.5,8 8.5,8 			"/>
		</g>
		<g>
			<polygon fill="#965353" points="12.5,32 12.5,63 9.5,63 9.5,8 12.5,8 12.5,12 			"/>
		</g>
	</g>
	<g>
		<g>
			<path d="M9.5,64c-0.553,0-1-0.447-1-1V8c0-0.553,0.447-1,1-1s1,0.447,1,1v55C10.5,63.553,10.053,64,9.5,64z"/>
		</g>
		<g>
			<path d="M12.5,64c-0.553,0-1-0.447-1-1V8c0-0.553,0.447-1,1-1s1,0.447,1,1v55C13.5,63.553,13.053,64,12.5,64z"/>
		</g>
		<g>
			<path d="M13.5,9h-5c-0.553,0-1-0.447-1-1s0.447-1,1-1h5c0.553,0,1,0.447,1,1S14.053,9,13.5,9z"/>
		</g>
		<g>
			<path d="M13.5,9c-0.411,0-0.796-0.255-0.941-0.664l-2.5-7c-0.187-0.52,0.085-1.092,0.605-1.277
				c0.519-0.188,1.093,0.085,1.277,0.605l2.5,7c0.187,0.52-0.085,1.092-0.605,1.277C13.726,8.981,13.611,9,13.5,9z"/>
		</g>
		<g>
			<path d="M8.5,9C8.389,9,8.274,8.981,8.164,8.941C7.644,8.756,7.372,8.184,7.559,7.664l2.5-7c0.185-0.521,0.759-0.794,1.277-0.605
				c0.521,0.186,0.792,0.758,0.605,1.277l-2.5,7C9.296,8.745,8.911,9,8.5,9z"/>
		</g>
		<g>
			<path d="M38.5,13h-26c-0.553,0-1-0.447-1-1s0.447-1,1-1h26c0.553,0,1,0.447,1,1S39.053,13,38.5,13z"/>
		</g>
		<g>
			<path d="M38.5,33h-26c-0.553,0-1-0.447-1-1s0.447-1,1-1h26c0.553,0,1,0.447,1,1S39.053,33,38.5,33z"/>
		</g>
		<g>
			<path d="M38.5,33c-0.553,0-1-0.447-1-1V12c0-0.553,0.447-1,1-1s1,0.447,1,1v20C39.5,32.553,39.053,33,38.5,33z"/>
		</g>
		<g>
			<path d="M55.5,18h-17c-0.553,0-1-0.447-1-1s0.447-1,1-1h17c0.553,0,1,0.447,1,1S56.053,18,55.5,18z"/>
		</g>
		<g>
			<path d="M55.5,38h-22c-0.553,0-1-0.447-1-1s0.447-1,1-1h22c0.553,0,1,0.447,1,1S56.053,38,55.5,38z"/>
		</g>
		<g>
			<path d="M55.5,38c-0.408,0-0.792-0.252-0.939-0.658l-4-11c-0.089-0.243-0.079-0.512,0.025-0.748l4-9
				c0.225-0.503,0.817-0.73,1.32-0.508c0.505,0.225,0.731,0.815,0.508,1.32l-3.836,8.631l3.861,10.621
				c0.189,0.52-0.079,1.093-0.598,1.281C55.729,37.98,55.613,38,55.5,38z"/>
		</g>
		<g>
			<path d="M33.5,38c-0.256,0-0.512-0.098-0.707-0.293c-0.391-0.391-0.391-1.023,0-1.414l5-5c0.391-0.391,1.023-0.391,1.414,0
				s0.391,1.023,0,1.414l-5,5C34.012,37.902,33.756,38,33.5,38z"/>
		</g>
		<g>
			<g>
				<path d="M20.5,26c-0.553,0-1-0.447-1-1v-5c0-0.553,0.447-1,1-1s1,0.447,1,1v5C21.5,25.553,21.053,26,20.5,26z"/>
			</g>
			<g>
				<path d="M30.5,26h-10c-0.553,0-1-0.447-1-1s0.447-1,1-1h10c0.553,0,1,0.447,1,1S31.053,26,30.5,26z"/>
			</g>
			<g>
				<path d="M30.5,26c-0.553,0-1-0.447-1-1v-5c0-0.553,0.447-1,1-1s1,0.447,1,1v5C31.5,25.553,31.053,26,30.5,26z"/>
			</g>
			<g>
				<path d="M22.499,22c-0.15,0-0.303-0.034-0.446-0.105l-2-1c-0.494-0.247-0.694-0.848-0.447-1.342
					c0.248-0.494,0.847-0.692,1.342-0.447l2,1c0.494,0.247,0.694,0.848,0.447,1.342C23.219,21.798,22.866,22,22.499,22z"/>
			</g>
			<g>
				<path d="M22.5,22c-0.256,0-0.512-0.098-0.707-0.293c-0.391-0.391-0.391-1.023,0-1.414l3-3c0.391-0.391,1.023-0.391,1.414,0
					s0.391,1.023,0,1.414l-3,3C23.012,21.902,22.756,22,22.5,22z"/>
			</g>
			<g>
				<path d="M28.5,22c-0.256,0-0.512-0.098-0.707-0.293l-3-3c-0.391-0.391-0.391-1.023,0-1.414s1.023-0.391,1.414,0l3,3
					c0.391,0.391,0.391,1.023,0,1.414C29.012,21.902,28.756,22,28.5,22z"/>
			</g>
			<g>
				<path d="M28.501,22c-0.355,0-0.699-0.189-0.88-0.523c-0.264-0.485-0.083-1.092,0.402-1.355l1.844-1
					c0.485-0.263,1.093-0.083,1.355,0.402c0.264,0.485,0.083,1.092-0.402,1.355l-1.844,1C28.825,21.961,28.662,22,28.501,22z"/>
			</g>
		</g>
	</g>
</g>
<g id="_x33_5_bow_x2C__arrow_x2C__weapon_x2C__fairy_x2C__tale_x2C__legend_x2C__fantasy">
</g>
<g id="_x33_4_crossbow_x2C__arrow_x2C__weapon_x2C__fairy_x2C__tale_x2C__legend_x2C__fantasy">
</g>
<g id="_x33_3_helmet_x2C__knight_x2C__fairy_x2C__tale_x2C__legend_x2C__fantasy">
</g>
<g id="_x33_2_palace_x2C__castle_x2C__fairy_x2C__tale_x2C__legend_x2C__fantasy">
</g>
<g id="_x33_1_stained_x2C__glass_x2C__window_x2C__sword_x2C__fairy_x2C__tale_x2C__legend">
</g>
<g id="_x33_0_little_x2C__red_x2C__riding_x2C__hood_x2C__girl_x2C__fairy_x2C__tale">
</g>
<g id="_x32_9_medusa_x2C__snake_x2C__hair_x2C__fairy_x2C__tale_x2C__legend_x2C__fantasy">
</g>
<g id="_x32_8_tower_x2C__hair_x2C__fairy_x2C__tale_x2C__legend_x2C__fantasy">
</g>
<g id="_x32_7_mirror_x2C__magic_x2C__fairy_x2C__tale_x2C__legend_x2C__fantasy">
</g>
<g id="_x32_6_ring_x2C__magic_x2C__diamond_x2C__fairy_x2C__tale_x2C__legend_x2C__fantasy">
</g>
<g id="_x32_5_sword_x2C__stone_x2C__magic_x2C__fairy_x2C__tale_x2C__legend_x2C__fantasy">
</g>
<g id="_x32_4_wizard_x2C__magician_x2C__staff_x2C__fairy_x2C__tale_x2C__legend_x2C__fantasy">
</g>
<g id="_x32_3_witch_x2C__cat_x2C__potion_x2C__fairy_x2C__tale_x2C__legend_x2C__fantasy">
</g>
<g id="_x32_2_vampire_x2C__fangs_x2C__fairy_x2C__tale_x2C__legend_x2C__fantasy">
</g>
<g id="_x32_1_leprechaun_x2C__gold_x2C__coin_x2C__fairy_x2C__tale_x2C__legend_x2C__fantasy">
</g>
<g id="_x32_0_rainbow_x2C__bird_x2C__sun_x2C__fairy_x2C__tale_x2C__legend_x2C__fantasy">
</g>
<g id="_x31_9_satyr_x2C__horn_x2C__fairy_x2C__tale_x2C__legend_x2C__fantasy">
</g>
<g id="_x31_8_lamp_x2C__jinn_x2C__magic_x2C__fairy_x2C__tale_x2C__legend_x2C__fantasy">
</g>
<g id="_x31_7_frog_x2C__princess_x2C__crown_x2C__fairy_x2C__tale_x2C__legend_x2C__fantasy">
</g>
<g id="_x31_6_royal_x2C__decree_x2C__scroll_x2C__fairy_x2C__tale_x2C__legend_x2C__fantasy">
</g>
<g id="_x31_5_cup_x2C__drink_x2C__gold_x2C__fairy_x2C__tale_x2C__legend_x2C__fantasy">
</g>
<g id="_x31_4_shield_x2C__sword_x2C__fairy_x2C__tale_x2C__legend_x2C__fantasy">
</g>
<g id="_x31_3_potion_x2C__bottle_x2C__magic_x2C__fairy_x2C__tale_x2C__legend_x2C__fantasy">
</g>
<g id="_x31_2_mermaid_x2C__fish_x2C__fairy_x2C__tale_x2C__legend_x2C__fantasy">
</g>
<g id="_x31_1_knight_x2C__helmet_x2C__fairy_x2C__tale_x2C__legend_x2C__fantasy">
</g>
<g id="_x31_0_princess_x2C__crown_x2C__fairy_x2C__tale_x2C__legend_x2C__fantasy">
</g>
<g id="_x39__queen_x2C__crown_x2C__fairy_x2C__tale_x2C__legend_x2C__fantasy">
</g>
<g id="_x38__elf_x2C__flag_x2C__fairy_x2C__tale_x2C__legend_x2C__fantasy">
</g>
<g id="_x37__castle_x2C__flag_x2C__fairy_x2C__tale_x2C__legend_x2C__fantasy">
</g>
<g id="_x36__unicorn_x2C__horn_x2C__horse_x2C__fairy_x2C__tale_x2C__legend_x2C__fantasy">
</g>
<g id="_x35__book_x2C__magic_x2C__fairy_x2C__tale_x2C__legend_x2C__fantasy">
</g>
<g id="_x34__dragon_x2C__fire_x2C__fairy_x2C__tale_x2C__legend_x2C__fantasy">
</g>
<g id="_x33__sword_x2C__duel_x2C__war_x2C__fairy_x2C__tale_x2C__legend_x2C__fantasy">
</g>
<g id="_x32__crown_x2C__king_x2C__fairy_x2C__tale_x2C__legend_x2C__fantasy">
</g>
<g id="_x31__king_x2C__crown_x2C__fairy_x2C__tale_x2C__legend_x2C__fantasy">
</g>
</svg>
