<?xml version="1.0" encoding="iso-8859-1"?>
<!-- Generator: Adobe Illustrator 19.0.0, SVG Export Plug-In . SVG Version: 6.00 Build 0)  -->
<svg xmlns="http://www.w3.org/2000/svg" xmlns:xlink="http://www.w3.org/1999/xlink" version="1.1" id="Capa_1" x="0px" y="0px" viewBox="0 0 512 512" style="enable-background:new 0 0 512 512;" xml:space="preserve">
<g>
	<path style="fill:#FAEBC8;" d="M457.24,260.611c-5.765-7.656-16.059-11.198-25.301-8.664c-9.19,2.519-15.373,9.653-17.266,17.879   c-2.701,11.74-10.965,21.42-21.882,26.51L105.659,430.229c-10.918,5.091-23.645,5.198-34.373-0.278   c-7.519-3.838-16.958-3.687-24.794,1.734c-7.882,5.452-11.786,15.615-9.627,24.951c1.891,8.177,7.4,13.937,14.109,16.783   c-2.132,6.969-1.261,14.892,3.788,21.596c5.765,7.656,16.059,11.198,25.301,8.664c9.19-2.519,15.373-9.653,17.266-17.879   c2.701-11.74,10.965-21.42,21.882-26.51l287.133-133.893c10.918-5.091,23.644-5.198,34.373,0.278   c7.519,3.838,16.958,3.687,24.794-1.734c7.882-5.452,11.786-15.615,9.627-24.951c-1.891-8.177-7.4-13.937-14.109-16.783   C463.16,275.238,462.288,267.316,457.24,260.611z"/>
	<path style="fill:#FAEBC8;" d="M253.398,7.523C179.338,8.91,119.73,69.379,119.73,143.77v72.144   c0,17.709,14.356,32.064,32.064,32.064h32.064v40.08c0,4.427,3.589,8.016,8.016,8.016h128.255c4.427,0,8.016-3.589,8.016-8.016   v-40.08h32.064c17.709,0,32.064-14.356,32.064-32.064v-68.573C392.273,70.96,329.767,6.092,253.398,7.523z"/>
</g>
<path style="fill:#A08773;" d="M257.446,215.915h-2.889c-3.821,0-7.111,2.697-7.861,6.444l-4.809,24.048  c-0.992,4.96,2.802,9.588,7.861,9.588h12.508c5.059,0,8.853-4.628,7.86-9.588l-4.81-24.048  C264.556,218.612,261.267,215.915,257.446,215.915z"/>
<path style="fill:#F5DCB4;" d="M253.399,7.523C179.338,8.91,119.73,69.379,119.73,143.77v72.144  c0,17.709,14.355,32.064,32.064,32.064h32.064V103.69c0-49.328,37.149-89.927,84.986-95.486  C263.764,7.7,258.622,7.425,253.399,7.523z"/>
<g>
	<circle style="fill:#A08773;" cx="191.877" cy="175.837" r="40.079"/>
	<circle style="fill:#A08773;" cx="320.124" cy="175.837" r="40.079"/>
</g>
<g>
	<path style="fill:#F5DCB4;" d="M191.873,296.074h15.516v-48.096h-23.532v40.08C183.857,292.485,187.446,296.074,191.873,296.074z"/>
	<path style="fill:#F5DCB4;" d="M320.129,296.074h-15.516v-48.096h23.532v40.08C328.145,292.485,324.556,296.074,320.129,296.074z"/>
	<polygon style="fill:#F5DCB4;" points="227.55,408.769 322.387,364.546 284.452,346.856 189.615,391.079  "/>
</g>
<path style="fill:#FAEBC8;" d="M54.761,260.611c5.765-7.656,16.059-11.198,25.301-8.664c9.19,2.519,15.373,9.653,17.266,17.879  c2.701,11.74,10.965,21.42,21.882,26.51l287.133,133.892c10.918,5.091,23.644,5.198,34.373-0.278  c7.519-3.838,16.958-3.687,24.794,1.734c7.882,5.452,11.786,15.615,9.627,24.951c-1.891,8.177-7.4,13.937-14.109,16.783  c2.132,6.969,1.261,14.892-3.788,21.596c-5.765,7.656-16.059,11.198-25.301,8.664c-9.19-2.519-15.373-9.653-17.266-17.879  c-2.701-11.74-10.965-21.42-21.882-26.51L105.659,325.396c-10.918-5.091-23.645-5.198-34.373,0.278  c-7.519,3.838-16.958,3.687-24.794-1.734c-7.882-5.452-11.786-15.615-9.627-24.951c1.891-8.177,7.4-13.937,14.109-16.783  C48.842,275.238,49.713,267.316,54.761,260.611z"/>
<path d="M191.873,223.415c26.235,0,47.58-21.345,47.58-47.58c0-6.608-1.331-13.008-3.957-19.021  c-1.657-3.796-6.078-5.53-9.875-3.873c-3.796,1.657-5.53,6.078-3.873,9.875c1.794,4.109,2.704,8.489,2.704,13.019  c0,17.965-14.616,32.58-32.58,32.58s-32.58-14.616-32.58-32.58s14.616-32.58,32.58-32.58c4.539,0,8.927,0.913,13.044,2.714  c3.794,1.661,8.217-0.07,9.877-3.865c1.66-3.795-0.071-8.217-3.866-9.877c-6.024-2.635-12.435-3.972-19.055-3.972  c-26.235,0-47.58,21.345-47.58,47.58S165.638,223.415,191.873,223.415z"/>
<path d="M350.006,162.815c1.793,4.109,2.703,8.49,2.703,13.02c0,17.965-14.616,32.58-32.58,32.58  c-17.965,0-32.58-14.616-32.58-32.58s14.616-32.58,32.58-32.58c4.539,0,8.927,0.913,13.043,2.714c3.795,1.66,8.217-0.07,9.877-3.865  c1.66-3.795-0.07-8.217-3.865-9.877c-6.024-2.635-12.435-3.972-19.055-3.972c-26.235,0-47.58,21.345-47.58,47.58  s21.345,47.58,47.58,47.58c26.235,0,47.58-21.345,47.58-47.58c0-6.607-1.331-13.007-3.956-19.021  c-1.657-3.796-6.077-5.53-9.874-3.873C350.083,154.598,348.349,159.019,350.006,162.815z"/>
<path d="M234.533,244.935c-0.915,4.576,0.257,9.271,3.215,12.88c2.959,3.609,7.333,5.679,12,5.679h12.508  c4.667,0,9.04-2.07,11.999-5.679c2.959-3.609,4.131-8.304,3.216-12.88l-4.81-24.048c-1.446-7.228-7.845-12.473-15.215-12.473h-2.889  c-7.371,0-13.77,5.246-15.215,12.473L234.533,244.935z M249.242,247.877l4.81-24.048c0.048-0.24,0.261-0.414,0.506-0.414h2.889  c0.246,0,0.458,0.174,0.506,0.415l4.81,24.047c0.014,0.071,0.048,0.239-0.107,0.429c-0.155,0.189-0.326,0.189-0.399,0.189h-12.508  c-0.073,0-0.244,0-0.399-0.189C249.194,248.117,249.227,247.949,249.242,247.877z"/>
<path d="M151.793,255.478h24.563v32.58c0,8.556,6.96,15.516,15.516,15.516h128.256c8.556,0,15.516-6.96,15.516-15.516v-32.58h24.563  c21.816,0,39.563-17.749,39.563-39.563v-68.573c0-39.545-16.33-78.251-44.8-106.195C327.23,13.92,291.116-0.68,253.258,0.024  c-37.825,0.709-73.274,15.977-99.816,42.989c-26.576,27.049-41.212,62.832-41.212,100.756v72.144  C112.23,237.729,129.977,255.478,151.793,255.478z M127.229,143.769c0-33.967,13.109-66.017,36.912-90.243  c23.772-24.195,55.521-37.87,89.397-38.504c33.81-0.63,66.083,12.448,90.927,36.831c25.615,25.14,40.307,59.945,40.307,95.489  v68.573c0,13.545-11.02,24.563-24.563,24.563h-48.096c-4.142,0-7.5,3.357-7.5,7.5c0,4.142,3.358,7.5,7.5,7.5h8.532v32.58  c0,0.285-0.231,0.516-0.516,0.516h-24.564v-0.516c0-4.142-3.358-7.5-7.5-7.5s-7.5,3.358-7.5,7.5v0.516h-17.064v-0.516  c0-4.142-3.358-7.5-7.5-7.5c-4.142,0-7.5,3.358-7.5,7.5v0.516h-17.064v-0.516c0-4.142-3.358-7.5-7.5-7.5s-7.5,3.358-7.5,7.5v0.516  h-24.564c-0.285,0-0.516-0.231-0.516-0.516v-32.58h8.532c4.142,0,7.5-3.358,7.5-7.5c0-4.143-3.358-7.5-7.5-7.5h-48.096  c-13.545,0-24.563-11.02-24.563-24.563v-72.145H127.229z"/>
<path d="M263.446,47.344c5.008,0.381,10.014,1.157,14.878,2.306c0.58,0.137,1.16,0.203,1.73,0.203c3.399,0,6.478-2.326,7.293-5.778  c0.952-4.031-1.544-8.071-5.575-9.023c-5.621-1.328-11.404-2.224-17.188-2.664c-4.146-0.319-7.733,2.779-8.048,6.909  C256.224,43.427,259.317,47.03,263.446,47.344z"/>
<path d="M303.615,59.575c16.016,9.078,29.064,22.455,37.738,38.682c1.351,2.528,3.942,3.967,6.621,3.967  c1.193,0,2.403-0.286,3.529-0.887c3.653-1.953,5.032-6.497,3.08-10.15c-10.015-18.738-25.081-34.181-43.571-44.661  c-3.602-2.042-8.181-0.777-10.223,2.826C298.747,52.955,300.011,57.532,303.615,59.575z"/>
<path d="M469.777,425.516c-9.657-6.679-22.099-7.54-32.471-2.246c-8.412,4.294-18.802,4.354-27.793,0.161l-97.83-45.619  l97.831-45.619c8.991-4.193,19.381-4.133,27.793,0.161c10.373,5.294,22.815,4.434,32.47-2.245  c10.444-7.225,15.535-20.41,12.667-32.81c-1.83-7.913-6.45-14.595-12.997-19.019c0.819-7.858-1.33-15.692-6.216-22.182  c-7.656-10.167-21.028-14.743-33.275-11.386c-11.324,3.104-19.98,12.082-22.592,23.43c-2.118,9.205-8.75,17.203-17.743,21.396  L256,351.848l-133.622-62.309c-8.992-4.193-15.625-12.191-17.743-21.396c-2.612-11.349-11.269-20.327-22.592-23.43  c-12.249-3.357-25.619,1.219-33.275,11.386l0,0c-4.885,6.489-7.035,14.323-6.215,22.181c-6.546,4.424-11.167,11.106-12.997,19.019  c-2.868,12.4,2.222,25.585,12.667,32.81c9.656,6.679,22.099,7.54,32.47,2.245c8.412-4.293,18.802-4.354,27.794-0.161l97.83,45.619  l-97.831,45.619c-8.992,4.193-19.382,4.133-27.793-0.161c-10.373-5.294-22.814-4.434-32.47,2.246  c-10.444,7.225-15.535,20.41-12.667,32.809c1.83,7.914,6.45,14.596,12.997,19.02c-0.819,7.858,1.33,15.692,6.216,22.182  C54.751,507.469,64.223,512,73.922,512c2.713,0,5.446-0.355,8.123-1.089c11.324-3.104,19.98-12.082,22.592-23.43  c2.118-9.204,8.75-17.203,17.743-21.396l133.622-62.309l133.621,62.309c8.992,4.193,15.625,12.191,17.743,21.396  c2.612,11.349,11.269,20.327,22.592,23.43c2.678,0.734,5.409,1.089,8.123,1.089c9.698,0,19.171-4.531,25.152-12.476  c4.885-6.488,7.035-14.322,6.215-22.181c6.546-4.424,11.167-11.105,12.997-19.02C485.312,445.925,480.221,432.74,469.777,425.516z   M395.962,303.134c13.148-6.131,22.876-17.954,26.021-31.625c1.393-6.053,5.856-10.661,11.939-12.328  c6.276-1.72,13.399,0.725,17.328,5.942c4.432,5.886,3.536,11.856,2.607,14.891c-1.124,3.672,0.708,7.599,4.243,9.099  c2.922,1.239,8.071,4.391,9.731,11.569c1.472,6.364-1.236,13.393-6.586,17.094c-5.188,3.588-11.586,4.045-17.119,1.221  c-12.497-6.378-27.806-6.526-40.952-0.396l-109.238,50.939l-20.189-9.415L395.962,303.134z M116.041,452.492  c-13.148,6.131-22.876,17.954-26.021,31.626c-1.393,6.052-5.856,10.66-11.939,12.328c-6.275,1.72-13.398-0.725-17.328-5.942  c-4.432-5.887-3.536-11.856-2.607-14.891c1.124-3.672-0.708-7.599-4.243-9.099c-2.921-1.239-8.071-4.39-9.731-11.568  c-1.472-6.364,1.236-13.394,6.586-17.094c5.188-3.589,11.588-4.045,17.118-1.222c12.496,6.379,27.806,6.526,40.953,0.396  l109.238-50.938l20.189,9.415L116.041,452.492z M467.83,454.946c-1.66,7.178-6.81,10.329-9.731,11.568  c-3.535,1.5-5.367,5.427-4.243,9.1c0.929,3.034,1.825,9.004-2.606,14.89c-3.93,5.219-11.054,7.663-17.329,5.943  c-6.083-1.668-10.546-6.276-11.939-12.328c-3.146-13.673-12.874-25.495-26.021-31.626L108.829,318.599  c-6.432-2.999-13.379-4.495-20.263-4.495c-7.188,0-14.308,1.633-20.691,4.891c-5.531,2.824-11.931,2.367-17.119-1.221  c-5.35-3.701-8.058-10.73-6.586-17.095c1.66-7.178,6.81-10.329,9.731-11.568c3.535-1.5,5.366-5.427,4.243-9.099  c-0.929-3.035-1.825-9.004,2.606-14.89c3.929-5.218,11.054-7.663,17.329-5.942c6.083,1.667,10.546,6.275,11.939,12.328  c3.146,13.673,12.874,25.495,26.021,31.626l287.133,133.892c13.148,6.131,28.457,5.983,40.953-0.396  c5.531-2.823,11.932-2.366,17.119,1.222C466.594,441.552,469.302,448.582,467.83,454.946z"/>
<g>
</g>
<g>
</g>
<g>
</g>
<g>
</g>
<g>
</g>
<g>
</g>
<g>
</g>
<g>
</g>
<g>
</g>
<g>
</g>
<g>
</g>
<g>
</g>
<g>
</g>
<g>
</g>
<g>
</g>
</svg>
